<svg width="39" height="13" viewBox="0 0 39 13" fill="none" xmlns="http://www.w3.org/2000/svg">
<path d="M37.7143 2.00917e-09H33.6C33.51 -6.89329e-06 33.4208 0.0177343 33.3376 0.0522086C33.2544 0.0866829 33.1788 0.137214 33.1152 0.200914L31.9446 1.37143H6.45538L5.2848 0.200914C5.15623 0.0723085 4.98185 3.88391e-05 4.8 2.00917e-09H0.685714C0.649388 0.00416739 0.613485 0.0114398 0.5784 0.0217372C0.418608 0.0451565 0.272465 0.124965 0.166386 0.24674C0.0603061 0.368514 0.00128852 0.52422 0 0.685714C0 0.910011 0.0220799 6.21943 1.94565 10.3908C2.22242 10.9773 2.66088 11.4725 3.20946 11.8183C3.75804 12.1641 4.39394 12.3461 5.0424 12.3429H33.3576C34.006 12.3462 34.642 12.1643 35.1905 11.8184C35.7391 11.4726 36.1774 10.9773 36.454 10.3908C38.3779 6.21943 38.4 0.910011 38.4 0.685714C38.4 0.503852 38.3278 0.329437 38.1992 0.200841C38.0706 0.0722442 37.8961 2.00917e-09 37.7143 2.00917e-09ZM35.2085 9.81627C35.042 10.1651 34.7793 10.4591 34.4515 10.6637C34.1236 10.8683 33.7441 10.9751 33.3576 10.9714H5.0424C4.65583 10.9752 4.27622 10.8685 3.94824 10.6638C3.62025 10.4592 3.35753 10.1651 3.19097 9.81627C1.77963 6.75634 1.46393 2.90743 1.39296 1.37143H4.51605L5.68663 2.54194C5.81519 2.67055 5.98958 2.74282 6.17143 2.74286H32.2286C32.3186 2.74286 32.4078 2.72512 32.491 2.69065C32.5742 2.65617 32.6497 2.60564 32.7134 2.54194L33.884 1.37143H37.007C36.9361 2.90743 36.6203 6.75634 35.2085 9.81627ZM6.85714 4.11429C6.31466 4.11429 5.78435 4.27515 5.33329 4.57654C4.88223 4.87793 4.53067 5.30631 4.32307 5.8075C4.11547 6.30869 4.06115 6.86019 4.16699 7.39225C4.27282 7.92431 4.53405 8.41304 4.91765 8.79664C5.30125 9.18023 5.78998 9.44146 6.32204 9.5473C6.8541 9.65313 7.4056 9.59881 7.90679 9.39121C8.40798 9.18361 8.83636 8.83205 9.13774 8.38099C9.43913 7.92993 9.6 7.39963 9.6 6.85714C9.59924 6.12993 9.31001 5.43271 8.79579 4.91849C8.28157 4.40427 7.58436 4.11505 6.85714 4.11429ZM6.85714 8.22857C6.5859 8.22857 6.32075 8.14814 6.09522 7.99745C5.86969 7.84675 5.69391 7.63256 5.59011 7.38197C5.48631 7.13137 5.45915 6.85562 5.51207 6.58959C5.56498 6.32356 5.6956 6.07919 5.8874 5.8874C6.07919 5.6956 6.32356 5.56498 6.58959 5.51207C6.85562 5.45915 7.13137 5.48631 7.38197 5.59011C7.63256 5.69391 7.84675 5.86969 7.99744 6.09522C8.14814 6.32075 8.22857 6.5859 8.22857 6.85714C8.22815 7.22074 8.08353 7.56933 7.82643 7.82643C7.56933 8.08353 7.22074 8.22815 6.85714 8.22857ZM31.5429 4.11429C31.0004 4.11429 30.4701 4.27515 30.019 4.57654C29.5679 4.87793 29.2164 5.30631 29.0088 5.8075C28.8012 6.30869 28.7469 6.86019 28.8527 7.39225C28.9585 7.92431 29.2198 8.41304 29.6034 8.79664C29.987 9.18023 30.4757 9.44146 31.0078 9.5473C31.5398 9.65313 32.0913 9.59881 32.5925 9.39121C33.0937 9.18361 33.5221 8.83205 33.8235 8.38099C34.1248 7.92993 34.2857 7.39963 34.2857 6.85714C34.285 6.12991 33.9958 5.43266 33.4816 4.91843C32.9673 4.4042 32.2701 4.11499 31.5429 4.11429ZM31.5429 8.22857C31.2716 8.22857 31.0065 8.14814 30.7809 7.99745C30.5554 7.84675 30.3796 7.63256 30.2758 7.38197C30.172 7.13137 30.1449 6.85562 30.1978 6.58959C30.2507 6.32356 30.3813 6.07919 30.5731 5.8874C30.7649 5.6956 31.0093 5.56498 31.2753 5.51207C31.5413 5.45915 31.8171 5.48631 32.0677 5.59011C32.3183 5.69391 32.5325 5.86969 32.6832 6.09522C32.8339 6.32075 32.9143 6.5859 32.9143 6.85714C32.9138 7.22072 32.7691 7.56926 32.5121 7.82635C32.255 8.08344 31.9064 8.22808 31.5429 8.22857ZM26.7429 4.11429H11.6571C11.5485 4.11428 11.4414 4.1401 11.3446 4.18961C11.2479 4.23913 11.1643 4.31093 11.1008 4.39909C11.0373 4.48724 10.9956 4.58924 10.9792 4.69667C10.9628 4.8041 10.9722 4.91388 11.0066 5.01696L12.378 9.13124C12.4236 9.26776 12.5109 9.38649 12.6276 9.47062C12.7444 9.55475 12.8847 9.60001 13.0286 9.6H25.3714C25.5153 9.60006 25.6556 9.55481 25.7723 9.47067C25.889 9.38653 25.9762 9.26777 26.0216 9.13124L27.3931 5.01696C27.4276 4.9139 27.4371 4.8041 27.4208 4.69664C27.4045 4.58918 27.3629 4.48713 27.2994 4.39894C27.2358 4.31075 27.1522 4.23893 27.0555 4.18944C26.9587 4.13994 26.8515 4.11418 26.7429 4.11429ZM24.8772 8.22857H13.5228L12.6084 5.48571H25.7913L24.8772 8.22857Z" fill="white"/>
</svg>
