<svg width="82" height="66" viewBox="0 0 82 66" fill="none" xmlns="http://www.w3.org/2000/svg">
<path d="M74.3125 43.0781H67.9062C67.5664 43.0781 67.2405 43.2131 67.0003 43.4534C66.76 43.6937 66.625 44.0196 66.625 44.3594V50.7656C66.625 51.1054 66.76 51.4313 67.0003 51.6716C67.2405 51.9119 67.5664 52.0469 67.9062 52.0469H74.3125C74.6523 52.0469 74.9782 51.9119 75.2185 51.6716C75.4588 51.4313 75.5938 51.1054 75.5938 50.7656V44.3594C75.5938 44.0196 75.4588 43.6937 75.2185 43.4534C74.9782 43.2131 74.6523 43.0781 74.3125 43.0781ZM73.0312 49.4844H69.1875V45.6406H73.0312V49.4844Z" fill="#BC2131"/>
<path d="M14.7344 43.0781H8.32812C7.98832 43.0781 7.66243 43.2131 7.42214 43.4534C7.18186 43.6937 7.04688 44.0196 7.04688 44.3594V50.7656C7.04688 51.1054 7.18186 51.4313 7.42214 51.6716C7.66243 51.9119 7.98832 52.0469 8.32812 52.0469H14.7344C15.0742 52.0469 15.4001 51.9119 15.6404 51.6716C15.8806 51.4313 16.0156 51.1054 16.0156 50.7656V44.3594C16.0156 44.0196 15.8806 43.6937 15.6404 43.4534C15.4001 43.2131 15.0742 43.0781 14.7344 43.0781ZM13.4531 49.4844H9.60938V45.6406H13.4531V49.4844Z" fill="#BC2131"/>
<path d="M67.7526 23.0714C67.8374 22.9147 67.8887 22.7421 67.903 22.5645C67.9173 22.3869 67.8945 22.2083 67.8359 22.04C65.7859 16.1847 60.5007 8.58688 60.3085 8.34344C58.6173 5.67844 47.4896 5.28125 41.0001 5.28125C34.5106 5.28125 23.3829 5.67844 21.7237 8.29219C21.4995 8.6125 16.2143 16.1847 14.1643 22.04C14.1086 22.199 14.0848 22.3674 14.0943 22.5356C14.1038 22.7038 14.1463 22.8685 14.2195 23.0202C14.2927 23.1719 14.3951 23.3078 14.5208 23.4199C14.6466 23.532 14.7932 23.6182 14.9523 23.6736C15.5481 23.8594 25.0742 27.0625 40.0456 27.0625C49.1193 27.0454 58.1562 25.9093 66.9518 23.68C67.1195 23.6378 67.2768 23.5622 67.4144 23.4576C67.552 23.353 67.6671 23.2216 67.7526 23.0714ZM17.0664 21.6364C19.2701 16.2936 23.7737 9.83609 23.8249 9.76562C24.5809 8.99047 30.5643 7.84375 41.0001 7.84375C51.4359 7.84375 57.4193 8.98406 58.1753 9.76562C58.2265 9.83609 62.6917 16.2423 64.9082 21.5659C40.667 27.3187 21.9799 23.0073 17.0664 21.6364Z" fill="#BC2131"/>
<path d="M79.3158 12.9688H74.4342C73.7223 12.9688 73.0396 13.2516 72.5362 13.7549C72.0328 14.2583 71.75 14.9411 71.75 15.653V15.8387C71.7523 16.6733 71.9732 17.4928 72.3906 18.2155L72.0383 18.5678C69.2644 11.9117 64.0369 4.35234 63.8319 4.04484C61.8075 0.841719 47.1756 0.476562 41.0128 0.476562C34.85 0.476562 20.2053 0.796875 18.2194 4C17.9823 4.33312 13.0944 11.3608 10.2884 17.8247L9.96813 17.4531C10.1542 16.9352 10.2496 16.3891 10.25 15.8387V15.653C10.25 14.9411 9.9672 14.2583 9.46381 13.7549C8.96042 13.2516 8.27768 12.9688 7.56578 12.9688H2.68422C1.97232 12.9688 1.28958 13.2516 0.786189 13.7549C0.282801 14.2583 0 14.9411 0 15.653L0 15.8387C0.00169497 17.1159 0.509796 18.3403 1.41289 19.2434C2.31597 20.1465 3.54034 20.6546 4.8175 20.6562H5.45813C6.55086 20.6568 7.61096 20.2838 8.46266 19.5992L9.10328 20.3552C6.4825 22.7262 4.42124 25.6498 3.06848 28.9148C1.71573 32.1798 1.10527 35.7046 1.28125 39.2344C1.66562 48.8886 3.20312 54.0969 3.84375 55.9355V61.7011C3.84375 62.7075 4.24311 63.6728 4.95416 64.3851C5.66521 65.0973 6.62983 65.4983 7.63625 65.5H11.5825C12.5878 65.4983 13.5515 65.0982 14.2623 64.3873C14.9732 63.6765 15.3733 62.7128 15.375 61.7075V57.4922H16.0605C16.2424 57.492 16.4222 57.453 16.5879 57.3779C16.7535 57.3028 16.9013 57.1932 17.0214 57.0566L18.245 55.6792H63.7294L64.953 57.0566C65.073 57.1932 65.2208 57.3028 65.3865 57.3779C65.5522 57.453 65.732 57.492 65.9139 57.4922H66.625V61.7075C66.6267 62.7128 67.0268 63.6765 67.7377 64.3873C68.4485 65.0982 69.4122 65.4983 70.4175 65.5H74.3638C75.3691 65.4983 76.3327 65.0982 77.0436 64.3873C77.7544 63.6765 78.1546 62.7128 78.1562 61.7075V55.9419C78.7969 54.1033 80.3152 48.895 80.7188 39.2408C80.893 35.8215 80.3317 32.4047 79.073 29.2208C77.8143 26.037 75.8873 23.1601 73.422 20.7844L74.1908 20.0156C74.9135 20.433 75.7329 20.6539 76.5675 20.6562H77.2081C78.4808 20.6478 79.6986 20.1367 80.5962 19.2344C81.4938 18.332 81.9983 17.1115 82 15.8387V15.653C82 14.9411 81.7172 14.2583 81.2138 13.7549C80.7104 13.2516 80.0277 12.9688 79.3158 12.9688ZM7.6875 15.8387C7.6875 16.4368 7.44992 17.0104 7.02703 17.4333C6.60413 17.8562 6.03056 18.0938 5.4325 18.0938H4.79187C4.19826 18.087 3.63126 17.8464 3.21389 17.4243C2.79652 17.0021 2.56246 16.4324 2.5625 15.8387V15.653C2.5625 15.6207 2.57532 15.5897 2.59815 15.5669C2.62098 15.5441 2.65194 15.5312 2.68422 15.5312H7.56578C7.59806 15.5312 7.62902 15.5441 7.65185 15.5669C7.67468 15.5897 7.6875 15.6207 7.6875 15.653V15.8387ZM11.2173 21.9375C11.4172 21.7826 11.5685 21.5736 11.653 21.3353C11.653 21.3353 11.653 21.2905 11.653 21.2648C11.7683 20.9317 11.8964 20.6242 12.0309 20.2527C14.5934 13.7183 20.2373 5.55672 20.3206 5.435C21.1406 4.46125 28.258 3.03906 41 3.03906C53.742 3.03906 60.8594 4.46125 61.6794 5.46063C61.7434 5.55031 68.0216 14.6344 70.347 21.3225C70.4315 21.5608 70.5828 21.7698 70.7827 21.9247C71.589 22.5694 72.3293 23.2926 72.9928 24.0836C40.795 36.8961 14.8433 26.7486 9.00719 24.0836C9.67135 23.2971 10.4117 22.5783 11.2173 21.9375ZM21.8709 30.9062C28.0176 32.2673 34.2945 32.9525 40.59 32.9498C46.7177 32.9451 52.8282 32.301 58.8222 31.028C58.5573 31.7993 58.4697 32.6205 58.5659 33.4303C58.6877 34.3375 59.0236 35.2028 59.5461 35.9544L57.1373 36.6719C49.2128 38.9461 41.7623 41.0922 28.9819 37.6969C26.1418 36.9409 23.464 36.3003 20.9484 35.775C21.5173 35.0668 21.9005 34.2279 22.0631 33.3342C22.2022 32.5215 22.1361 31.687 21.8709 30.9062ZM7.42484 26.1784C10.979 27.7997 14.6681 29.1073 18.45 30.0863L18.4884 30.1439C19.3148 31.1177 19.6672 32.0658 19.5327 32.873C19.2917 33.8139 18.7035 34.6287 17.8862 35.1536C17.2456 35.0319 16.5602 34.923 15.9259 34.8205C9.69266 33.8531 6.13719 34.0389 4.15125 34.4489C4.64735 31.4922 5.76294 28.6737 7.42484 26.1784ZM12.8125 61.7075C12.8125 61.869 12.7807 62.029 12.7189 62.1782C12.6571 62.3274 12.5665 62.463 12.4522 62.5772C12.338 62.6915 12.2024 62.7821 12.0532 62.8439C11.904 62.9057 11.744 62.9375 11.5825 62.9375H7.63625C7.31003 62.9375 6.99718 62.8079 6.76651 62.5772C6.53584 62.3466 6.40625 62.0337 6.40625 61.7075V57.4922H12.8125V61.7075ZM75.5938 61.7075C75.5938 62.0337 75.4642 62.3466 75.2335 62.5772C75.0028 62.8079 74.69 62.9375 74.3638 62.9375H70.4175C70.0913 62.9375 69.7784 62.8079 69.5478 62.5772C69.3171 62.3466 69.1875 62.0337 69.1875 61.7075V57.4922H75.5938V61.7075ZM78.1562 39.1639C77.7975 48.1903 76.4202 53.1616 75.818 54.9297H66.5161L65.2925 53.5459C65.1726 53.4112 65.0255 53.3034 64.8611 53.2294C64.6966 53.1555 64.5183 53.1171 64.338 53.1167H17.662C17.4817 53.1171 17.3034 53.1555 17.1389 53.2294C16.9745 53.3034 16.8274 53.4112 16.7075 53.5459L15.4839 54.9297H6.20125C5.59906 53.1552 4.22172 48.2031 3.84375 39.1639C3.84375 38.4848 3.84375 37.8186 3.84375 37.178C4.82391 36.8384 7.91812 36.1786 15.5095 37.3573C19.8257 38.0668 24.1022 38.9991 28.322 40.1505C32.5785 41.3361 36.9725 41.9564 41.3908 41.9955C47.797 41.9955 52.8772 40.5412 57.842 39.1127C61.6562 37.9136 65.5621 37.0288 69.5206 36.4669C72.3562 36.1277 75.2171 36.0527 78.0666 36.2427C78.1575 37.2136 78.1874 38.1892 78.1562 39.1639ZM74.6072 26.1977C76.1097 28.462 77.1644 30.9932 77.7142 33.6545C74.8866 33.4962 72.0506 33.5862 69.2388 33.9236C66.8944 34.2204 64.5708 34.6633 62.2816 35.2497C61.6663 34.6891 61.2578 33.9376 61.122 33.1164C61.09 32.597 61.1638 32.0765 61.3389 31.5865C61.5139 31.0965 61.7867 30.6471 62.1406 30.2656C66.3794 29.201 70.5386 27.8417 74.588 26.1977H74.6072ZM79.4375 15.8387C79.4375 16.4368 79.1999 17.0104 78.777 17.4333C78.3541 17.8562 77.7806 18.0938 77.1825 18.0938H76.5419C75.9483 18.087 75.3813 17.8464 74.9639 17.4243C74.5465 17.0021 74.3125 16.4324 74.3125 15.8387V15.653C74.3125 15.6207 74.3253 15.5897 74.3482 15.5669C74.371 15.5441 74.4019 15.5312 74.4342 15.5312H79.3158C79.3481 15.5312 79.379 15.5441 79.4018 15.5669C79.4247 15.5897 79.4375 15.6207 79.4375 15.653V15.8387Z" fill="#BC2131"/>
<path d="M61.1797 46.2031H20.8203C20.4805 46.2031 20.1546 46.3381 19.9143 46.5784C19.6741 46.8187 19.5391 47.1446 19.5391 47.4844C19.5391 47.8242 19.6741 48.1501 19.9143 48.3904C20.1546 48.6306 20.4805 48.7656 20.8203 48.7656H61.1797C61.5195 48.7656 61.8454 48.6306 62.0857 48.3904C62.326 48.1501 62.4609 47.8242 62.4609 47.4844C62.4609 47.1446 62.326 46.8187 62.0857 46.5784C61.8454 46.3381 61.5195 46.2031 61.1797 46.2031Z" fill="#BC2131"/>
</svg>
