<svg width="39" height="21" viewBox="0 0 39 21" fill="none" xmlns="http://www.w3.org/2000/svg">
<path fill-rule="evenodd" clip-rule="evenodd" d="M4.42884 21C2.88216 21 1.58899 19.8241 1.44235 18.2844L0.0137799 3.28443C-0.153956 1.52317 1.23105 -7.73352e-08 3.00027 0L35.4017 1.41631e-06C37.1709 1.49365e-06 38.5559 1.52318 38.3882 3.28443L36.9596 18.2844C36.813 19.8241 35.5198 21 33.9731 21H4.42884ZM28.7863 1H9.61557C9.67084 1.15639 9.70092 1.32468 9.70092 1.5C9.70092 2.32843 9.02934 3 8.20092 3C7.37249 3 6.70092 2.32843 6.70092 1.5C6.70092 1.32468 6.73099 1.15639 6.78627 1H3.00027C1.82079 1 0.897451 2.01545 1.00928 3.18962L2.43785 18.1896C2.53561 19.2161 3.39772 20 4.42884 20H6.78627C6.731 19.8436 6.70092 19.6753 6.70092 19.5C6.70092 18.6716 7.37249 18 8.20092 18C9.02934 18 9.70092 18.6716 9.70092 19.5C9.70092 19.6753 9.67084 19.8436 9.61556 20H28.7863C28.731 19.8436 28.7009 19.6753 28.7009 19.5C28.7009 18.6716 29.3725 18 30.2009 18C31.0293 18 31.7009 18.6716 31.7009 19.5C31.7009 19.6753 31.6708 19.8436 31.6156 20H33.9731C35.0042 20 35.8663 19.2161 35.9641 18.1896L37.3927 3.18962C37.5045 2.01545 36.5812 1 35.4017 1L31.6156 1C31.6708 1.15639 31.7009 1.32468 31.7009 1.5C31.7009 2.32843 31.0293 3 30.2009 3C29.3725 3 28.7009 2.32843 28.7009 1.5C28.7009 1.32468 28.731 1.15639 28.7863 1Z" fill="white"/>
</svg>
