<svg width="75" height="40" viewBox="0 0 75 40" fill="none" xmlns="http://www.w3.org/2000/svg">
<path d="M37.4999 0C16.7849 0 0 8.73528 0 19.5264C0 30.2998 16.7849 39.0529 37.4999 39.0529C58.1998 39.0529 74.9998 30.3176 74.9998 19.5264C74.9998 8.73528 58.1998 0 37.4999 0Z" fill="#58595B"/>
<path d="M37.5074 0C16.7883 0 0 8.73927 0 19.5354C0 30.3136 16.7883 39.0529 37.4924 39.0529C58.1965 39.0529 74.9998 30.3136 74.9998 19.5324C74.9998 8.73927 58.2115 0 37.5074 0Z" fill="#595A5C"/>
<path d="M37.4999 0C16.7917 0 0 8.74558 0 19.5279C0 30.3103 16.7917 39.0529 37.4999 39.0529C58.2081 39.0529 74.9998 30.3103 74.9998 19.525C74.9998 8.74558 58.2081 0 37.4999 0Z" fill="#5A5B5D"/>
<path d="M37.4999 0C16.7917 0 0 8.74558 0 19.5279C0 30.3103 16.7917 39.0529 37.4999 39.0529C58.2081 39.0529 74.9998 30.3103 74.9998 19.525C74.9998 8.74558 58.2081 0 37.4999 0Z" fill="#5B5C5E"/>
<path d="M37.4999 0C16.7917 0 0 8.74558 0 19.5279C0 30.3103 16.7917 39.0529 37.4999 39.0529C58.2081 39.0529 74.9998 30.3103 74.9998 19.525C74.9998 8.74558 58.2081 0 37.4999 0Z" fill="#5C5C5F"/>
<path d="M37.5074 0C16.795 0 0 8.74558 0 19.5279C0 30.3103 16.795 39.0529 37.4924 39.0529C58.2047 39.0529 74.9998 30.3103 74.9998 19.525C74.9998 8.73963 58.2197 0 37.5074 0Z" fill="#5C5D60"/>
<path d="M37.4999 0C16.7817 0 0 8.74892 0 19.5354C0 30.3218 16.7997 39.0529 37.4999 39.0529C58.2181 39.0529 74.9998 30.3069 74.9998 19.5354C74.9998 8.74892 58.2181 0 37.4999 0Z" fill="#5D5E60"/>
<path d="M37.4999 0C16.7817 0 0 8.73504 0 19.5264C0 30.3178 16.7817 39.0529 37.4999 39.0529C58.2181 39.0529 74.9998 30.3029 74.9998 19.5264C74.9998 8.73504 58.203 0 37.4999 0Z" fill="#5E5F61"/>
<path d="M37.4999 0C16.7967 0 0 8.73504 0 19.5264C0 30.3029 16.7817 39.0529 37.4999 39.0529C58.203 39.0529 74.9998 30.3178 74.9998 19.5264C74.9998 8.73504 58.203 0 37.4999 0Z" fill="#5F6062"/>
<path d="M37.4924 0C16.7851 0 0 8.74994 0 19.5264C0 30.3029 16.7851 39.0529 37.4924 39.0529C58.1997 39.0529 74.9998 30.3178 74.9998 19.5264C74.9998 8.74994 58.1997 0 37.4924 0Z" fill="#606163"/>
<path d="M37.4999 0C16.7884 0 0 8.74171 0 19.5264C0 30.3112 16.7884 39.0529 37.4999 39.0529C58.2113 39.0529 74.9998 30.3112 74.9998 19.5264C74.9998 8.74171 58.2113 0 37.4999 0Z" fill="#616264"/>
<path d="M37.4999 0C16.7884 0 0 8.74171 0 19.5264C0 30.3112 16.7884 39.0529 37.4999 39.0529C58.2113 39.0529 74.9998 30.3112 74.9998 19.5264C74.9998 8.74171 58.2113 0 37.4999 0Z" fill="#616265"/>
<path d="M37.4999 0C16.7884 0 0 8.74171 0 19.5264C0 30.3112 16.7884 39.0529 37.4999 39.0529C58.2113 39.0529 74.9998 30.3112 74.9998 19.5264C74.9998 8.74171 58.2113 0 37.4999 0Z" fill="#626366"/>
<path d="M37.4924 0C16.7768 0 0 8.74171 0 19.5264C0 30.3112 16.7948 39.0529 37.4924 39.0529C58.208 39.0529 74.9998 30.3112 74.9998 19.5264C74.9998 8.74171 58.208 0 37.4924 0Z" fill="#636467"/>
<path d="M37.4999 0C16.7982 0 0 8.74505 0 19.5339C0 30.3227 16.7952 39.0529 37.4999 39.0529C58.2196 39.0529 74.9998 30.3227 74.9998 19.5339C74.9998 8.74505 58.2196 0 37.4999 0Z" fill="#646567"/>
<path d="M37.4999 0C16.7982 0 0 8.73347 0 19.5264C0 30.3194 16.7952 39.0529 37.4999 39.0529C58.2046 39.0529 74.9998 30.3194 74.9998 19.5264C74.9998 8.73347 58.2016 0 37.4999 0Z" fill="#656668"/>
<path d="M37.4999 0C16.7982 0 0 8.75138 0 19.5264C0 30.3015 16.7952 39.0529 37.4999 39.0529C58.2046 39.0529 74.9998 30.3045 74.9998 19.5264C74.9998 8.74839 58.2016 0 37.4999 0Z" fill="#656769"/>
<path d="M37.4909 0C16.7842 0 0 8.75138 0 19.5264C0 30.3015 16.7842 39.0529 37.4909 39.0529C58.1976 39.0529 74.9998 30.3045 74.9998 19.5264C74.9998 8.74839 58.1976 0 37.4909 0Z" fill="#66686A"/>
<path d="M37.4909 0C16.7842 0 0 8.75138 0 19.5264C0 30.3015 16.7842 39.0529 37.4909 39.0529C58.1976 39.0529 74.9998 30.3045 74.9998 19.5264C74.9998 8.74839 58.1976 0 37.4909 0Z" fill="#67686B"/>
<path d="M37.4999 0C16.7882 0 0 8.74149 0 19.5264C0 30.3114 16.7882 39.0529 37.4999 39.0529C58.2116 39.0529 74.9998 30.3114 74.9998 19.5264C74.9998 8.74149 58.2116 0 37.4999 0Z" fill="#68696C"/>
<path d="M37.4848 0C16.7882 0 0 8.74149 0 19.5264C0 30.3114 16.7882 39.0529 37.4999 39.0529C58.2116 39.0529 74.9998 30.3114 74.9998 19.5264C74.9847 8.74149 58.1965 0 37.4848 0Z" fill="#696A6C"/>
<path d="M37.4924 0C16.7916 0 0 8.74149 0 19.5264C0 30.3114 16.7916 39.0529 37.4924 39.0529C58.2082 39.0529 74.9998 30.3114 74.9998 19.5264C74.9998 8.74149 58.2082 0 37.4924 0Z" fill="#696B6D"/>
<path d="M37.4999 0C16.7949 0 0 8.74483 0 19.5339C0 30.323 16.7949 39.0529 37.4999 39.0529C58.2048 39.0529 74.9998 30.308 74.9998 19.5339C75.0148 8.74483 58.2199 0 37.4999 0Z" fill="#6A6C6E"/>
<path d="M37.4999 0C16.7949 0 0 8.74818 0 19.5264C0 30.3047 16.7949 39.0529 37.4999 39.0529C58.2048 39.0529 74.9998 30.3047 74.9998 19.5264C74.9998 8.74818 58.2199 0 37.4999 0Z" fill="#6B6C6F"/>
<path d="M37.4848 0C16.7799 0 0 8.74818 0 19.5264C0 30.3047 16.7949 39.0529 37.4999 39.0529C58.2048 39.0529 74.9998 30.3047 74.9998 19.5264C74.9847 8.74818 58.1898 0 37.4848 0Z" fill="#6C6D70"/>
<path d="M37.4924 0C16.7833 0 0 8.74818 0 19.5264C0 30.3047 16.7833 39.0529 37.4924 39.0529C58.2015 39.0529 74.9998 30.3047 74.9998 19.5264C74.9998 8.74818 58.2015 0 37.4924 0Z" fill="#6D6E70"/>
<path d="M37.4999 0C16.7866 0 0 8.73323 0 19.5264C0 30.3047 16.7866 39.0529 37.4999 39.0529C58.2131 39.0529 74.9998 30.3047 74.9998 19.5264C75.0148 8.74818 58.2131 0 37.4999 0Z" fill="#6D6F71"/>
<path d="M37.4999 0C16.7866 0 0 8.74059 0 19.5279C0 30.3153 16.7866 39.0529 37.4999 39.0529C58.2131 39.0529 74.9998 30.3153 74.9998 19.5279C74.9998 8.74059 58.2131 0 37.4999 0Z" fill="#6E7072"/>
<path d="M37.4999 0C16.7866 0 0 8.74059 0 19.5279C0 30.3153 16.7866 39.0529 37.4999 39.0529C58.2131 39.0529 74.9998 30.3153 74.9998 19.5279C74.9998 8.74059 58.2131 0 37.4999 0Z" fill="#6F7073"/>
<path d="M37.4908 0C16.7907 0 0 8.74059 0 19.5279C0 30.3153 16.7907 39.0529 37.4908 39.0529C58.191 39.0529 74.9998 30.3153 74.9998 19.5279C74.9998 8.74059 58.2091 0 37.4908 0Z" fill="#707174"/>
<path d="M37.4999 0C16.7947 0 0 8.75555 0 19.5279C0 30.3003 16.7947 39.0529 37.4999 39.0529C58.205 39.0529 74.9997 30.3153 74.9997 19.5279C75.0178 8.75555 58.2231 0 37.4999 0Z" fill="#707274"/>
<path d="M37.4999 0C16.7797 0 0 8.74497 0 19.5264C0 30.3079 16.7947 39.0529 37.4999 39.0529C58.205 39.0529 74.9998 30.3079 74.9998 19.5264C74.9998 8.74497 58.2081 0 37.4999 0Z" fill="#717375"/>
<path d="M37.4999 0C16.7947 0 0 8.74497 0 19.5264C0 30.3079 16.7947 39.0529 37.4999 39.0529C58.205 39.0529 74.9998 30.3079 74.9998 19.5264C74.9847 8.74497 58.2081 0 37.4999 0Z" fill="#727476"/>
<path d="M37.5074 0C16.7981 0 0 8.74497 0 19.5264C0 30.3079 16.78 39.0529 37.4924 39.0529C58.2047 39.0529 74.9998 30.3079 74.9998 19.5264C74.9998 8.74497 58.2017 0 37.5074 0Z" fill="#737477"/>
<path d="M37.5149 0C16.8015 0 0 8.74497 0 19.5264C0 30.3079 16.7834 39.0529 37.4999 39.0529C58.2164 39.0529 74.9997 30.3079 74.9997 19.5264C75.0148 8.74497 58.2133 0 37.5149 0Z" fill="#747578"/>
<path d="M37.6518 0C17.0222 0 0.303711 8.73334 0.303711 19.5189C0.303711 30.3046 17.0192 39.0529 37.6518 39.0529C58.2844 39.0529 74.9998 30.3046 74.9998 19.5339C74.9998 8.73334 58.2664 0 37.6518 0Z" fill="#747678"/>
<path d="M37.6518 0C17.0222 0 0.303711 8.7367 0.303711 19.5264C0.303711 30.3162 17.0192 39.0529 37.6518 39.0529C58.2664 39.0529 74.9998 30.3162 74.9998 19.5264C74.9848 8.7367 58.2664 0 37.6518 0Z" fill="#757779"/>
<path d="M37.6518 0C17.0222 0 0.303711 8.75468 0.303711 19.5264C0.303711 30.3162 17.0192 39.0529 37.6518 39.0529C58.2664 39.0529 74.9998 30.3162 74.9998 19.5264C74.9848 8.75468 58.2664 0 37.6518 0Z" fill="#76777A"/>
<path d="M37.6488 0C17.0259 0 0.303711 8.75468 0.303711 19.5264C0.303711 30.2982 17.0259 39.0529 37.6518 39.0529C58.2777 39.0529 74.9998 30.3162 74.9998 19.5264C74.9968 8.75468 58.2717 0 37.6488 0Z" fill="#77787B"/>
<path d="M37.6488 0C17.0259 0 0.303711 8.74708 0.303711 19.5279C0.303711 30.3088 17.0259 39.0529 37.6518 39.0529C58.2777 39.0529 74.9998 30.3088 74.9998 19.5279C74.9998 8.74708 58.2717 0 37.6488 0Z" fill="#77797B"/>
<path d="M37.6488 0C17.0259 0 0.303711 8.74708 0.303711 19.5279C0.303711 30.3088 17.0259 39.0529 37.6518 39.0529C58.2777 39.0529 74.9998 30.3088 74.9998 19.5279C74.9998 8.74708 58.2717 0 37.6488 0Z" fill="#787A7C"/>
<path d="M37.5059 0C16.9619 0 0.303711 8.74708 0.303711 19.5279C0.303711 30.3088 16.9619 39.0529 37.491 39.0529C58.035 39.0529 74.6962 30.3088 74.6962 19.5279C74.6962 8.74708 58.0499 0 37.5059 0Z" fill="#797A7D"/>
<path d="M37.4999 0C16.951 0 0.303711 8.74708 0.303711 19.5279C0.303711 30.3088 16.951 39.0529 37.4999 39.0529C58.0489 39.0529 74.6962 30.3088 74.6962 19.5279C74.6962 8.74708 58.034 0 37.4999 0Z" fill="#7A7B7E"/>
<path d="M37.4999 0C16.951 0 0.303711 8.73646 0.303711 19.5264C0.303711 30.3164 16.951 39.0529 37.4999 39.0529C58.034 39.0529 74.6962 30.3014 74.6962 19.5264C74.6992 8.73646 58.034 0 37.4999 0Z" fill="#7A7C7F"/>
<path d="M37.4999 0C16.9689 0 0.303711 8.73646 0.303711 19.5264C0.303711 30.3164 16.951 39.0529 37.4999 39.0529C58.034 39.0529 74.6962 30.3014 74.6962 19.5264C74.6992 8.73646 58.034 0 37.4999 0Z" fill="#7B7D7F"/>
<path d="M37.497 0C16.9577 0 0.303711 8.75147 0.303711 19.5264C0.303711 30.3164 16.9577 39.0529 37.4999 39.0529C58.0422 39.0529 74.6962 30.3164 74.6962 19.5264C74.6932 8.75147 58.0392 0 37.497 0Z" fill="#7C7D80"/>
<path d="M37.497 0C16.9577 0 0.303711 8.75147 0.303711 19.5264C0.303711 30.3014 16.9577 39.0529 37.4999 39.0529C58.0422 39.0529 74.6962 30.3164 74.6962 19.5264C74.6932 8.75147 58.0392 0 37.497 0Z" fill="#7C7E81"/>
<path d="M37.497 0C16.9577 0 0.303711 8.73982 0.303711 19.5189C0.303711 30.298 16.9577 39.0529 37.4999 39.0529C58.0422 39.0529 74.6962 30.3131 74.6962 19.5189C74.6932 8.73982 58.0392 0 37.497 0Z" fill="#7D7F82"/>
<path d="M37.497 0C16.9577 0 0.303711 8.74318 0.303711 19.5264C0.303711 30.3097 16.9577 39.0529 37.4999 39.0529C58.0422 39.0529 74.6962 30.3097 74.6962 19.5264C74.6962 8.74318 58.0392 0 37.497 0Z" fill="#7E8082"/>
<path d="M37.491 0C16.9437 0 0.303711 8.74318 0.303711 19.5264C0.303711 30.3097 16.9617 39.0529 37.491 39.0529C58.0382 39.0529 74.6962 30.3097 74.6962 19.5264C74.6812 8.74318 58.0382 0 37.491 0Z" fill="#7F8083"/>
<path d="M37.4999 0C16.9657 0 0.303711 8.74318 0.303711 19.5264C0.303711 30.3097 16.9657 39.0529 37.4999 39.0529C58.0521 39.0529 74.6962 30.3097 74.6962 19.5264C74.6962 8.74318 58.0372 0 37.4999 0Z" fill="#7F8184"/>
<path d="M37.4999 0.300385C16.9657 0.300385 0.303711 8.96242 0.303711 19.6677C0.303711 30.3729 16.9507 39.0529 37.4999 39.0529C58.0342 39.0529 74.6962 30.3729 74.6962 19.6677C74.6962 8.96242 58.0372 0.300385 37.4999 0.300385Z" fill="#808285"/>
<path d="M37.485 0.300385C16.9507 0.300385 0.303711 8.91405 0.303711 19.5264C0.303711 30.1536 16.9507 38.7525 37.4999 38.7525C58.0342 38.7525 74.6962 30.1358 74.6962 19.5264C74.6842 8.91405 58.0222 0.300385 37.485 0.300385Z" fill="#818385"/>
<path d="M37.4999 0.300385C16.9574 0.300385 0.303711 8.91405 0.303711 19.5264C0.303711 30.1388 16.9574 38.7525 37.4999 38.7525C58.0424 38.7525 74.6962 30.1388 74.6962 19.5264C74.7141 8.91405 58.0454 0.300385 37.4999 0.300385Z" fill="#828386"/>
<path d="M37.4999 0.300385C16.9574 0.300385 0.303711 8.91405 0.303711 19.5264C0.303711 30.1388 16.9574 38.7525 37.4999 38.7525C58.0424 38.7525 74.6962 30.1388 74.6962 19.5264C74.6962 8.91405 58.0454 0.300385 37.4999 0.300385Z" fill="#828487"/>
<path d="M37.4999 0.300385C16.9574 0.300385 0.303711 8.90256 0.303711 19.519C0.303711 30.1355 16.9574 38.7525 37.4999 38.7525C58.0424 38.7525 74.6962 30.1503 74.6962 19.519C74.6962 8.90256 58.0454 0.300385 37.4999 0.300385Z" fill="#838588"/>
<path d="M37.4895 0.300385C16.9578 0.300385 0.303711 8.90587 0.303711 19.5264C0.303711 30.147 16.9608 38.7525 37.4925 38.7525C58.0391 38.7525 74.6962 30.147 74.6962 19.5264C74.6962 8.90587 58.0391 0.300385 37.4895 0.300385Z" fill="#848688"/>
<path d="M37.4969 0.300385C16.9612 0.300385 0.303711 8.90587 0.303711 19.5264C0.303711 30.147 16.9641 38.7525 37.4999 38.7525C58.0507 38.7525 74.6962 30.147 74.6962 19.5264C74.7082 8.90587 58.0507 0.300385 37.4969 0.300385Z" fill="#858689"/>
<path d="M37.497 0.300385C16.9612 0.300385 0.303711 8.90587 0.303711 19.5264C0.303711 30.147 16.9641 38.7525 37.4999 38.7525C58.0507 38.7525 74.6962 30.147 74.6962 19.5264C74.6962 8.90587 58.0507 0.300385 37.497 0.300385Z" fill="#85878A"/>
<path d="M37.497 0.300385C16.9612 0.300385 0.303711 8.91215 0.303711 19.519C0.303711 30.1436 16.9641 38.7525 37.4999 38.7525C58.0357 38.7525 74.6962 30.1436 74.6962 19.519C74.6932 8.91215 58.0327 0.300385 37.497 0.300385Z" fill="#86888B"/>
<path d="M37.491 0.300385C16.9502 0.300385 0.303711 8.91547 0.303711 19.5264C0.303711 30.1551 16.9502 38.7524 37.491 38.7524C58.0317 38.7673 74.6962 30.1551 74.6962 19.5264C74.6962 8.91547 58.0317 0.300385 37.491 0.300385Z" fill="#87898B"/>
<path d="M37.491 0.300385C16.9502 0.300385 0.303711 8.91215 0.303711 19.519C0.303711 30.1436 16.9502 38.7525 37.491 38.7525C58.0317 38.7525 74.6962 30.1436 74.6962 19.519C74.6962 8.91215 58.0317 0.300385 37.491 0.300385Z" fill="#88898C"/>
<path d="M37.4985 0.300385C16.9536 0.300385 0.303711 8.91215 0.303711 19.5338C0.303711 30.1407 16.9536 38.7525 37.4985 38.7525C58.0433 38.7525 74.6962 30.1436 74.6962 19.5338C74.6962 8.91215 58.0433 0.300385 37.4985 0.300385Z" fill="#888A8D"/>
<path d="M37.485 0.300385C16.9572 0.300385 0.303711 8.89834 0.303711 19.5249C0.303711 30.1367 16.9542 38.7525 37.5 38.7525C58.0457 38.7525 74.6962 30.1397 74.6962 19.5249C74.6842 8.89834 58.0307 0.300385 37.485 0.300385Z" fill="#898B8E"/>
<path d="M37.4925 0.300385C16.9606 0.300385 0.303711 8.90233 0.303711 19.5338C0.303711 30.1505 16.9576 38.7525 37.4925 38.7525C58.0423 38.7525 74.6962 30.1505 74.6962 19.5338C74.6992 8.90233 58.0423 0.300385 37.4925 0.300385Z" fill="#8A8C8E"/>
<path d="M37.4999 0.300385C16.9639 0.300385 0.303711 8.90565 0.303711 19.5264C0.303711 30.1472 16.9639 38.7525 37.4999 38.7525C58.036 38.7525 74.6962 30.1472 74.6962 19.5264C74.7141 8.90565 58.0539 0.300385 37.4999 0.300385Z" fill="#8A8C8F"/>
<path d="M37.4999 0.300385C16.9639 0.300385 0.303711 8.90565 0.303711 19.5264C0.303711 30.1472 16.9639 38.7525 37.4999 38.7525C58.036 38.7525 74.6962 30.1472 74.6962 19.5264C74.7141 8.92049 58.0539 0.300385 37.4999 0.300385Z" fill="#8B8D90"/>
<path d="M37.5 0.300385C16.9639 0.300385 0.303711 8.90565 0.303711 19.5264C0.303711 30.1472 16.9609 38.7525 37.5 38.7525C58.039 38.7525 74.6962 30.1472 74.6962 19.5264C74.6962 8.90565 58.054 0.300385 37.5 0.300385Z" fill="#8C8E91"/>
<path d="M37.4895 0.300385C16.9493 0.300385 0.303711 8.90897 0.303711 19.5338C0.303711 30.1439 16.9643 38.7525 37.4925 38.7525C58.0356 38.7525 74.6962 30.1439 74.6962 19.5338C74.6932 8.90897 58.0326 0.300385 37.4895 0.300385Z" fill="#8D8F91"/>
<path d="M37.4969 0.300385C16.9676 0.300385 0.303711 8.90897 0.303711 19.5338C0.303711 30.1439 16.9527 38.7525 37.4999 38.7525C58.0472 38.7525 74.6962 30.1439 74.6962 19.5338C74.7082 8.90897 58.0442 0.300385 37.4969 0.300385Z" fill="#8D8F92"/>
<path d="M37.482 0.300385C16.9527 0.300385 0.303711 8.90897 0.303711 19.5338C0.303711 30.1439 16.9527 38.7525 37.4999 38.7525C58.0472 38.7525 74.6962 30.1439 74.6962 19.5338C74.6932 8.90897 58.0292 0.300385 37.482 0.300385Z" fill="#8E9093"/>
<path d="M37.482 0.300385C16.9527 0.300385 0.303711 8.89744 0.303711 19.5264C0.303711 30.1405 16.9527 38.7525 37.4999 38.7525C58.0472 38.7525 74.6962 30.1405 74.6962 19.5264C74.6782 8.89744 58.0292 0.300385 37.482 0.300385Z" fill="#8F9194"/>
<path d="M37.5089 0.300385C16.9567 0.300385 0.303711 8.89744 0.303711 19.5264C0.303711 30.1405 16.9567 38.7525 37.491 38.7525C58.0252 38.7525 74.6962 30.1405 74.6962 19.5264C74.6962 8.89744 58.0432 0.300385 37.5089 0.300385Z" fill="#909294"/>
<path d="M37.5179 0.300385C16.9607 0.300385 0.303711 8.91562 0.303711 19.5338C0.303711 30.1521 16.9607 38.7525 37.4999 38.7525C58.0392 38.7525 74.6962 30.1521 74.6962 19.5338C74.7142 8.91562 58.0572 0.300385 37.5179 0.300385Z" fill="#909395"/>
<path d="M37.5029 0.300385C16.9457 0.300385 0.303711 8.91562 0.303711 19.5338C0.303711 30.1521 16.9607 38.7525 37.4999 38.7525C58.0392 38.7525 74.6962 30.1521 74.6962 19.5338C74.6962 8.91562 58.0422 0.300385 37.5029 0.300385Z" fill="#919396"/>
<path d="M37.5029 0.300385C16.9607 0.300385 0.303711 8.90178 0.303711 19.5249C0.303711 30.1481 16.9607 38.7525 37.4999 38.7525C58.0392 38.7525 74.6962 30.1481 74.6962 19.5249C74.6962 8.90178 58.0422 0.300385 37.5029 0.300385Z" fill="#929497"/>
<path d="M37.5104 0.300385C16.9641 0.300385 0.303711 8.90178 0.303711 19.5249C0.303711 30.1332 16.9641 38.7525 37.4924 38.7525C58.0358 38.7525 74.6962 30.1481 74.6962 19.5249C74.6962 8.90178 58.0388 0.300385 37.5104 0.300385Z" fill="#939597"/>
<path d="M37.5179 0.300385C16.9674 0.300385 0.303711 8.90577 0.303711 19.5339C0.303711 30.1471 16.9524 38.7525 37.4999 38.7525C58.0475 38.7525 74.6962 30.1441 74.6962 19.5339C74.7142 8.90577 58.0505 0.300385 37.5179 0.300385Z" fill="#939698"/>
<path d="M37.4999 0.300385C16.9494 0.300385 0.303711 8.90577 0.303711 19.5339C0.303711 30.1471 16.9524 38.7525 37.4999 38.7525C58.0475 38.7525 74.6962 30.1441 74.6962 19.5339C74.6962 8.90577 58.0325 0.300385 37.4999 0.300385Z" fill="#949699"/>
<path d="M37.4999 0.300385C16.9494 0.300385 0.303711 8.89422 0.303711 19.5264C0.303711 30.1437 16.9524 38.7525 37.4999 38.7525C58.0325 38.7525 74.6962 30.1408 74.6962 19.5264C74.6962 8.89422 58.0325 0.300385 37.4999 0.300385Z" fill="#95979A"/>
<path d="M37.509 0.300385C16.9535 0.300385 0.303711 8.91141 0.303711 19.5249C0.303711 30.1385 16.9535 38.7525 37.4909 38.7525C58.0284 38.7525 74.6962 30.1414 74.6962 19.5279C74.6962 8.91438 58.0464 0.300385 37.509 0.300385Z" fill="#96989A"/>
<path d="M37.4999 0.300385C16.9591 0.300385 0.303711 8.91541 0.303711 19.5339C0.303711 30.1523 16.9591 38.7525 37.4999 38.7525C58.0407 38.7525 74.6962 30.1374 74.6962 19.5339C74.6932 8.91541 58.0407 0.300385 37.4999 0.300385Z" fill="#97999B"/>
<path d="M37.4999 0.300385C16.9591 0.300385 0.303711 8.91541 0.303711 19.5339C0.303711 30.1523 16.9591 38.7525 37.4999 38.7525C58.0407 38.7525 74.6962 30.1374 74.6962 19.5339C74.6932 8.91541 58.0407 0.300385 37.4999 0.300385Z" fill="#97999C"/>
<path d="M37.4999 0.300385C16.9591 0.300385 0.303711 8.90385 0.303711 19.5264C0.303711 30.1341 16.9591 38.7525 37.4999 38.7525C58.0407 38.7525 74.6962 30.152 74.6962 19.5264C74.6962 8.90088 58.0407 0.300385 37.4999 0.300385Z" fill="#989A9D"/>
<path d="M37.509 0.300385C16.9632 0.300385 0.303711 8.90385 0.303711 19.5264C0.303711 30.1341 16.9632 38.7525 37.4909 38.7525C58.0367 38.7525 74.6962 30.152 74.6962 19.5264C74.6962 8.90088 58.0547 0.300385 37.509 0.300385Z" fill="#999B9E"/>
<path d="M37.503 0.300385C16.9522 0.300385 0.303711 8.90719 0.303711 19.5339C0.303711 30.1456 16.9672 38.7525 37.4999 38.7525C58.0507 38.7525 74.6962 30.1486 74.6962 19.5339C74.6992 8.90719 58.0357 0.300385 37.503 0.300385Z" fill="#9A9C9E"/>
<path d="M37.503 0.300385C16.9522 0.300385 0.303711 8.90719 0.303711 19.5339C0.303711 30.1456 16.9492 38.7525 37.4999 38.7525C58.0357 38.7525 74.6962 30.1486 74.6962 19.5339C74.6992 8.90719 58.0357 0.300385 37.503 0.300385Z" fill="#9A9C9F"/>
<path d="M37.503 0.300385C16.9672 0.300385 0.303711 8.90821 0.303711 19.5249C0.303711 30.1416 16.9492 38.7525 37.4999 38.7525C58.0357 38.7525 74.6962 30.1446 74.6962 19.5249C74.6962 8.90523 58.0357 0.300385 37.503 0.300385Z" fill="#9B9DA0"/>
<path d="M37.4924 0.300385C16.9526 0.300385 0.303711 8.90821 0.303711 19.5249C0.303711 30.1416 16.9526 38.7525 37.4924 38.7525C58.0323 38.7525 74.6962 30.1446 74.6962 19.5249C74.6962 8.90523 58.0293 0.300385 37.4924 0.300385Z" fill="#9C9EA1"/>
<path d="M37.4999 0.300385C16.9559 0.300385 0.303711 8.91222 0.303711 19.5339C0.303711 30.1555 16.9559 38.7525 37.4999 38.7525C58.044 38.7525 74.6962 30.1406 74.6962 19.5339C74.6962 8.91222 58.041 0.300385 37.4999 0.300385Z" fill="#9D9FA1"/>
<path d="M37.4999 0.300385C16.9559 0.300385 0.303711 8.91222 0.303711 19.5339C0.303711 30.1555 16.9559 38.7525 37.4999 38.7525C58.044 38.7525 74.6962 30.1406 74.6962 19.5339C74.6962 8.91222 58.041 0.300385 37.4999 0.300385Z" fill="#9DA0A2"/>
<path d="M37.4999 0.300385C16.9559 0.300385 0.303711 8.90064 0.303711 19.5264C0.303711 30.1373 16.9559 38.7525 37.4999 38.7525C58.044 38.7525 74.6962 30.1373 74.6962 19.5264C74.6962 8.90064 58.041 0.300385 37.4999 0.300385Z" fill="#9EA0A3"/>
<path d="M37.4924 0.300385C16.9442 0.300385 0.303711 8.90064 0.303711 19.5264C0.303711 30.1373 16.9593 38.7525 37.4924 38.7525C58.0406 38.7525 74.6962 30.1522 74.6962 19.5264C74.6962 8.90064 58.0376 0.300385 37.4924 0.300385Z" fill="#9FA1A4"/>
<path d="M37.4999 0.300385C16.9626 0.300385 0.303711 8.90064 0.303711 19.5264C0.303711 30.1373 16.9626 38.7525 37.4999 38.7525C58.0523 38.7525 74.6962 30.1522 74.6962 19.5264C74.6962 8.90064 58.0493 0.300385 37.4999 0.300385Z" fill="#A0A2A4"/>
<path d="M37.4999 0.300385C16.9626 0.300385 0.303711 8.9189 0.303711 19.5339C0.303711 30.1489 16.9626 38.7525 37.4999 38.7525C58.0372 38.7525 74.6962 30.1489 74.6962 19.5339C74.6962 8.9189 58.0342 0.300385 37.4999 0.300385Z" fill="#A1A3A5"/>
<path d="M37.4999 0.300385C16.9657 0.300385 0.303711 8.90732 0.303711 19.5264C0.303711 30.1455 16.9476 38.7525 37.4999 38.7525C58.0342 38.7525 74.6962 30.1455 74.6962 19.5264C74.6962 8.90732 58.0342 0.300385 37.4999 0.300385Z" fill="#A1A3A6"/>
<path d="M37.4909 0.300385C16.9516 0.300385 0.303711 8.90732 0.303711 19.5264C0.303711 30.1455 16.9516 38.7525 37.4909 38.7525C58.0302 38.7525 74.6962 30.1455 74.6962 19.5264C74.6962 8.90732 58.0302 0.300385 37.4909 0.300385Z" fill="#A2A4A7"/>
<path d="M37.4999 0.300385C16.9557 0.300385 0.303711 8.90732 0.303711 19.5264C0.303711 30.1455 16.9557 38.7525 37.4999 38.7525C58.0442 38.7525 74.6962 30.1455 74.6962 19.5264C74.6962 8.90732 58.0442 0.300385 37.4999 0.300385Z" fill="#A3A5A8"/>
<path d="M37.4999 0.300385C16.9557 0.300385 0.303711 8.91066 0.303711 19.5339C0.303711 30.1571 16.9557 38.7525 37.4999 38.7525C58.0442 38.7525 74.6962 30.1422 74.6962 19.5339C74.6962 8.91066 58.0442 0.300385 37.4999 0.300385Z" fill="#A4A6A8"/>
<path d="M37.4849 0.300385C16.9557 0.300385 0.303711 8.89675 0.303711 19.5249C0.303711 30.1382 16.9557 38.7525 37.4999 38.7525C58.0442 38.7525 74.6962 30.1382 74.6962 19.5249C74.6811 8.89675 58.0292 0.300385 37.4849 0.300385Z" fill="#A4A7A9"/>
<path d="M37.4924 0.300385C16.9591 0.300385 0.303711 8.89675 0.303711 19.5249C0.303711 30.1382 16.9591 38.7525 37.4924 38.7525C58.0408 38.7525 74.6962 30.1382 74.6962 19.5249C74.6962 8.89675 58.0408 0.300385 37.4924 0.300385Z" fill="#A5A7AA"/>
<path d="M37.4999 0.300385C16.9624 0.300385 0.303711 8.91869 0.303711 19.5339C0.303711 30.1491 16.9624 38.7525 37.4999 38.7525C58.0375 38.7525 74.6962 30.1521 74.6962 19.5189C74.7112 8.91869 58.0525 0.300385 37.4999 0.300385Z" fill="#A6A8AB"/>
<path d="M37.4999 0.300385C16.9624 0.300385 0.303711 8.91869 0.303711 19.5339C0.303711 30.1491 16.9624 38.7525 37.4999 38.7525C58.0525 38.7525 74.6962 30.1491 74.6962 19.5339C74.6962 8.91869 58.0525 0.300385 37.4999 0.300385Z" fill="#A7A9AC"/>
<path d="M37.6444 0.300385C17.1865 0.300385 0.607422 8.90709 0.607422 19.5264C0.607422 30.1457 17.1865 38.7525 37.6444 38.7525C58.1022 38.7525 74.6963 30.1487 74.6963 19.5264C74.6963 8.9041 58.1022 0.300385 37.6444 0.300385Z" fill="#A8AAAC"/>
<path d="M37.6444 0.300385C17.1865 0.300385 0.607422 8.90709 0.607422 19.5264C0.607422 30.1457 17.1865 38.7525 37.6444 38.7525C58.1022 38.7525 74.6963 30.1487 74.6963 19.5264C74.6963 8.9041 58.1022 0.300385 37.6444 0.300385Z" fill="#A8ABAD"/>
<path d="M37.6533 0.300385C17.1905 0.300385 0.607422 8.90709 0.607422 19.5264C0.607422 30.1457 17.1905 38.7525 37.6533 38.7525C58.1161 38.7525 74.6963 30.1487 74.6963 19.5264C74.7142 8.90709 58.1161 0.300385 37.6533 0.300385Z" fill="#A9ABAE"/>
<path d="M37.6339 0.300385C17.1869 0.300385 0.607422 8.91044 0.607422 19.5339C0.607422 30.1424 17.1899 38.7525 37.6518 38.7525C58.1138 38.7525 74.6963 30.1424 74.6963 19.5339C74.6753 8.91044 58.0958 0.300385 37.6339 0.300385Z" fill="#AAACAF"/>
<path d="M37.6339 0.300385C17.1869 0.300385 0.607422 8.89583 0.607422 19.5264C0.607422 30.139 17.1899 38.7525 37.6518 38.7525C58.1138 38.7525 74.6963 30.139 74.6963 19.5264C74.6753 8.89883 58.0958 0.300385 37.6339 0.300385Z" fill="#ABADAF"/>
<path d="M37.6428 0.300385C17.1909 0.300385 0.607422 8.91379 0.607422 19.5264C0.607422 30.139 17.1939 38.7525 37.6428 38.7525C58.0918 38.7525 74.6963 30.139 74.6963 19.5264C74.6963 8.91379 58.1098 0.300385 37.6428 0.300385Z" fill="#ACAEB0"/>
<path d="M37.6518 0.300385C17.1949 0.300385 0.607422 8.91379 0.607422 19.5264C0.607422 30.139 17.1979 38.7525 37.6518 38.7525C58.1058 38.7525 74.6963 30.139 74.6963 19.5264C74.7113 8.91379 58.1237 0.300385 37.6518 0.300385Z" fill="#ACAFB1"/>
<path d="M37.6368 0.300385C17.1799 0.300385 0.607422 8.91782 0.607422 19.5354C0.607422 30.153 17.1979 38.7525 37.6518 38.7525C58.1058 38.7525 74.6963 30.135 74.6963 19.5354C74.6813 8.91782 58.1088 0.300385 37.6368 0.300385Z" fill="#ADAFB2"/>
<path d="M37.6518 0.300385C17.1949 0.300385 0.607422 8.90387 0.607422 19.5264C0.607422 30.149 17.1979 38.7525 37.6518 38.7525C58.1058 38.7525 74.6963 30.149 74.6963 19.5264C74.6813 8.90387 58.0908 0.300385 37.6518 0.300385Z" fill="#AEB0B3"/>
<path d="M37.6593 0.300385C17.1983 0.300385 0.607422 8.90387 0.607422 19.5264C0.607422 30.149 17.2013 38.7525 37.6443 38.7525C58.1054 38.7525 74.6963 30.149 74.6963 19.5264C74.6963 8.90387 58.1024 0.300385 37.6593 0.300385Z" fill="#AFB1B3"/>
<path d="M37.6518 0.300385C17.1866 0.300385 0.607422 8.90387 0.607422 19.5264C0.607422 30.149 17.1866 38.7525 37.6518 38.7525C58.1171 38.7525 74.6963 30.149 74.6963 19.5264C74.6963 8.90387 58.099 0.300385 37.6518 0.300385Z" fill="#B0B2B4"/>
<path d="M37.6518 0.300385C17.1866 0.300385 0.607422 8.90387 0.607422 19.5264C0.607422 30.134 17.1866 38.7525 37.6518 38.7525C58.1171 38.7525 74.6963 30.149 74.6963 19.5264C74.6963 8.90387 58.099 0.300385 37.6518 0.300385Z" fill="#B1B3B5"/>
<path d="M37.6518 0.300385C17.1866 0.300385 0.607422 8.91058 0.607422 19.5264C0.607422 30.1423 17.1866 38.7525 37.6518 38.7525C58.099 38.7525 74.6963 30.1423 74.6963 19.5264C74.6813 8.91058 58.099 0.300385 37.6518 0.300385Z" fill="#B1B3B6"/>
<path d="M37.6593 0.300385C17.19 0.300385 0.607422 8.91058 0.607422 19.5264C0.607422 30.1423 17.19 38.7525 37.6593 38.7525C58.1107 38.7525 74.6963 30.1423 74.6963 19.5264C74.6963 8.91058 58.1107 0.300385 37.6593 0.300385Z" fill="#B2B4B7"/>
<path d="M37.6518 0.300385C17.1964 0.300385 0.607422 8.91058 0.607422 19.5264C0.607422 30.1423 17.1934 38.7525 37.6518 38.7525C58.1103 38.7525 74.6963 30.1423 74.6963 19.5264C74.6963 8.91058 58.1073 0.300385 37.6518 0.300385Z" fill="#B3B5B7"/>
<path d="M37.6518 0.300385C17.1964 0.300385 0.607422 8.91058 0.607422 19.5264C0.607422 30.1423 17.1934 38.7525 37.6518 38.7525C58.1103 38.7525 74.6963 30.1423 74.6963 19.5264C74.6963 8.91058 58.1073 0.300385 37.6518 0.300385Z" fill="#B4B6B8"/>
<path d="M37.6518 0.300385C17.1964 0.300385 0.607422 8.90229 0.607422 19.5264C0.607422 30.1505 17.1934 38.7525 37.6518 38.7525C58.1103 38.7525 74.6963 30.1355 74.6963 19.5264C74.6783 8.90229 58.1073 0.300385 37.6518 0.300385Z" fill="#B5B7B9"/>
<path d="M37.6609 0.300385C17.2004 0.300385 0.607422 8.90229 0.607422 19.5264C0.607422 30.1505 17.1974 38.7525 37.6609 38.7525C58.1243 38.7525 74.6963 30.1505 74.6963 19.5264C74.6963 8.90229 58.1063 0.300385 37.6609 0.300385Z" fill="#B5B7BA"/>
<path d="M37.6518 0.300385C17.1864 0.300385 0.607422 8.90229 0.607422 19.5264C0.607422 30.1505 17.1864 38.7525 37.6518 38.7525C58.1173 38.7525 74.6963 30.1505 74.6963 19.5264C74.6963 8.90229 58.1023 0.300385 37.6518 0.300385Z" fill="#B6B8BB"/>
<path d="M37.6518 0.300385C17.1864 0.300385 0.607422 8.9203 0.607422 19.5264C0.607422 30.1325 17.1864 38.7525 37.6518 38.7525C58.1023 38.7525 74.6963 30.1505 74.6963 19.5264C74.6963 8.9203 58.1023 0.300385 37.6518 0.300385Z" fill="#B7B9BB"/>
<path d="M37.6518 0.300385C17.2014 0.300385 0.607422 8.91036 0.607422 19.5264C0.607422 30.1425 17.1864 38.7525 37.6518 38.7525C58.1023 38.7525 74.6963 30.1425 74.6963 19.5264C74.6963 8.91036 58.1023 0.300385 37.6518 0.300385Z" fill="#B8BABC"/>
<path d="M37.5 0.300385C17.1252 0.300385 0.607422 8.91036 0.607422 19.5264C0.607422 30.1425 17.1252 38.7525 37.5 38.7525C57.8749 38.7525 74.3926 30.1425 74.3926 19.5264C74.3926 8.91036 57.8749 0.300385 37.5 0.300385Z" fill="#B9BBBD"/>
<path d="M37.5 0.300385C17.1252 0.300385 0.607422 8.91036 0.607422 19.5264C0.607422 30.1425 17.1252 38.7525 37.5 38.7525C57.8749 38.7525 74.3926 30.1425 74.3926 19.5264C74.3926 8.91036 57.8749 0.300385 37.5 0.300385Z" fill="#BABBBE"/>
<path d="M37.5 0.300385C17.1252 0.300385 0.607422 8.91036 0.607422 19.5264C0.607422 30.1425 17.1252 38.7525 37.5 38.7525C57.8749 38.7525 74.3926 30.1425 74.3926 19.5264C74.3926 8.91036 57.8749 0.300385 37.5 0.300385Z" fill="#BABCBF"/>
<path d="M37.509 0.6008C17.1292 0.6008 0.607422 9.13527 0.607422 19.6766C0.607422 30.218 17.1292 38.7525 37.491 38.7525C57.8709 38.7525 74.3926 30.2031 74.3926 19.6766C74.4106 9.13527 57.8888 0.6008 37.509 0.6008Z" fill="#BBBDBF"/>
<path d="M37.5 0.6008C17.1152 0.6008 0.607422 9.13527 0.607422 19.6766C0.607422 30.218 17.1332 38.7525 37.5 38.7525C57.8848 38.7525 74.3926 30.2031 74.3926 19.6766C74.3956 9.13527 57.8848 0.6008 37.5 0.6008Z" fill="#BCBEC0"/>
<path d="M37.4985 0.6008C17.1295 0.6008 0.607422 9.15018 0.607422 19.6766C0.607422 30.2031 17.1325 38.7525 37.4985 38.7525C57.8645 38.7525 74.3926 30.2031 74.3926 19.6766C74.3926 9.15018 57.8675 0.6008 37.4985 0.6008Z" fill="#BDBFC1"/>
<path d="M37.5 0.6008C17.1302 0.6008 0.607422 9.15018 0.607422 19.6766C0.607422 30.2031 17.1182 38.7525 37.5 38.7525C57.8699 38.7525 74.3926 30.218 74.3926 19.6766C74.3956 9.15018 57.8699 0.6008 37.5 0.6008Z" fill="#BEC0C2"/>
<path d="M37.491 0.6008C17.1179 0.6008 0.607422 9.13963 0.607422 19.6751C0.607422 30.2106 17.1179 38.7525 37.491 38.7525C57.8642 38.7525 74.3926 30.2106 74.3926 19.6751C74.3926 9.13963 57.8642 0.6008 37.491 0.6008Z" fill="#BFC0C3"/>
<path d="M37.5 0.6008C17.1219 0.6008 0.607422 9.13963 0.607422 19.6751C0.607422 30.2106 17.1219 38.7525 37.5 38.7525C57.8781 38.7525 74.3926 30.2106 74.3926 19.6751C74.3926 9.13963 57.8781 0.6008 37.5 0.6008Z" fill="#BFC1C3"/>
<path d="M37.5 0.6008C17.1219 0.6008 0.607422 9.13963 0.607422 19.6751C0.607422 30.2106 17.1219 38.7525 37.5 38.7525C57.8781 38.7525 74.3926 30.2106 74.3926 19.6751C74.3926 9.13963 57.8781 0.6008 37.5 0.6008Z" fill="#C0C2C4"/>
<path d="M37.5 0.6008C17.1219 0.6008 0.607422 9.13963 0.607422 19.6751C0.607422 30.2106 17.1219 38.7525 37.5 38.7525C57.8781 38.7525 74.3926 30.2106 74.3926 19.6751C74.3926 9.13963 57.8781 0.6008 37.5 0.6008Z" fill="#C1C3C5"/>
<path d="M37.4925 0.6008C17.1283 0.6008 0.607422 9.12804 0.607422 19.6677C0.607422 30.2073 17.1283 38.7525 37.4925 38.7525C57.8748 38.7525 74.3926 30.2073 74.3926 19.6677C74.3926 9.12804 57.8748 0.6008 37.4925 0.6008Z" fill="#C2C4C6"/>
<path d="M37.5 0.6008C17.1316 0.6008 0.607422 9.07969 0.607422 19.5264C0.607422 29.9732 17.1316 38.452 37.5 38.452C57.8684 38.452 74.3926 29.9702 74.3926 19.5264C74.4076 9.07969 57.8864 0.6008 37.5 0.6008Z" fill="#C3C4C7"/>
<path d="M37.5 0.6008C17.1316 0.6008 0.607422 9.07969 0.607422 19.5264C0.607422 29.9732 17.1316 38.452 37.5 38.452C57.8684 38.452 74.3926 29.9702 74.3926 19.5264C74.3926 9.08266 57.8684 0.6008 37.5 0.6008Z" fill="#C4C5C7"/>
<path d="M37.5 0.6008C17.1316 0.6008 0.607422 9.07969 0.607422 19.5264C0.607422 29.9732 17.1316 38.452 37.5 38.452C57.8684 38.452 74.3926 29.9702 74.3926 19.5264C74.3926 9.08266 57.8684 0.6008 37.5 0.6008Z" fill="#C4C6C8"/>
<path d="M37.491 0.6008C17.1177 0.6008 0.607422 9.06819 0.607422 19.519C0.607422 29.9698 17.1177 38.452 37.491 38.452C57.8644 38.452 74.3926 29.9847 74.3926 19.519C74.3926 9.06819 57.8644 0.6008 37.491 0.6008Z" fill="#C5C7C9"/>
<path d="M37.5 0.6008C17.1217 0.6008 0.607422 9.07151 0.607422 19.5264C0.607422 29.9813 17.1217 38.452 37.5 38.452C57.8783 38.452 74.3926 29.9813 74.3926 19.5264C74.4106 9.07151 57.8783 0.6008 37.5 0.6008Z" fill="#C6C8CA"/>
<path d="M37.5 0.6008C17.1367 0.6008 0.607422 9.07151 0.607422 19.5264C0.607422 29.9813 17.1217 38.452 37.5 38.452C57.8783 38.452 74.3926 29.9813 74.3926 19.5264C74.3926 9.07151 57.8783 0.6008 37.5 0.6008Z" fill="#C7C9CB"/>
<path d="M37.4925 0.6008C17.1251 0.6008 0.607422 9.07151 0.607422 19.5264C0.607422 29.9813 17.1251 38.452 37.4925 38.452C57.875 38.452 74.3926 29.9813 74.3926 19.5264C74.3926 9.07151 57.875 0.6008 37.4925 0.6008Z" fill="#C8C9CB"/>
<path d="M37.4925 0.6008C17.1251 0.6008 0.607422 9.05769 0.607422 19.5175C0.607422 29.9774 17.1251 38.452 37.4925 38.452C57.86 38.452 74.3926 29.9774 74.3926 19.5175C74.3926 9.05769 57.875 0.6008 37.4925 0.6008Z" fill="#C9CACC"/>
<path d="M37.5 0.6008C17.1284 0.6008 0.607422 9.07881 0.607422 19.5249C0.607422 29.9711 17.1284 38.452 37.5 38.452C57.8716 38.452 74.3926 29.974 74.3926 19.5249C74.4076 9.07881 57.8866 0.6008 37.5 0.6008Z" fill="#C9CBCD"/>
<path d="M37.5 0.6008C17.1284 0.6008 0.607422 9.07881 0.607422 19.5249C0.607422 29.9889 17.1284 38.452 37.5 38.452C57.8716 38.452 74.3926 29.974 74.3926 19.5249C74.4076 9.07881 57.8866 0.6008 37.5 0.6008Z" fill="#CACCCE"/>
<path d="M37.4925 0.6008C17.1168 0.6008 0.607422 9.07881 0.607422 19.5249C0.607422 29.9711 17.1168 38.452 37.4925 38.452C57.8683 38.452 74.3926 29.974 74.3926 19.5249C74.3926 9.07585 57.8683 0.6008 37.4925 0.6008Z" fill="#CBCDCE"/>
<path d="M37.4925 0.6008C17.1318 0.6008 0.607422 9.06729 0.607422 19.5175C0.607422 29.9677 17.1318 38.452 37.4925 38.452C57.8683 38.452 74.3926 29.9707 74.3926 19.5175C74.3926 9.06432 57.8683 0.6008 37.4925 0.6008Z" fill="#CCCDCF"/>
<path d="M37.4925 0.6008C17.1318 0.6008 0.607422 9.06729 0.607422 19.5175C0.607422 29.9677 17.1318 38.452 37.4925 38.452C57.8683 38.452 74.3926 29.9707 74.3926 19.5175C74.3926 9.06432 57.8683 0.6008 37.4925 0.6008Z" fill="#CDCED0"/>
<path d="M37.482 0.6008C17.1171 0.6008 0.607422 9.07128 0.607422 19.5264C0.607422 29.9816 17.1201 38.452 37.5 38.452C57.8799 38.452 74.3926 29.9816 74.3926 19.5264C74.3926 9.07128 57.8619 0.6008 37.482 0.6008Z" fill="#CECFD1"/>
<path d="M37.482 0.6008C17.1171 0.6008 0.607422 9.07128 0.607422 19.5264C0.607422 29.9816 17.1201 38.452 37.5 38.452C57.8799 38.452 74.3926 29.9816 74.3926 19.5264C74.3746 9.07128 57.8619 0.6008 37.482 0.6008Z" fill="#CED0D2"/>
<path d="M37.506 0.6008C17.1212 0.6008 0.607422 9.0746 0.607422 19.519C0.607422 29.9782 17.1242 38.452 37.491 38.452C57.8579 38.452 74.3926 29.9782 74.3926 19.519C74.3926 9.0746 57.8759 0.6008 37.506 0.6008Z" fill="#CFD1D2"/>
<path d="M37.515 0.6008C17.1252 0.6008 0.607422 9.07793 0.607422 19.5264C0.607422 29.9749 17.1282 38.452 37.5 38.452C57.8718 38.452 74.3926 29.9749 74.3926 19.5264C74.4106 9.07793 57.8899 0.6008 37.515 0.6008Z" fill="#D0D1D3"/>
<path d="M37.5 0.6008C17.1282 0.6008 0.607422 9.07793 0.607422 19.5264C0.607422 29.9749 17.1282 38.452 37.5 38.452C57.8719 38.452 74.3926 29.9749 74.3926 19.5264C74.3926 9.07793 57.8749 0.6008 37.5 0.6008Z" fill="#D1D2D4"/>
<path d="M37.5 0.6008C17.1282 0.6008 0.607422 9.07793 0.607422 19.5264C0.607422 29.9749 17.1282 38.452 37.5 38.452C57.8719 38.452 74.3926 29.9749 74.3926 19.5264C74.3776 9.07793 57.8749 0.6008 37.5 0.6008Z" fill="#D2D3D5"/>
<path d="M37.5075 0.6008C17.1316 0.6008 0.607422 9.06408 0.607422 19.5175C0.607422 29.9709 17.1316 38.452 37.4925 38.452C57.8715 38.452 74.3926 29.9709 74.3926 19.5175C74.3926 9.06408 57.8715 0.6008 37.5075 0.6008Z" fill="#D2D4D6"/>
<path d="M37.5 0.6008C17.1169 0.6008 0.607422 9.06972 0.607422 19.5264C0.607422 29.9831 17.1349 38.452 37.5 38.452C57.8831 38.452 74.3926 29.9683 74.3926 19.5264C74.3926 9.06674 57.8681 0.6008 37.5 0.6008Z" fill="#D3D5D6"/>
<path d="M37.5 0.6008C17.1169 0.6008 0.607422 9.06972 0.607422 19.5264C0.607422 29.9831 17.1199 38.452 37.5 38.452C57.8801 38.452 74.3926 29.9683 74.3926 19.5264C74.3926 9.06674 57.8681 0.6008 37.5 0.6008Z" fill="#D4D6D7"/>
<path d="M37.5 0.6008C17.1169 0.6008 0.607422 9.0846 0.607422 19.5264C0.607422 29.9831 17.1199 38.452 37.5 38.452C57.8651 38.452 74.3926 29.9831 74.3926 19.5264C74.3926 9.08162 57.8681 0.6008 37.5 0.6008Z" fill="#D5D6D8"/>
<path d="M37.5075 0.6008C17.1383 0.6008 0.607422 9.07074 0.607422 19.5175C0.607422 29.9642 17.1233 38.452 37.4925 38.452C57.8618 38.452 74.3926 29.9791 74.3926 19.5175C74.3926 9.07074 57.8798 0.6008 37.5075 0.6008Z" fill="#D6D7D9"/>
<path d="M37.497 0.6008C17.1236 0.6008 0.607422 9.07074 0.607422 19.5175C0.607422 29.9642 17.1266 38.452 37.5 38.452C57.8734 38.452 74.3926 29.9791 74.3926 19.5175C74.3896 9.07074 57.8734 0.6008 37.497 0.6008Z" fill="#D7D8D9"/>
<path d="M37.497 0.6008C17.1236 0.6008 0.607422 9.07474 0.607422 19.5264C0.607422 29.9781 17.1266 38.452 37.5 38.452C57.8734 38.452 74.3926 29.9751 74.3926 19.5264C74.3926 9.07772 57.8734 0.6008 37.497 0.6008Z" fill="#D7D9DA"/>
<path d="M37.497 0.6008C17.1236 0.6008 0.607422 9.07474 0.607422 19.5264C0.607422 29.9781 17.1266 38.452 37.5 38.452C57.8734 38.452 74.3926 29.9751 74.3926 19.5264C74.3926 9.07772 57.8734 0.6008 37.497 0.6008Z" fill="#D8DADB"/>
<path d="M37.509 0.6008C17.1307 0.6008 0.607422 9.06317 0.607422 19.519C0.607422 29.9748 17.1307 38.452 37.491 38.452C57.8694 38.452 74.3926 29.9718 74.3926 19.519C74.3926 9.06615 57.8904 0.6008 37.509 0.6008Z" fill="#D9DADC"/>
<path d="M37.5 0.6008C17.1167 0.6008 0.607422 9.06317 0.607422 19.519C0.607422 29.9748 17.1347 38.452 37.5 38.452C57.8834 38.452 74.3926 29.9718 74.3926 19.519C74.3926 9.06615 57.8684 0.6008 37.5 0.6008Z" fill="#DADBDD"/>
<path d="M37.5 0.6008C17.1347 0.6008 0.607422 9.08439 0.607422 19.5264C0.607422 29.9863 17.1347 38.452 37.5 38.452C57.8653 38.452 74.3926 29.9685 74.3926 19.5264C74.3926 9.08439 57.8684 0.6008 37.5 0.6008Z" fill="#DBDCDD"/>
<path d="M37.5 0.6008C17.1347 0.6008 0.607422 9.08439 0.607422 19.5264C0.607422 29.9863 17.1167 38.452 37.5 38.452C57.8684 38.452 74.3926 29.9685 74.3926 19.5264C74.3926 9.08439 57.8684 0.6008 37.5 0.6008Z" fill="#DCDDDE"/>
<path d="M37.4925 0.6008C17.12 0.6008 0.607422 9.06984 0.607422 19.519C0.607422 29.9681 17.12 38.452 37.4925 38.452C57.865 38.452 74.3926 29.983 74.3926 19.519C74.3776 9.06984 57.865 0.6008 37.4925 0.6008Z" fill="#DCDEDF"/>
<path d="M37.5 0.6008C17.1234 0.6008 0.607422 9.06984 0.607422 19.519C0.607422 29.9681 17.1234 38.452 37.5 38.452C57.8767 38.452 74.3926 29.983 74.3926 19.519C74.3926 9.06984 57.8767 0.6008 37.5 0.6008Z" fill="#DDDEE0"/>
<path d="M37.5 0.6008C17.1234 0.6008 0.607422 9.07318 0.607422 19.5264C0.607422 29.9797 17.1234 38.452 37.5 38.452C57.8767 38.452 74.3926 29.9797 74.3926 19.5264C74.3926 9.07318 57.8767 0.6008 37.5 0.6008Z" fill="#DEDFE0"/>
<path d="M37.5 0.6008C17.1234 0.6008 0.607422 9.07318 0.607422 19.5264C0.607422 29.9797 17.1234 38.452 37.5 38.452C57.8767 38.452 74.3926 29.9797 74.3926 19.5264C74.3926 9.07318 57.8767 0.6008 37.5 0.6008Z" fill="#DFE0E1"/>
<path d="M37.6414 0.6008C17.3625 0.6008 0.911133 9.06226 0.911133 19.5175C0.911133 29.9727 17.3625 38.452 37.6444 38.452C57.9413 38.452 74.3927 29.9757 74.3927 19.5175C74.3927 9.05928 57.9383 0.6008 37.6414 0.6008Z" fill="#E0E1E2"/>
<path d="M37.6489 0.6008C17.3659 0.6008 0.911133 9.07719 0.911133 19.5175C0.911133 29.9727 17.3659 38.452 37.6519 38.452C57.938 38.452 74.3927 29.9757 74.3927 19.5175C74.3897 9.07719 57.935 0.6008 37.6489 0.6008Z" fill="#E0E2E3"/>
<path d="M37.6489 0.6008C17.3659 0.6008 0.911133 9.0812 0.911133 19.5264C0.911133 29.9866 17.3659 38.452 37.6519 38.452C57.938 38.452 74.3927 29.9716 74.3927 19.5264C74.3927 9.0812 57.935 0.6008 37.6489 0.6008Z" fill="#E1E2E3"/>
<path d="M37.6339 0.6008C17.3509 0.6008 0.911133 9.07719 0.911133 19.5354C0.911133 29.9757 17.3509 38.452 37.6519 38.452C57.938 38.452 74.3927 29.9757 74.3927 19.5354C74.3747 9.07719 57.92 0.6008 37.6339 0.6008Z" fill="#E2E3E4"/>
<path d="M37.6429 0.6008C17.3549 0.6008 0.911133 9.0656 0.911133 19.5279C0.911133 29.9723 17.3549 38.452 37.6429 38.452C57.931 38.452 74.3927 29.9723 74.3927 19.5279C74.3927 9.0656 57.9339 0.6008 37.6429 0.6008Z" fill="#E3E4E5"/>
<path d="M37.6519 0.6008C17.3589 0.6008 0.911133 9.0656 0.911133 19.5279C0.911133 29.9723 17.3589 38.452 37.6519 38.452C57.9449 38.452 74.3927 29.9723 74.3927 19.5279C74.3957 9.0656 57.9479 0.6008 37.6519 0.6008Z" fill="#E4E5E6"/>
<path d="M37.6519 0.6008C17.3739 0.6008 0.911133 9.06894 0.911133 19.5354C0.911133 29.9839 17.3589 38.452 37.6519 38.452C57.9449 38.452 74.3927 29.9839 74.3927 19.5354C74.3957 9.06894 57.9479 0.6008 37.6519 0.6008Z" fill="#E5E6E7"/>
<path d="M37.6369 0.6008C17.3589 0.6008 0.911133 9.06894 0.911133 19.5354C0.911133 29.9839 17.3589 38.452 37.6519 38.452C57.9449 38.452 74.3927 29.9839 74.3927 19.5354C74.3807 9.06894 57.9329 0.6008 37.6369 0.6008Z" fill="#E5E6E7"/>
<path d="M37.6444 0.6008C17.3623 0.6008 0.911133 9.07296 0.911133 19.5264C0.911133 29.9799 17.3623 38.452 37.6444 38.452C57.9266 38.452 74.3927 29.9799 74.3927 19.5264C74.3927 9.07296 57.9445 0.6008 37.6444 0.6008Z" fill="#E6E7E8"/>
<path d="M37.4995 1.50211C17.6269 1.50211 1.51782 9.57193 1.51782 19.5265C1.51782 29.4811 17.6239 37.5509 37.4995 37.5509C57.3751 37.5509 73.4812 29.4811 73.4812 19.5265C73.4812 9.57193 57.3721 1.50211 37.4995 1.50211Z" fill="url(#paint0_linear)"/>
<path d="M37.5002 3.60492C18.8032 3.60492 3.64404 10.8021 3.64404 19.6767C3.64404 28.5513 18.8032 35.7484 37.5002 35.7484C56.1972 35.7484 71.3564 28.5513 71.3564 19.6767C71.3564 10.8021 56.1972 3.60492 37.5002 3.60492Z" stroke="#004E24" stroke-width="0.701478"/>
<path d="M37.4907 2.7037C18.293 2.7037 2.73267 10.2461 2.73267 19.5265C2.73267 28.8218 18.293 36.3493 37.4907 36.3493C56.6885 36.3493 72.2669 28.8069 72.2669 19.5265C72.2488 10.2461 56.6885 2.7037 37.4907 2.7037Z" stroke="#F5F0CC" stroke-width="1.32998"/>
<path d="M60.1479 11.2002H53.9795L53.228 13.4426H57.214L52.6693 15.0773L52.372 15.9807L59.3801 13.5986L60.1479 11.2002ZM21.4578 14.9538L20.6181 17.3359H14.6065C14.6065 17.3359 14.747 17.2839 14.9398 16.8842C15.1325 16.4845 17.9096 8.43778 17.9096 8.43778C17.9096 8.43778 18.2952 7.58632 17.8574 7.37833H21.3337C21.3337 7.37833 21.1409 7.32633 20.8109 8.17779C20.6181 8.66527 18.2952 15.1293 18.2952 15.1293H20.8109C20.8109 15.1293 21.3859 15.1813 21.4578 14.9538ZM31.3476 17.3359H34.177C34.177 17.3359 33.9842 17.0402 34.1084 16.7087C34.2652 16.257 35.7681 11.9964 35.7681 11.9964L36.4314 17.3327H38.9994L42.3548 7.84306C42.3548 7.84306 42.4953 7.39133 42.688 7.39133H39.9632C39.9632 7.39133 40.0318 7.72281 39.9469 7.96655C39.8423 8.22654 38.3035 12.5196 38.3035 12.5196L37.6925 7.39133H34.7553C34.7553 7.39133 34.9121 7.65132 34.8076 7.9113C34.7194 8.1388 31.6972 16.7769 31.6972 16.7769C31.6972 16.7769 31.524 17.3359 31.3476 17.3359ZM47.5137 7.39133H44.2988C44.2988 7.39133 44.5438 7.79106 44.2302 8.73027C43.9165 9.66948 41.453 16.5885 41.453 16.5885C41.453 16.5885 41.2603 17.2482 40.9989 17.3717H44.8771C44.8771 17.3717 49.5785 17.5634 51.0292 12.4189C51.0096 12.3994 52.8425 7.33933 47.5137 7.39133ZM47.8633 12.8349C47.0432 14.9213 45.818 15.061 45.1711 15.061H44.717L46.6054 9.53299H47.3405C47.3209 9.52974 49.2094 9.42574 47.8633 12.8349ZM10.3069 25.3663H16.4753L17.2268 23.1239H13.2278L17.7888 21.4893L18.0861 20.5858L11.0779 22.9842L10.3069 25.3663ZM27.8713 23.2799C29.0246 19.4223 25.1269 19.5263 25.1269 19.5263H21.1246C21.4219 19.8578 21.1932 20.5695 21.1932 20.5695C21.1932 20.5695 18.7101 27.9565 18.5206 28.5317C18.3278 29.1069 17.9783 29.4872 17.9783 29.4872H21.1409C21.0363 29.4872 21.0363 29.1557 21.0363 29.1557L22.1733 26.0261C22.1733 26.0261 23.588 28.912 23.6926 29.1037C23.7808 29.3117 23.7449 29.4677 23.7449 29.4677H27.1166C26.7833 29.4677 26.4534 28.8242 26.4534 28.8242L24.7773 25.6783C27.1035 25.7141 27.8713 23.2799 27.8713 23.2799ZM25.1105 22.9322C24.6727 23.9234 23.4671 23.7999 23.4671 23.7999H22.8562L23.5031 21.8012H24.1663C25.617 21.8045 25.1105 22.9322 25.1105 22.9322ZM62.7682 23.4034C64.0097 19.3541 60.0597 19.5621 60.0597 19.5621H56.0933C56.3906 19.8936 56.1619 20.6053 56.1619 20.6053C56.1619 20.6053 53.5743 28.028 53.3848 28.5837C53.1921 29.1589 52.8261 29.5229 52.8261 29.5229H56.1293C55.8842 29.5229 56.0607 28.9152 56.0607 28.9152L57.0735 26.0651C57.0735 26.0651 58.4359 28.951 58.5405 29.1427C58.645 29.3507 58.5927 29.5067 58.5927 29.5067H62.0886C61.7554 29.5067 61.4058 28.8632 61.4058 28.8632L59.7297 25.7173C62.069 25.7498 62.7682 23.4034 62.7682 23.4034ZM59.9715 22.9842C59.6056 23.9397 58.4163 23.8519 58.4163 23.8519H57.8053L58.4523 21.8695H59.3246C59.3279 21.8727 60.393 21.837 59.9715 22.9842ZM34.1443 19.2663C31.0503 19.2663 29.041 21.7005 28.5182 24.7261C28.0477 27.508 29.5507 29.7309 32.0468 29.7309C35.5427 29.7309 37.6206 26.1691 37.6206 23.6114C37.6206 20.9335 36.5555 19.2663 34.1443 19.2663ZM34.5985 24.8106C34.0921 26.897 33.1315 27.5405 32.2755 27.3845C31.0862 27.157 31.2953 25.2461 31.4881 24.3589C31.9063 22.4285 32.9387 21.5088 33.7065 21.5965C33.9516 21.629 35.3499 21.6647 34.5985 24.8106ZM38.444 19.5621C38.444 19.5621 38.689 19.7018 38.689 20.3258V28.9477C38.689 28.9477 38.6531 29.4157 38.4799 29.5229H41.0675C41.0675 29.5229 41.0675 29.3149 41.3289 28.9834C41.5903 28.652 46.9746 21.1253 46.9746 21.1253C46.9746 21.1253 48.1965 19.5426 48.5298 19.5426H44.8084C44.8084 19.5426 45.1058 19.7506 44.8771 20.1178C44.6484 20.4818 41.3485 25.6296 41.3485 25.6296L41.4008 20.4493C41.4008 20.4493 41.4008 19.6141 41.7144 19.5458L38.444 19.5621ZM54.1363 21.9085L54.976 19.5621H48.6833C48.6833 19.5621 48.912 19.7701 48.6147 20.6053C48.3174 21.4373 45.7657 28.5837 45.7657 28.5837C45.7657 28.5837 45.3116 29.5229 45.1874 29.5229H51.6696L52.4373 27.1408C52.4373 27.1408 52.3328 27.2805 51.7218 27.2805H48.9774L49.5557 25.6653H51.7055C51.7055 25.6653 52.1596 25.6296 52.2478 25.7693L53.1202 23.2149C53.1202 23.2149 53.0516 23.4424 52.4733 23.4424H50.4117L51.0226 21.668H53.6429C53.6462 21.681 53.9958 21.629 54.1363 21.9085ZM31.0176 17.3522C31.0176 17.3522 30.7889 17.2124 30.7366 16.8127L30.3511 8.05105C30.3511 8.05105 30.3348 7.49532 30.5962 7.37183H27.5217C27.5217 7.37183 27.7308 7.65132 27.329 8.27529C26.9108 8.90251 21.6669 17.0012 21.6669 17.0012C21.6669 17.0012 21.5624 17.2092 21.301 17.3327H24.4114C24.4114 17.3327 24.395 17.0889 24.48 16.9167C24.6205 16.621 25.0027 15.9255 25.0027 15.9255H28.1294V16.7932C28.1294 16.7932 28.1458 17.1052 27.9203 17.3327H31.0144L31.0176 17.3522ZM26.3521 13.6863L28.0837 10.7647L28.1 13.6863H26.3521Z" fill="#F5F0CC"/>
<defs>
<linearGradient id="paint0_linear" x1="28.0422" y1="-0.654879" x2="46.8066" y2="39.7782" gradientUnits="userSpaceOnUse">
<stop stop-color="#008948"/>
<stop offset="0.042" stop-color="#008847"/>
<stop offset="0.096" stop-color="#008244"/>
<stop offset="0.157" stop-color="#00793F"/>
<stop offset="0.222" stop-color="#006A37"/>
<stop offset="0.291" stop-color="#00572B"/>
<stop offset="0.319" stop-color="#004E24"/>
<stop offset="1"/>
</linearGradient>
</defs>
</svg>
