<svg width="49" height="37" viewBox="0 0 49 37" fill="none" xmlns="http://www.w3.org/2000/svg">
<path d="M25.4807 3.00185C22.9171 6.27816 15.5967 16.8504 14.7624 18.217C13.1547 20.8414 13.0166 22.1108 12.9668 22.957C12.9227 23.7861 12.9227 25.2899 14.2265 26.5078C16.4144 28.5262 19.4862 28.2003 22.2099 28.2003H44.6409C45.6022 28.2003 45.884 27.9087 46.4033 27.1882C48.1989 24.3522 49 21.276 49 18.52C49 12.6249 45.3039 5.19178 35.9337 1.83542L34.8784 3.4021C42.3094 7.05007 45.3812 11.8244 45.3812 18.5029C45.4309 20.2925 44.9724 22.2366 43.8398 24.0263H22.0221C20.7182 24.0263 20.5249 22.4939 21 21.6305C22.8729 18.1827 24.9558 14.872 27.2486 11.7101C29.453 8.66249 31.6243 5.81502 33.9061 2.83032C34.5193 2.00124 34.1105 1.20074 32.884 0.94344C30.3315 0.388812 27.674 0 24.4475 0C6.55249 0 0 10.6409 0 18.5257C0 27.0796 6.59668 37 24.4917 37C34.4254 37 40.9282 33.6894 44.6906 29.441H40.895C37.6022 32.5858 31.9558 34.8158 24.4917 34.8158C9.33148 34.8158 3.74586 25.9989 3.74586 18.4114C3.85635 11.6358 9.85082 2.28141 24.8729 1.97265C25.4365 1.96121 25.8784 2.49869 25.4807 3.00185Z" fill="black"/>
</svg>
