<svg width="23" height="30" viewBox="0 0 23 30" fill="none" xmlns="http://www.w3.org/2000/svg">
<path d="M23 15.538L21.7985 11.8712L23 8.20187L19.8318 5.92664L18.6069 2.26626L14.6838 2.2483L11.5 0L8.31615 2.24958L4.39314 2.26754L3.16818 5.92664L0 8.20059L1.20145 11.87L0 15.5367L3.16818 17.8133L4.21292 20.9324L1.84266 26.0575L5.45355 26.591L7.94004 29.9551L11.5 26.4576L15.1057 30L17.2317 26.5936L21.2096 26.0652L18.68 21.253L19.8305 17.8133L23 15.538ZM16.4429 25.4021L14.8588 27.9415L11.5 24.6441L8.09675 27.9877L6.18879 25.4046L3.74671 25.0442L5.39609 21.4775L8.31745 21.4903L11.5 23.7412L14.6838 21.489L17.3323 21.4788L19.2024 25.0353L16.4429 25.4021ZM17.7528 19.9192L17.2043 20.1975L14.2607 20.2103L11.5 22.1611L8.74057 20.2103L5.47184 20.1975L5.31643 20.127L4.27822 17.0232L1.53185 15.0494L2.57398 11.87L1.53185 8.68924L4.27822 6.71797L5.33994 3.54367L8.74057 3.52828L11.5 1.5801L14.2594 3.52956L17.6601 3.54495L18.7218 6.71925L21.4681 8.69052L20.426 11.8712L21.4681 15.0507L18.7218 17.0219L17.7528 19.9192Z" fill="white"/>
<path d="M11.5 6.09978C8.25999 6.09978 5.62332 8.68796 5.62332 11.8712C5.62332 15.0519 8.25999 17.6427 11.5 17.6427C14.74 17.6427 17.3767 15.0519 17.3767 11.8712C17.3767 8.68668 14.74 6.09978 11.5 6.09978ZM11.5 16.3601C8.97956 16.3601 6.92925 14.3465 6.92925 11.8712C6.92925 9.39592 8.97956 7.38233 11.5 7.38233C14.0204 7.38233 16.0707 9.39592 16.0707 11.8712C16.0707 14.3465 14.0204 16.3601 11.5 16.3601Z" fill="white"/>
</svg>
