<svg width="38" height="38" viewBox="0 0 38 38" fill="none" xmlns="http://www.w3.org/2000/svg">
<path d="M37.5843 19C37.5843 29.2719 29.2718 37.5844 18.9999 37.5844C8.72803 37.5844 0.415527 29.2719 0.415527 19C0.415527 8.72812 8.72803 0.415619 18.9999 0.415619C29.2718 0.415619 37.5843 8.72812 37.5843 19ZM18.9999 1.54374C9.32178 1.54374 1.54365 9.32187 1.54365 19C1.54365 28.6781 9.38115 36.4562 18.9999 36.4562C28.678 36.4562 36.4562 28.6187 36.4562 19C36.4562 9.32187 28.678 1.54374 18.9999 1.54374Z" fill="url(#paint0_linear)"/>
<path d="M18.9999 1.54373C9.32183 1.54373 1.5437 9.32186 1.5437 19C1.5437 28.6781 9.3812 36.4562 18.9999 36.4562C28.6781 36.4562 36.4562 28.6187 36.4562 19C36.4562 9.32186 28.6781 1.54373 18.9999 1.54373ZM18.9999 35.3281C9.97495 35.3281 2.67183 28.025 2.67183 19C2.67183 9.97498 9.97495 2.67186 18.9999 2.67186C28.0249 2.67186 35.3281 9.97498 35.3281 19C35.3281 28.025 28.0249 35.3281 18.9999 35.3281Z" fill="url(#paint1_linear)"/>
<path opacity="0.4" d="M19 37.5844C29.2719 37.5844 37.5844 29.2719 37.5844 19C37.5844 8.72813 29.2719 0.415625 19 0.415625C8.72813 0.415625 0.415625 8.72813 0.415625 19C0.415625 29.2719 8.72813 37.5844 19 37.5844ZM19 0C29.45 0 38 8.55 38 19C38 29.45 29.45 38 19 38C8.55 38 0 29.45 0 19C0 8.55 8.55 0 19 0Z" fill="url(#paint2_linear)"/>
<path d="M1.30615 19.0594C1.30615 9.32187 9.20303 1.30624 18.9999 1.30624C28.7968 1.30624 36.6937 9.26249 36.6937 19.0594C36.6937 28.7969 28.7968 36.6937 18.9999 36.6937C9.20303 36.6937 1.30615 28.7969 1.30615 19.0594ZM6.82803 6.82812C3.68115 9.97499 1.72178 14.3094 1.72178 19.0594C1.72178 23.8094 3.68115 28.1437 6.76865 31.2312C9.91553 34.3187 14.2499 36.2781 18.9999 36.2781C23.7499 36.2781 28.0843 34.3781 31.1718 31.2312C34.3187 28.1437 36.2187 23.8094 36.2187 19.0594C36.2187 14.3094 34.2593 9.97499 31.1718 6.82812C28.0843 3.68124 23.7499 1.72187 18.9999 1.72187C14.2499 1.72187 9.91553 3.68124 6.82803 6.82812Z" fill="black"/>
<path opacity="0.4" d="M19.0001 35.3875C14.6063 35.3875 10.5094 33.6656 7.42192 30.5781C4.33442 27.4906 2.61255 23.3938 2.61255 19C2.61255 14.6063 4.33442 10.5094 7.42192 7.42189C10.5094 4.33439 14.6063 2.61252 19.0001 2.61252C23.3938 2.61252 27.4907 4.33439 30.5782 7.42189C33.6657 10.5094 35.3876 14.6063 35.3876 19C35.3876 23.3938 33.6657 27.4906 30.5782 30.5781C27.4907 33.6656 23.3938 35.3875 19.0001 35.3875ZM19.0001 34.9125C23.2157 34.9125 27.2532 33.25 30.2219 30.2813C33.2501 27.2531 34.8532 23.275 34.8532 19.0594C34.8532 14.8438 33.1907 10.8063 30.2219 7.83752C27.1938 4.80939 23.2157 3.20627 19.0001 3.20627C14.7844 3.20627 10.7469 4.86877 7.77817 7.83752C4.75005 10.7469 3.08755 14.7844 3.08755 19C3.08755 23.2156 4.75005 27.2531 7.7188 30.2219C10.7469 33.25 14.7844 34.9125 19.0001 34.9125Z" fill="url(#paint3_linear)"/>
<path d="M33.4282 26.7187C33.1314 26.4812 21.672 17.3969 21.672 17.3969L19.0001 2.13748C18.822 2.19686 18.5845 2.37498 18.4657 2.61248L16.5657 17.4562L4.7501 26.5406C4.7501 26.5406 4.5126 26.8375 4.39385 27.0156C4.33447 27.1344 4.33447 27.3125 4.33447 27.4906L18.9407 21.4937L33.547 27.4906C33.6657 27.1937 33.547 26.8969 33.4282 26.7187Z" fill="black"/>
<path d="M19.1188 19.475L19 22.2062L32.4188 27.6094C32.8938 27.8469 33.25 27.7281 33.6063 27.4906L19.2969 19.4156C19.2375 19.3562 19.1188 19.4156 19.1188 19.475Z" fill="black"/>
<path d="M19.1187 19.475C19.1187 19.475 19.8905 20.8406 20.7812 21.7906C22.028 23.1562 23.6905 24.1062 23.6905 24.1062L32.4186 27.6094C32.8936 27.8469 33.2499 27.7281 33.6061 27.4906L19.2968 19.4156C19.2374 19.3562 19.1187 19.4156 19.1187 19.475Z" fill="url(#paint4_linear)"/>
<path d="M33.5469 26.9563C33.5469 26.8969 33.4876 26.8375 33.4282 26.7188L21.1969 17.7531L19.5344 18.8219C19.5344 18.8219 19.6532 18.8813 19.7125 18.8219C19.8907 18.7625 20.2469 18.7031 20.6032 18.8219C20.9 18.9406 33.5469 27.0156 33.5469 26.9563C33.5469 27.0156 33.5469 27.0156 33.5469 26.9563Z" fill="#A4AAAE" fill-opacity="0.6"/>
<path d="M33.1312 26.4218L21.7312 17.3969L21.1968 17.7531L33.428 26.7781C33.3687 26.6593 33.2499 26.5406 33.1312 26.4218Z" fill="black"/>
<path d="M19.2969 18.5844L19.2375 18.6437C19.2375 18.6437 19.2375 18.7625 19.3563 18.7031C19.4157 18.6437 21.1375 17.7531 21.7313 17.3969L19.6532 3.14687C19.5938 2.61249 19.3563 2.37499 18.9407 2.19687L19.1782 18.7031L19.2969 18.5844Z" fill="black"/>
<path d="M18.2875 3.14687V3.91874L16.9813 17.0406C16.9813 17.2187 17.0407 17.3969 17.2188 17.5156L17.9907 18.1094L18.525 3.62187L18.5844 2.49374C18.4063 2.61249 18.3469 2.84999 18.2875 3.14687ZM17.575 18.3469L16.8625 17.7531L4.80942 26.4812C4.80942 26.4812 4.45317 26.7188 4.3938 26.9562L4.80942 26.7187L17.4563 18.7625C17.6938 18.6437 17.7532 18.525 17.575 18.3469Z" fill="#A4AAAE" fill-opacity="0.6"/>
<path d="M18.822 19.475C18.822 19.4156 18.7626 19.3562 18.7032 19.4156L4.33447 27.55C4.69072 27.7875 5.04697 27.8469 5.52197 27.6687L18.9407 22.2656L18.822 19.475Z" fill="black"/>
<path d="M19.2375 18.6438L19.2969 18.5844L19.2375 18.6438C19.2375 18.6438 19.2375 18.7031 19.2969 18.7031H19.3563C19.4157 18.6438 21.1375 17.7531 21.7313 17.3969L21.4938 15.675L19.6532 3.14689C19.6532 2.90939 19.5938 2.73127 19.475 2.61252C19.475 2.61252 20.3657 14.6063 20.3657 15.9125C20.3657 17.6344 19.2375 18.6438 19.2375 18.6438Z" fill="url(#paint5_linear)"/>
<path d="M18.822 19.475C18.822 19.4156 18.7626 19.3562 18.7032 19.4156L4.33447 27.55C4.69072 27.7875 5.04697 27.8469 5.52197 27.6687L18.9407 22.2656L18.822 19.475Z" fill="url(#paint6_linear)" fill-opacity="0.8"/>
<path opacity="0.8" d="M5.52178 27.6094L18.9405 22.2063L18.8218 19.5938C18.5843 20.3063 18.1687 21.0781 17.0405 21.6719C16.2093 22.1469 8.25303 26.0656 5.40303 27.4313C5.2249 27.55 4.9874 27.6094 4.86865 27.6687C5.10615 27.7875 5.28428 27.7281 5.52178 27.6094Z" fill="url(#paint7_linear)"/>
<path d="M19.2969 18.5844L19.2375 18.6437C19.2375 18.6437 19.2375 18.7625 19.3563 18.7031C19.4157 18.6437 21.1375 17.7531 21.7313 17.3969L19.6532 3.14687C19.5938 2.61249 19.3563 2.37499 18.9407 2.19687L19.1782 18.7031L19.2969 18.5844Z" fill="url(#paint8_linear)"/>
<path d="M19.2969 18.5844L19.2375 18.6437C19.2375 18.6437 19.2375 18.7625 19.3563 18.7031C19.4157 18.6437 21.1375 17.7531 21.7313 17.3969L19.6532 3.14687C19.5938 2.61249 19.3563 2.37499 18.9407 2.19687L19.1782 18.7031L19.2969 18.5844Z" fill="url(#paint9_linear)"/>
<path d="M3.02803 26.3625C2.6124 25.4125 0.237403 20.7812 2.8499 11.875H1.84053C1.30615 13.6562 0.890527 14.725 0.653027 16.3281C0.653027 16.3281 0.534277 16.9219 0.474902 17.575C0.415527 18.2281 0.415527 18.5844 0.415527 19C0.415527 22.5625 1.30615 24.6406 1.30615 24.6406C2.25615 27.6094 3.91865 30.2812 6.1749 32.3C8.13428 34.0219 11.1624 35.3281 13.6561 35.8031C13.2405 35.7437 6.11553 32.7156 3.02803 26.3625Z" fill="url(#paint10_linear)"/>
<path d="M19.2375 19.3563H18.7031C18.7625 19.3563 18.8219 19.3563 18.8219 19.4156L18.9406 22.1469H19L19.1188 19.4156C19.1188 19.3563 19.1781 19.2969 19.2375 19.3563Z" fill="url(#paint11_linear)"/>
<path d="M24.9375 1.36563C31.1719 3.74063 37.05 10.2719 37.05 18.525C37.05 28.5 29.0937 36.6344 19 36.6344V37.5844C29.0937 37.5844 37.5844 29.2719 37.5844 19C37.5844 10.8063 32.3594 3.91876 24.9375 1.36563Z" fill="url(#paint12_linear)"/>
<path d="M34.9125 11.9937C30.7562 2.43436 21.375 1.89998 20.8406 1.84061H20.7812C27.9656 3.14686 32.5375 7.83748 34.1406 12.7656V12.825C34.8531 14.725 35.2094 16.7437 35.2687 18.9406C35.3281 21.0187 34.8531 23.3344 33.9625 25.4719C33.9031 25.7687 33.8437 26.125 33.7844 26.125H34.7344C37.5844 20.7812 36.3375 15.3781 34.9125 11.9937Z" fill="url(#paint13_linear)"/>
<path d="M1.30615 19.0594C1.30615 9.32187 9.20303 1.30624 18.9999 1.30624C28.7968 1.30624 36.6937 9.26249 36.6937 19.0594C36.6937 28.7969 28.7968 36.6937 18.9999 36.6937C9.20303 36.6937 1.30615 28.7969 1.30615 19.0594ZM6.82803 6.82812C3.68115 9.97499 1.72178 14.3094 1.72178 19.0594C1.72178 23.8094 3.68115 28.1437 6.76865 31.2312C9.91553 34.3187 14.2499 36.2781 18.9999 36.2781C23.7499 36.2781 28.0843 34.3781 31.1718 31.2312C34.3187 28.1437 36.2187 23.8094 36.2187 19.0594C36.2187 14.3094 34.2593 9.97499 31.1718 6.82812C28.0843 3.68124 23.7499 1.72187 18.9999 1.72187C14.2499 1.72187 9.91553 3.68124 6.82803 6.82812Z" fill="black"/>
<path d="M4.69067 26.6L16.8032 17.8719C17.4563 18.2281 18.525 18.7031 18.6438 18.7031C18.7625 18.7625 18.7625 18.6438 18.7625 18.6438L17.2782 17.3969C17.1 17.2781 17.0407 17.1 17.0407 16.9219L18.4657 2.61252C18.4063 2.67189 18.4063 2.79064 18.3469 2.85002C18.2875 2.96877 18.2875 3.02814 18.2875 3.14689L16.2094 17.4563L4.80942 26.4219C4.75005 26.4813 4.69067 26.5406 4.69067 26.6Z" fill="black"/>
<defs>
<linearGradient id="paint0_linear" x1="4.74871" y1="7.06443" x2="33.2511" y2="30.9356" gradientUnits="userSpaceOnUse">
<stop stop-color="white"/>
<stop offset="0.1" stop-color="#CDD0D0"/>
<stop offset="0.2" stop-color="#A5ACAF"/>
<stop offset="0.3" stop-color="#98A0A4"/>
<stop offset="0.4" stop-color="#828A8F"/>
<stop offset="0.5" stop-color="#667075"/>
<stop offset="0.6" stop-color="#535C63"/>
<stop offset="0.7" stop-color="#475158"/>
<stop offset="0.8" stop-color="#434D54"/>
<stop offset="1" stop-color="#475157"/>
</linearGradient>
<linearGradient id="paint1_linear" x1="5.62336" y1="7.75376" x2="32.3421" y2="30.1975" gradientUnits="userSpaceOnUse">
<stop stop-color="#0B1F2A"/>
<stop offset="0.2" stop-color="#333F47"/>
<stop offset="0.5" stop-color="#81898D"/>
<stop offset="0.7" stop-color="#B3B8B8"/>
<stop offset="0.8" stop-color="#DEE0DD"/>
<stop offset="1" stop-color="#FBFBFB"/>
</linearGradient>
<linearGradient id="paint2_linear" x1="25.4938" y1="36.8499" x2="12.4907" y2="1.10675" gradientUnits="userSpaceOnUse">
<stop stop-color="#E1E3E1"/>
<stop offset="0.1" stop-color="#C1C5C4"/>
<stop offset="0.3" stop-color="#9BA1A2"/>
<stop offset="0.5" stop-color="#7D8487"/>
<stop offset="0.7" stop-color="#687074" stop-opacity="0"/>
<stop offset="0.8" stop-color="#5B6469" stop-opacity="0"/>
<stop offset="1" stop-color="#576065" stop-opacity="0"/>
</linearGradient>
<linearGradient id="paint3_linear" x1="10.8069" y1="4.80999" x2="27.1932" y2="33.1901" gradientUnits="userSpaceOnUse">
<stop stop-color="#E1E3E1"/>
<stop offset="0.1" stop-color="#C1C5C4"/>
<stop offset="0.3" stop-color="#9BA1A2"/>
<stop offset="0.5" stop-color="#7D8487"/>
<stop offset="0.7" stop-color="#687074" stop-opacity="0"/>
<stop offset="0.8" stop-color="#5B6469" stop-opacity="0"/>
<stop offset="1" stop-color="#576065" stop-opacity="0"/>
</linearGradient>
<linearGradient id="paint4_linear" x1="26.4146" y1="23.3896" x2="25.4053" y2="25.0521" gradientUnits="userSpaceOnUse">
<stop stop-color="#27343C"/>
<stop offset="1" stop-color="#00111E" stop-opacity="0"/>
</linearGradient>
<linearGradient id="paint5_linear" x1="23.5007" y1="17.2853" x2="21.8382" y2="14.6134" gradientUnits="userSpaceOnUse">
<stop offset="0.1" stop-color="#02131F"/>
<stop offset="0.9" stop-color="#02131F" stop-opacity="0"/>
</linearGradient>
<linearGradient id="paint6_linear" x1="18.9894" y1="21.5745" x2="16.4957" y2="22.287" gradientUnits="userSpaceOnUse">
<stop offset="0.2" stop-color="#02131F"/>
<stop offset="0.9" stop-color="#02131F" stop-opacity="0"/>
</linearGradient>
<linearGradient id="paint7_linear" x1="12.3446" y1="24.8805" x2="11.9883" y2="23.9899" gradientUnits="userSpaceOnUse">
<stop stop-color="#02131F"/>
<stop offset="0.1" stop-color="#02131F"/>
<stop offset="1" stop-color="#02131F" stop-opacity="0"/>
</linearGradient>
<linearGradient id="paint8_linear" x1="21.1387" y1="10.2208" x2="19.12" y2="10.4583" gradientUnits="userSpaceOnUse">
<stop offset="0.3" stop-color="#02131F"/>
<stop offset="0.8" stop-color="#02131F" stop-opacity="0"/>
</linearGradient>
<linearGradient id="paint9_linear" x1="21.2017" y1="10.187" x2="19.8355" y2="10.3651" gradientUnits="userSpaceOnUse">
<stop offset="0.4" stop-color="#27343C"/>
<stop offset="1" stop-color="#3B474E" stop-opacity="0"/>
</linearGradient>
<linearGradient id="paint10_linear" x1="-0.213848" y1="19.4934" x2="16.3518" y2="29.0528" gradientUnits="userSpaceOnUse">
<stop stop-color="#25323B" stop-opacity="0"/>
<stop offset="0.1" stop-color="#27343C"/>
</linearGradient>
<linearGradient id="paint11_linear" x1="18.9703" y1="22.2063" x2="18.9703" y2="19.3563" gradientUnits="userSpaceOnUse">
<stop offset="0.3" stop-color="#A5ABAF"/>
<stop offset="1" stop-color="#A5ABAF" stop-opacity="0"/>
</linearGradient>
<linearGradient id="paint12_linear" x1="28.2922" y1="1.36563" x2="28.2922" y2="37.5844" gradientUnits="userSpaceOnUse">
<stop stop-color="#6B7378"/>
<stop offset="0.2" stop-color="#333F47"/>
<stop offset="0.5" stop-color="#27343C"/>
<stop offset="0.8" stop-color="#333F47"/>
<stop offset="1" stop-color="#434D54"/>
</linearGradient>
<linearGradient id="paint13_linear" x1="34.0153" y1="4.8052" x2="25.9997" y2="16.5614" gradientUnits="userSpaceOnUse">
<stop offset="0.7" stop-color="#49545B"/>
<stop offset="0.8" stop-color="white" stop-opacity="0"/>
</linearGradient>
</defs>
</svg>
