<svg width="80" height="60" viewBox="0 0 80 60" fill="none" xmlns="http://www.w3.org/2000/svg">
<path d="M0 53.4744H33.2108V58.0548C33.2107 58.2922 33.2962 58.5237 33.4553 58.7174C33.6145 58.911 33.8396 59.0573 34.0994 59.1359C34.3592 59.2145 34.6409 59.2215 34.9056 59.1561C35.1703 59.0906 35.4048 58.9559 35.5768 58.7705L39.853 54.1615L44.1292 58.7694C44.3011 58.9547 44.5356 59.0894 44.8001 59.1548C45.0646 59.2203 45.3463 59.2134 45.606 59.1349C45.8658 59.0565 46.0908 58.9104 46.2501 58.7169C46.4094 58.5234 46.495 58.2921 46.4952 58.0548V53.4744H79.706V0.799805H0V53.4744ZM43.8383 54.7901L41.1814 51.9274V47.7489H38.5246V51.9274L35.8677 54.7901V43.3838C37.0771 43.9927 38.4525 44.3136 39.853 44.3136C41.2536 44.3136 42.629 43.9927 43.8383 43.3838V54.7901ZM39.853 42.0234C38.8021 42.0234 37.7747 41.7548 36.9009 41.2515C36.027 40.7482 35.3459 40.0328 34.9438 39.1959C34.5416 38.3589 34.4363 37.4379 34.6414 36.5494C34.8464 35.6609 35.3525 34.8448 36.0956 34.2042C36.8388 33.5636 37.7856 33.1274 38.8164 32.9506C39.8471 32.7739 40.9155 32.8646 41.8865 33.2113C42.8575 33.558 43.6873 34.145 44.2712 34.8983C44.8551 35.6515 45.1667 36.5371 45.1667 37.443C45.1667 38.6578 44.6069 39.8229 43.6104 40.6819C42.6139 41.5408 41.2623 42.0234 39.853 42.0234ZM39.853 30.5724C38.4124 30.5714 36.9984 30.9072 35.7617 31.5442C34.5251 32.1811 33.5119 33.0952 32.8303 34.1892C32.1487 35.2833 31.8241 36.5161 31.8911 37.7566C31.9581 38.9971 32.4142 40.1986 33.2108 41.2333V46.6038H11.7872C11.5481 45.8124 11.0684 45.0902 10.3975 44.5119C9.72655 43.9336 8.88879 43.52 7.9706 43.3139V10.9603C8.88879 10.7542 9.72655 10.3407 10.3975 9.76234C11.0684 9.18402 11.5481 8.46188 11.7872 7.67041H67.9188C68.1579 8.46188 68.6377 9.18402 69.3086 9.76234C69.9795 10.3407 70.8172 10.7542 71.7354 10.9603V43.3139C70.8172 43.52 69.9795 43.9336 69.3086 44.5119C68.6377 45.0902 68.1579 45.8124 67.9188 46.6038H46.4952V41.2333C47.2918 40.1986 47.7479 38.9971 47.8149 37.7566C47.8819 36.5161 47.5573 35.2833 46.8757 34.1892C46.1941 33.0952 45.181 32.1811 43.9443 31.5442C42.7076 30.9072 41.2936 30.5714 39.853 30.5724ZM2.65687 3.09001H77.0492V51.1842H46.4952V48.894H70.407V47.7489C70.407 47.1415 70.6869 46.559 71.1852 46.1295C71.6834 45.7 72.3592 45.4587 73.0639 45.4587H74.3923V8.81551H73.0639C72.3592 8.81551 71.6834 8.57422 71.1852 8.14472C70.6869 7.71523 70.407 7.13271 70.407 6.52531V5.38021H9.29904V6.52531C9.29904 7.13271 9.01912 7.71523 8.52086 8.14472C8.0226 8.57422 7.34681 8.81551 6.64217 8.81551H5.31374V45.4587H6.64217C7.34681 45.4587 8.0226 45.7 8.52086 46.1295C9.01912 46.559 9.29904 47.1415 9.29904 47.7489V48.894H33.2108V51.1842H2.65687V3.09001Z" fill="#BC2131"/>
<path d="M18.598 20.2667C18.7063 20.2666 18.8143 20.255 18.9194 20.2323C25.7852 18.8451 32.8022 18.0889 39.8529 17.9765C46.9035 18.0899 53.9204 18.8461 60.7864 20.2323C60.9819 20.276 61.1865 20.2799 61.3841 20.2437C61.5817 20.2076 61.7668 20.1323 61.9248 20.0239C62.084 19.9169 62.2128 19.78 62.3014 19.6236C62.3901 19.4673 62.4362 19.2956 62.4363 19.1216V13.3961C62.4364 13.147 62.3422 12.9047 62.1682 12.706C61.9942 12.5072 61.7497 12.3627 61.4718 12.2945C47.2852 9.18309 32.4206 9.18309 18.234 12.2945C17.9561 12.3627 17.7116 12.5072 17.5376 12.706C17.3636 12.9047 17.2695 13.147 17.2695 13.3961V19.1216C17.2695 19.4253 17.4095 19.7165 17.6586 19.9313C17.9078 20.146 18.2456 20.2667 18.598 20.2667ZM19.9264 14.2812C26.4563 12.9483 33.1424 12.2671 39.8529 12.251C46.5634 12.2671 53.2495 12.9483 59.7794 14.2812V17.6833C53.232 16.442 46.5561 15.7729 39.8529 15.6863C33.1497 15.7729 26.4738 16.442 19.9264 17.6833V14.2812Z" fill="#BC2131"/>
<path d="M55.7943 21.4116H23.9119V23.7018H55.7943V21.4116Z" fill="#BC2131"/>
<path d="M19.2349 26.9922H13.9211V29.2824H19.2349V26.9922Z" fill="#BC2131"/>
<path d="M53.1373 26.9922H26.5686V29.2824H53.1373V26.9922Z" fill="#BC2131"/>
<path d="M65.6392 26.9922H60.3254V29.2824H65.6392V26.9922Z" fill="#BC2131"/>
</svg>
