<svg width="63" height="66" viewBox="0 0 63 66" fill="none" xmlns="http://www.w3.org/2000/svg">
<path d="M32.4545 65.4999L32.9127 65.3472C33.2182 65.2708 40.7018 63.2854 48.1091 55.3435C54.9055 48.1654 63 34.4963 63 10.0599V8.1508H61.0909C51.4691 8.1508 41.9236 5.6308 33.5236 0.819894L32.4545 0.208984L31.3855 0.819894C22.9855 5.6308 13.44 8.1508 3.81818 8.1508H0V10.0599C0 34.4963 8.62909 48.2417 15.8073 55.4199C23.7491 63.2854 31.6145 65.2708 31.9964 65.3472L32.4545 65.4999ZM3.81818 11.969C13.8218 11.969 23.6727 9.44898 32.4545 4.63807C40.6255 9.14353 49.7891 11.6635 59.1818 11.969C58.8764 29.3035 54.1418 43.3544 45.5891 52.5944C39.8618 58.7035 34.1345 60.9944 32.4545 61.529C28.7127 60.3835 4.58182 51.2963 3.81818 11.969Z" fill="#BC2131"/>
<path d="M9.80069 17.0468L9.86686 17.8397C10.699 31.528 15.0096 40.382 19.717 46.0413C24.4218 51.6975 29.5125 54.15 31.8919 55.0538C31.8924 55.054 31.893 55.0542 31.8935 55.0544L32.2221 55.1857L32.2963 55.2154L32.3705 55.1857L32.7023 55.0532L32.7023 55.0533L32.7071 55.0512C34.886 54.1139 39.612 51.6272 43.9845 45.9443C48.3578 40.2603 52.3677 31.3916 53.1332 17.7067L53.1993 16.9142L53.2159 16.7149L53.0166 16.6983L52.223 16.6323C52.2225 16.6322 52.2221 16.6322 52.2216 16.6321C45.411 15.9717 38.8664 14.1229 32.7853 11.0206L32.7853 11.0206L32.7838 11.0199L32.3856 10.8211L32.2963 10.7765L32.207 10.8211L31.8088 11.0199L31.8088 11.0199L31.8074 11.0206C25.1961 14.3876 18.1225 16.3021 10.7837 16.7643L10.7837 16.7642L10.7797 16.7645L9.98341 16.8308L9.78406 16.8474L9.80069 17.0468ZM32.2259 52.9282C29.839 51.9894 25.2622 49.6328 21.0378 44.4452C16.7919 39.2313 12.8927 31.146 11.9398 18.7385C19.0287 18.1883 25.857 16.2802 32.2963 13.0789C38.2053 16.0166 44.4388 17.8567 50.9958 18.5349C50.1444 30.9823 46.5396 39.1042 42.6043 44.3521C38.6927 49.5685 34.446 51.9566 32.2259 52.9282Z" fill="#BC2131" stroke="#BC2131" stroke-width="0.4"/>
</svg>
