<svg width="38" height="38" viewBox="0 0 38 38" fill="none" xmlns="http://www.w3.org/2000/svg">
<path d="M13.6416 9.57909C13.9969 8.43999 14.897 9.02128 14.897 9.02128C14.897 9.02128 17.2296 10.7647 23.627 14.7606C30.0244 18.7567 38 13.2112 38 13.2112L19.0573 0C10.749 8.64428 0.114594 11.7433 0.114594 11.7433L0.144778 11.7548L24.3585 28.4206C24.0031 29.56 23.103 28.9789 23.103 28.9789C23.103 28.9789 20.7704 27.2353 14.3731 23.2392C7.9756 19.2433 0 24.7888 0 24.7888L18.9427 38C27.251 29.3555 37.8853 26.2567 37.8853 26.2567L37.8547 26.245L13.6416 9.57909Z" fill="#FF0D07"/>
</svg>
