<svg width="39" height="21" viewBox="0 0 39 21" fill="none" xmlns="http://www.w3.org/2000/svg">
<path d="M28.5814 15.1851L31.1443 1.70212C31.2975 0.872171 31.9229 0.216951 32.7182 0.0422255C33.8172 -0.174725 34.8771 0.566402 35.1 1.70357L36.3118 8.10872L36.3118 -1.17506e-07L39 0L39 19.2926C39 20.108 38.4429 20.8069 37.6768 20.9656C36.7993 21.1549 35.9357 20.5434 35.7546 19.6115L33.1221 5.7208L30.5593 19.2038C30.3921 20.0337 29.7654 20.6904 28.9714 20.8651C27.8711 21.0821 26.8125 20.341 26.6036 19.2038L24.0407 5.7208L21.4779 19.2038C21.3246 20.0337 20.6979 20.6904 19.89 20.8651C18.8036 21.0821 17.745 20.341 17.5221 19.2038L14.9593 5.7208L12.3964 19.2038C12.2432 20.0337 11.6164 20.6904 10.8086 20.8651C9.72214 21.0821 8.66357 20.341 8.44071 19.2038L5.87785 5.7208L3.24536 19.6115C3.09214 20.4123 2.42357 20.9947 1.64357 20.9947C0.738212 20.9947 -8.83976e-07 20.223 -8.43243e-07 19.2912L0 -1.70474e-06L2.68821 -1.58724e-06L2.68821 8.10872L3.9 1.70357C4.06714 0.873626 4.69393 0.21695 5.48786 0.0422243C6.58821 -0.174727 7.64678 0.566401 7.85571 1.70357L10.4186 15.1866L12.9814 1.70357C13.1346 0.873627 13.7614 0.21695 14.5693 0.0422247C15.6557 -0.174726 16.7282 0.566401 16.9371 1.70357L19.5 15.1851L22.0629 1.70212C22.2161 0.87217 22.8429 0.215494 23.6507 0.0407684C24.7371 -0.176182 25.7957 0.564945 26.0186 1.70212L28.5814 15.1851Z" fill="white"/>
</svg>
