<svg width="61" height="76" viewBox="0 0 61 76" fill="none" xmlns="http://www.w3.org/2000/svg">
<path d="M3.92331 31.0502L3.92331 31.0501C3.5849 31.0415 3.26272 30.9033 3.02335 30.6639C2.78399 30.4246 2.64573 30.1024 2.63716 29.764L2.63703 29.7589L2.63711 29.7589C2.64007 29.418 2.77679 29.0919 3.01783 28.8509C3.25887 28.6098 3.58494 28.4731 3.92581 28.4702L3.92711 28.4702V28.4702H9.78646H9.78711V28.6202C9.93719 28.6188 10.086 28.6474 10.2249 28.7042C10.3639 28.761 10.4901 28.845 10.5962 28.9511C10.7023 29.0572 10.7862 29.1834 10.843 29.3223C10.8999 29.4612 10.9284 29.6101 10.9271 29.7602L3.92331 31.0502ZM3.92331 31.0502H3.92711H9.74521H3.92331Z" fill="#BC2131" stroke="#BC2131" stroke-width="0.3"/>
<path d="M53.3769 28.4701V28.4702H59.1963H59.1969V28.6202L53.3769 28.4701ZM53.3769 28.4701L53.3729 28.4702M53.3769 28.4701L53.3729 28.4702M53.3729 28.4702C53.0374 28.4791 52.7188 28.6194 52.4857 28.861C52.2527 29.1025 52.1239 29.4258 52.1269 29.7614M53.3729 28.4702L53.3704 31.0502M53.3704 31.0502L53.3704 31.05C53.0374 31.0355 52.7228 30.8937 52.4914 30.6539C52.26 30.4141 52.1295 30.0946 52.1269 29.7614M53.3704 31.0502H53.3769M53.3704 31.0502H53.3769M52.1269 29.7614C52.1269 29.7614 52.1269 29.7614 52.1269 29.7613L52.2769 29.7602L52.1269 29.7615C52.1269 29.7615 52.1269 29.7615 52.1269 29.7614ZM53.3769 31.0502L59.1969 31.0502L59.1982 31.0502M53.3769 31.0502L59.1982 31.0502M59.1982 31.0502C59.5391 31.0472 59.8651 30.9105 60.1062 30.6694M59.1982 31.0502L60.1062 30.6694M60.1062 30.6694C60.3472 30.4284 60.484 30.1023 60.4869 29.7615L60.1062 30.6694Z" fill="#BC2131" stroke="#BC2131" stroke-width="0.3"/>
<path d="M32.867 7.9294C32.8684 8.09917 32.8361 8.26752 32.7718 8.42466C32.7074 8.58202 32.6124 8.72497 32.4922 8.84519C32.3719 8.9654 32.229 9.06046 32.0716 9.12482L32.867 7.9294ZM32.867 7.9294V2.14069M32.867 7.9294L31.5757 0.85005C31.7457 0.848542 31.9143 0.880912 32.0716 0.94527C32.229 1.00963 32.3719 1.10469 32.4922 1.2249C32.6124 1.34512 32.7074 1.48807 32.7718 1.64543C32.8361 1.80257 32.8684 1.97092 32.867 2.14069M32.867 2.14069V2.14005H32.717L32.867 2.14138C32.867 2.14115 32.867 2.14092 32.867 2.14069ZM30.6708 8.83823C30.9103 9.07983 31.2355 9.21705 31.5757 9.22004L31.5757 0.850051C31.2355 0.853039 30.9103 0.990265 30.6708 1.23186C30.4314 1.47346 30.297 1.79987 30.297 2.14005C30.297 2.14005 30.297 2.14005 30.297 2.14005V7.93005C30.297 8.27022 30.4314 8.59663 30.6708 8.83823Z" fill="#BC2131" stroke="#BC2131" stroke-width="0.3"/>
<path d="M49.7148 19.8789C49.9317 20.0438 50.1952 20.135 50.4671 20.1398L50.4671 20.14H50.4817C50.4871 20.14 50.4926 20.14 50.4981 20.14L50.4981 20.1389C50.716 20.1282 50.9279 20.0629 51.1142 19.9487L56.11 17.0311C56.2597 16.9517 56.3922 16.8433 56.4997 16.7123C56.608 16.5803 56.6887 16.4281 56.7373 16.2645C56.7858 16.1009 56.8012 15.9293 56.7824 15.7597C56.7637 15.5901 56.7112 15.426 56.6281 15.2769L56.6282 15.2769L56.6252 15.2719C56.447 14.9795 56.1607 14.7692 55.8284 14.6867C55.4963 14.6042 55.1451 14.656 54.8509 14.8308C54.8507 14.8309 54.8506 14.831 54.8504 14.8311L49.8524 17.7499C49.8522 17.75 49.8521 17.7501 49.8519 17.7502C49.6069 17.891 49.4154 18.1089 49.3072 18.3699C49.1989 18.6311 49.1802 18.9208 49.2539 19.1938C49.3277 19.4668 49.4897 19.7077 49.7148 19.8789Z" fill="#BC2131" stroke="#BC2131" stroke-width="0.3"/>
<path d="M19.5668 11.4946L19.5668 11.4947L19.5686 11.4977C19.6866 11.6924 19.8503 11.8553 20.0455 11.9724C20.2406 12.0895 20.4614 12.1572 20.6886 12.1697L20.698 12.1703L20.7073 12.1696C20.9296 12.1542 21.1457 12.0897 21.3402 11.9809L21.3402 11.9809L21.3447 11.9782C21.6249 11.8083 21.8292 11.5374 21.9156 11.2213C22.002 10.9052 21.9639 10.568 21.8091 10.2791L21.8092 10.2791L21.8071 10.2754L18.8871 5.17544L18.8871 5.17542L18.8853 5.17244C18.7112 4.88407 18.4304 4.67597 18.1038 4.59328C17.7773 4.51058 17.4313 4.55994 17.1409 4.73067L17.1409 4.73066L17.1395 4.73146C16.8607 4.8993 16.6556 5.16632 16.5654 5.479C16.4751 5.79169 16.5064 6.12692 16.653 6.41751L16.6528 6.41761L16.6568 6.42464L19.5668 11.4946Z" fill="#BC2131" stroke="#BC2131" stroke-width="0.3"/>
<path d="M12.0314 19.9497L12.0314 19.9498L12.0356 19.9521C12.23 20.0574 12.4442 20.1212 12.6646 20.1396L12.6645 20.1401L12.676 20.1402C12.9588 20.142 13.2342 20.0502 13.4593 19.879C13.6844 19.7079 13.8465 19.467 13.9202 19.194C13.9939 18.921 13.9752 18.6313 13.8669 18.3701C13.7587 18.109 13.5672 17.8911 13.3222 17.7503C13.322 17.7502 13.3219 17.7502 13.3217 17.7501L8.32268 14.8306L8.32269 14.8306L8.32075 14.8295C8.02724 14.6639 7.68057 14.6197 7.3549 14.7064C7.02947 14.7931 6.75083 15.0035 6.5785 15.2928C6.49159 15.4359 6.4343 15.595 6.41005 15.7607C6.38577 15.9266 6.39511 16.0957 6.43752 16.2579C6.47993 16.4201 6.55454 16.5722 6.65692 16.7049C6.75904 16.8374 6.88672 16.948 7.03237 17.0303L12.0314 19.9497Z" fill="#BC2131" stroke="#BC2131" stroke-width="0.3"/>
<path d="M54.8513 44.6595L54.8513 44.6596L54.8533 44.6607C55.0487 44.7707 55.2677 44.8322 55.4917 44.8399L55.4917 44.8401L55.4982 44.84C55.7253 44.8381 55.9481 44.778 56.1454 44.6655C56.3427 44.5531 56.5079 44.392 56.6253 44.1976L56.6254 44.1976L56.6284 44.1921C56.7909 43.8959 56.8296 43.5476 56.7363 43.2229C56.643 42.8988 56.4256 42.6245 56.1313 42.4598L51.1397 39.5447C50.9969 39.4393 50.8337 39.3648 50.6604 39.3259C50.4844 39.2864 50.3019 39.2845 50.125 39.3205C49.9482 39.3564 49.7809 39.4294 49.6342 39.5345C49.4876 39.6397 49.3648 39.7746 49.2739 39.9306C49.1831 40.0865 49.1263 40.2599 49.1072 40.4394C49.0881 40.6188 49.1072 40.8003 49.1631 40.9719C49.2191 41.1434 49.3108 41.3012 49.432 41.4349C49.5513 41.5663 49.6965 41.6715 49.8586 41.7438L54.8513 44.6595Z" fill="#BC2131" stroke="#BC2131" stroke-width="0.3"/>
<path d="M42.4927 12.1699L42.4927 12.1701L42.4997 12.17C42.7305 12.1656 42.9562 12.1009 43.1542 11.9821C43.3517 11.8635 43.5148 11.6954 43.6272 11.4943L46.5365 6.49557C46.5365 6.49555 46.5365 6.49553 46.5365 6.4955C46.7058 6.20518 46.7532 5.85956 46.6682 5.53439C46.5832 5.20919 46.3727 4.93095 46.0829 4.76066L46.0829 4.76066L46.0825 4.76042C45.7878 4.5885 45.4376 4.53832 45.1065 4.62057C44.7754 4.70283 44.4894 4.91101 44.3095 5.20086L44.3094 5.20082L44.3072 5.20455L41.3572 10.2745L41.3569 10.2743L41.3521 10.2842C41.2089 10.5777 41.1804 10.9141 41.2724 11.2275C41.3642 11.5407 41.5698 11.8083 41.8486 11.978C42.0428 12.0973 42.2649 12.1635 42.4927 12.1699Z" fill="#BC2131" stroke="#BC2131" stroke-width="0.3"/>
<mask id="path-9-outside-1" maskUnits="userSpaceOnUse" x="0" y="11.1501" width="57" height="56" fill="black">
<rect fill="white" y="11.1501" width="57" height="56"/>
<path d="M46.3469 47.0001C46.3469 46.8001 46.3469 46.6301 46.3469 46.4701C46.3454 44.5838 45.8636 42.7288 44.9469 41.0801C47.6573 37.9301 49.1539 33.9157 49.1669 29.7601C49.1669 25.0897 47.3116 20.6105 44.0091 17.308C40.7066 14.0055 36.2274 12.1501 31.5569 12.1501C26.8865 12.1501 22.4073 14.0055 19.1048 17.308C15.8023 20.6105 13.9469 25.0897 13.9469 29.7601C13.9604 30.6293 14.0473 31.4957 14.2069 32.3501C12.9693 33.2628 11.9627 34.4528 11.2681 35.8248C10.5734 37.1967 10.21 38.7124 10.2069 40.2501V40.5501C9.04369 40.4561 7.87352 40.6019 6.76898 40.9788C5.66444 41.3556 4.6491 41.9553 3.78592 42.7408C2.92274 43.5262 2.23012 44.4806 1.75102 45.5448C1.27193 46.609 1.01657 47.7602 1.00078 48.9272C0.984992 50.0941 1.20911 51.2518 1.65924 52.3286C2.10937 53.4053 2.77592 54.3781 3.61753 55.1866C4.45915 55.9951 5.4579 56.6221 6.55183 57.0287C7.64577 57.4352 8.81157 57.6127 9.97694 57.5501H10.3369C10.301 57.8388 10.281 58.1293 10.2769 58.4201C10.2769 58.7901 10.2769 59.1601 10.3369 59.5201C10.3807 59.8225 10.5428 60.0951 10.7875 60.2779C11.0322 60.4608 11.3396 60.5389 11.6419 60.4951C11.9443 60.4514 12.2169 60.2893 12.3997 60.0446C12.5826 59.7998 12.6607 59.4925 12.6169 59.1901C12.566 58.9368 12.5459 58.6783 12.5569 58.4201C12.5587 57.1635 12.9962 55.9464 13.7949 54.9763C14.5936 54.0062 15.7041 53.3431 16.9369 53.1001C17.1113 53.0626 17.2746 52.9849 17.4138 52.8734C17.553 52.7619 17.6644 52.6195 17.7391 52.4575C17.8137 52.2955 17.8497 52.1183 17.8442 51.94C17.8386 51.7617 17.7916 51.5872 17.7069 51.4301C17.3347 50.7746 17.1383 50.034 17.1369 49.2801C17.1369 48.1051 17.6016 46.9778 18.4297 46.1441C19.2578 45.3104 20.3819 44.8381 21.5569 44.8301C22.6694 44.8241 23.7423 45.2425 24.5569 46.0001C24.716 46.1354 24.9066 46.2283 25.1111 46.2703C25.3157 46.3122 25.5275 46.3019 25.7269 46.2401C25.9142 46.1564 26.077 46.026 26.1995 45.8614C26.3221 45.6968 26.4004 45.5036 26.4269 45.3001C26.7283 43.0701 27.865 41.0376 29.6074 39.6136C31.3498 38.1895 33.5679 37.4801 35.8133 37.6287C38.0587 37.7773 40.164 38.7728 41.7035 40.414C43.2431 42.0553 44.1021 44.2198 44.1069 46.4701C44.0925 47.0209 44.0323 47.5694 43.9269 48.1101C43.8985 48.2913 43.9138 48.4767 43.9716 48.6507C44.0294 48.8248 44.128 48.9825 44.2591 49.1107C44.3903 49.2389 44.5502 49.3339 44.7255 49.3877C44.9008 49.4415 45.0864 49.4527 45.2669 49.4201C46.2666 49.2072 47.2999 49.2068 48.2998 49.4191C49.2996 49.6314 50.2437 50.0515 51.0706 50.6523C51.8976 51.253 52.5889 52.021 53.0998 52.9063C53.6107 53.7915 53.9298 54.7744 54.0362 55.7909C54.1427 56.8075 54.0342 57.8351 53.7177 58.807C53.4013 59.7789 52.884 60.6734 52.1995 61.4325C51.5149 62.1915 50.6784 62.7981 49.7442 63.2129C48.81 63.6277 47.7991 63.8414 46.7769 63.8401H45.3769C45.0843 63.8428 44.8045 63.9609 44.5985 64.1688C44.3925 64.3767 44.2769 64.6575 44.2769 64.9501C44.2742 65.2464 44.388 65.532 44.5937 65.7452C44.7995 65.9584 45.0807 66.0823 45.3769 66.0901H46.7869C48.0593 66.0897 49.3188 65.8351 50.4914 65.3411C51.664 64.8471 52.726 64.1238 53.6152 63.2137C54.5043 62.3035 55.2026 61.2248 55.669 60.041C56.1355 58.8572 56.3606 57.5921 56.3313 56.3201C56.302 55.048 56.0188 53.7947 55.4983 52.6336C54.9778 51.4726 54.2306 50.4272 53.3004 49.559C52.3703 48.6908 51.2761 48.0171 50.082 47.5777C48.8879 47.1383 47.618 46.9419 46.3469 47.0001ZM24.5569 43.2901C23.6287 42.8164 22.599 42.5761 21.5569 42.5901C19.7947 42.6112 18.1115 43.3246 16.8709 44.5764C15.6303 45.8282 14.9321 47.5178 14.9269 49.2801C14.9192 49.9578 15.0171 50.6326 15.2169 51.2801C13.356 52.0185 11.8565 53.4535 11.0369 55.2801H10.0369C8.38199 55.2801 6.79482 54.6227 5.62459 53.4525C4.45437 52.2823 3.79694 50.6951 3.79694 49.0401C3.79694 47.3852 4.45437 45.798 5.62459 44.6278C6.79482 43.4576 8.38199 42.8001 10.0369 42.8001C10.4638 42.7959 10.8898 42.8395 11.3069 42.9301C11.4862 42.9589 11.6698 42.9459 11.8432 42.8921C12.0167 42.8384 12.1753 42.7453 12.3069 42.6201C12.4412 42.4944 12.5417 42.3369 12.5994 42.1622C12.657 41.9875 12.6699 41.8011 12.6369 41.6201C12.546 41.1591 12.5024 40.69 12.5069 40.2201C12.4822 38.3416 13.1551 36.5206 14.3955 35.1095C15.6358 33.6983 17.3555 32.7974 19.2217 32.5809C21.0879 32.3644 22.9682 32.8478 24.4986 33.9375C26.029 35.0272 27.1009 36.6458 27.5069 38.4801C26.1221 39.7997 25.1053 41.4576 24.5569 43.2901ZM35.2269 35.3501C33.1946 35.3485 31.2026 35.9167 29.4769 36.9901C28.7977 35.0515 27.5335 33.3715 25.8587 32.1822C24.1838 30.9928 22.1811 30.3526 20.1269 30.3501C18.8181 30.3485 17.5224 30.6104 16.3169 31.1201C16.3169 30.6501 16.2469 30.2201 16.2469 29.7801C16.1947 27.7334 16.5527 25.6969 17.2998 23.7906C18.047 21.8844 19.1682 20.147 20.5973 18.6809C22.0265 17.2147 23.7347 16.0495 25.6212 15.254C27.5078 14.4584 29.5345 14.0485 31.5819 14.0485C33.6294 14.0485 35.6561 14.4584 37.5426 15.254C39.4292 16.0495 41.1374 17.2147 42.5665 18.6809C43.9957 20.147 45.1169 21.8844 45.8641 23.7906C46.6112 25.6969 46.9692 27.7334 46.9169 29.7801C46.9202 33.1953 45.7479 36.5075 43.5969 39.1601C42.5593 37.9587 41.274 36.9962 39.8292 36.3385C38.3844 35.6808 36.8144 35.3436 35.2269 35.3501Z"/>
</mask>
<path d="M46.3469 47.0001C46.3469 46.8001 46.3469 46.6301 46.3469 46.4701C46.3454 44.5838 45.8636 42.7288 44.9469 41.0801C47.6573 37.9301 49.1539 33.9157 49.1669 29.7601C49.1669 25.0897 47.3116 20.6105 44.0091 17.308C40.7066 14.0055 36.2274 12.1501 31.5569 12.1501C26.8865 12.1501 22.4073 14.0055 19.1048 17.308C15.8023 20.6105 13.9469 25.0897 13.9469 29.7601C13.9604 30.6293 14.0473 31.4957 14.2069 32.3501C12.9693 33.2628 11.9627 34.4528 11.2681 35.8248C10.5734 37.1967 10.21 38.7124 10.2069 40.2501V40.5501C9.04369 40.4561 7.87352 40.6019 6.76898 40.9788C5.66444 41.3556 4.6491 41.9553 3.78592 42.7408C2.92274 43.5262 2.23012 44.4806 1.75102 45.5448C1.27193 46.609 1.01657 47.7602 1.00078 48.9272C0.984992 50.0941 1.20911 51.2518 1.65924 52.3286C2.10937 53.4053 2.77592 54.3781 3.61753 55.1866C4.45915 55.9951 5.4579 56.6221 6.55183 57.0287C7.64577 57.4352 8.81157 57.6127 9.97694 57.5501H10.3369C10.301 57.8388 10.281 58.1293 10.2769 58.4201C10.2769 58.7901 10.2769 59.1601 10.3369 59.5201C10.3807 59.8225 10.5428 60.0951 10.7875 60.2779C11.0322 60.4608 11.3396 60.5389 11.6419 60.4951C11.9443 60.4514 12.2169 60.2893 12.3997 60.0446C12.5826 59.7998 12.6607 59.4925 12.6169 59.1901C12.566 58.9368 12.5459 58.6783 12.5569 58.4201C12.5587 57.1635 12.9962 55.9464 13.7949 54.9763C14.5936 54.0062 15.7041 53.3431 16.9369 53.1001C17.1113 53.0626 17.2746 52.9849 17.4138 52.8734C17.553 52.7619 17.6644 52.6195 17.7391 52.4575C17.8137 52.2955 17.8497 52.1183 17.8442 51.94C17.8386 51.7617 17.7916 51.5872 17.7069 51.4301C17.3347 50.7746 17.1383 50.034 17.1369 49.2801C17.1369 48.1051 17.6016 46.9778 18.4297 46.1441C19.2578 45.3104 20.3819 44.8381 21.5569 44.8301C22.6694 44.8241 23.7423 45.2425 24.5569 46.0001C24.716 46.1354 24.9066 46.2283 25.1111 46.2703C25.3157 46.3122 25.5275 46.3019 25.7269 46.2401C25.9142 46.1564 26.077 46.026 26.1995 45.8614C26.3221 45.6968 26.4004 45.5036 26.4269 45.3001C26.7283 43.0701 27.865 41.0376 29.6074 39.6136C31.3498 38.1895 33.5679 37.4801 35.8133 37.6287C38.0587 37.7773 40.164 38.7728 41.7035 40.414C43.2431 42.0553 44.1021 44.2198 44.1069 46.4701C44.0925 47.0209 44.0323 47.5694 43.9269 48.1101C43.8985 48.2913 43.9138 48.4767 43.9716 48.6507C44.0294 48.8248 44.128 48.9825 44.2591 49.1107C44.3903 49.2389 44.5502 49.3339 44.7255 49.3877C44.9008 49.4415 45.0864 49.4527 45.2669 49.4201C46.2666 49.2072 47.2999 49.2068 48.2998 49.4191C49.2996 49.6314 50.2437 50.0515 51.0706 50.6523C51.8976 51.253 52.5889 52.021 53.0998 52.9063C53.6107 53.7915 53.9298 54.7744 54.0362 55.7909C54.1427 56.8075 54.0342 57.8351 53.7177 58.807C53.4013 59.7789 52.884 60.6734 52.1995 61.4325C51.5149 62.1915 50.6784 62.7981 49.7442 63.2129C48.81 63.6277 47.7991 63.8414 46.7769 63.8401H45.3769C45.0843 63.8428 44.8045 63.9609 44.5985 64.1688C44.3925 64.3767 44.2769 64.6575 44.2769 64.9501C44.2742 65.2464 44.388 65.532 44.5937 65.7452C44.7995 65.9584 45.0807 66.0823 45.3769 66.0901H46.7869C48.0593 66.0897 49.3188 65.8351 50.4914 65.3411C51.664 64.8471 52.726 64.1238 53.6152 63.2137C54.5043 62.3035 55.2026 61.2248 55.669 60.041C56.1355 58.8572 56.3606 57.5921 56.3313 56.3201C56.302 55.048 56.0188 53.7947 55.4983 52.6336C54.9778 51.4726 54.2306 50.4272 53.3004 49.559C52.3703 48.6908 51.2761 48.0171 50.082 47.5777C48.8879 47.1383 47.618 46.9419 46.3469 47.0001ZM24.5569 43.2901C23.6287 42.8164 22.599 42.5761 21.5569 42.5901C19.7947 42.6112 18.1115 43.3246 16.8709 44.5764C15.6303 45.8282 14.9321 47.5178 14.9269 49.2801C14.9192 49.9578 15.0171 50.6326 15.2169 51.2801C13.356 52.0185 11.8565 53.4535 11.0369 55.2801H10.0369C8.38199 55.2801 6.79482 54.6227 5.62459 53.4525C4.45437 52.2823 3.79694 50.6951 3.79694 49.0401C3.79694 47.3852 4.45437 45.798 5.62459 44.6278C6.79482 43.4576 8.38199 42.8001 10.0369 42.8001C10.4638 42.7959 10.8898 42.8395 11.3069 42.9301C11.4862 42.9589 11.6698 42.9459 11.8432 42.8921C12.0167 42.8384 12.1753 42.7453 12.3069 42.6201C12.4412 42.4944 12.5417 42.3369 12.5994 42.1622C12.657 41.9875 12.6699 41.8011 12.6369 41.6201C12.546 41.1591 12.5024 40.69 12.5069 40.2201C12.4822 38.3416 13.1551 36.5206 14.3955 35.1095C15.6358 33.6983 17.3555 32.7974 19.2217 32.5809C21.0879 32.3644 22.9682 32.8478 24.4986 33.9375C26.029 35.0272 27.1009 36.6458 27.5069 38.4801C26.1221 39.7997 25.1053 41.4576 24.5569 43.2901ZM35.2269 35.3501C33.1946 35.3485 31.2026 35.9167 29.4769 36.9901C28.7977 35.0515 27.5335 33.3715 25.8587 32.1822C24.1838 30.9928 22.1811 30.3526 20.1269 30.3501C18.8181 30.3485 17.5224 30.6104 16.3169 31.1201C16.3169 30.6501 16.2469 30.2201 16.2469 29.7801C16.1947 27.7334 16.5527 25.6969 17.2998 23.7906C18.047 21.8844 19.1682 20.147 20.5973 18.6809C22.0265 17.2147 23.7347 16.0495 25.6212 15.254C27.5078 14.4584 29.5345 14.0485 31.5819 14.0485C33.6294 14.0485 35.6561 14.4584 37.5426 15.254C39.4292 16.0495 41.1374 17.2147 42.5665 18.6809C43.9957 20.147 45.1169 21.8844 45.8641 23.7906C46.6112 25.6969 46.9692 27.7334 46.9169 29.7801C46.9202 33.1953 45.7479 36.5075 43.5969 39.1601C42.5593 37.9587 41.274 36.9962 39.8292 36.3385C38.3844 35.6808 36.8144 35.3436 35.2269 35.3501Z" fill="#BC2131"/>
<path d="M46.3469 47.0001C46.3469 46.8001 46.3469 46.6301 46.3469 46.4701C46.3454 44.5838 45.8636 42.7288 44.9469 41.0801C47.6573 37.9301 49.1539 33.9157 49.1669 29.7601C49.1669 25.0897 47.3116 20.6105 44.0091 17.308C40.7066 14.0055 36.2274 12.1501 31.5569 12.1501C26.8865 12.1501 22.4073 14.0055 19.1048 17.308C15.8023 20.6105 13.9469 25.0897 13.9469 29.7601C13.9604 30.6293 14.0473 31.4957 14.2069 32.3501C12.9693 33.2628 11.9627 34.4528 11.2681 35.8248C10.5734 37.1967 10.21 38.7124 10.2069 40.2501V40.5501C9.04369 40.4561 7.87352 40.6019 6.76898 40.9788C5.66444 41.3556 4.6491 41.9553 3.78592 42.7408C2.92274 43.5262 2.23012 44.4806 1.75102 45.5448C1.27193 46.609 1.01657 47.7602 1.00078 48.9272C0.984992 50.0941 1.20911 51.2518 1.65924 52.3286C2.10937 53.4053 2.77592 54.3781 3.61753 55.1866C4.45915 55.9951 5.4579 56.6221 6.55183 57.0287C7.64577 57.4352 8.81157 57.6127 9.97694 57.5501H10.3369C10.301 57.8388 10.281 58.1293 10.2769 58.4201C10.2769 58.7901 10.2769 59.1601 10.3369 59.5201C10.3807 59.8225 10.5428 60.0951 10.7875 60.2779C11.0322 60.4608 11.3396 60.5389 11.6419 60.4951C11.9443 60.4514 12.2169 60.2893 12.3997 60.0446C12.5826 59.7998 12.6607 59.4925 12.6169 59.1901C12.566 58.9368 12.5459 58.6783 12.5569 58.4201C12.5587 57.1635 12.9962 55.9464 13.7949 54.9763C14.5936 54.0062 15.7041 53.3431 16.9369 53.1001C17.1113 53.0626 17.2746 52.9849 17.4138 52.8734C17.553 52.7619 17.6644 52.6195 17.7391 52.4575C17.8137 52.2955 17.8497 52.1183 17.8442 51.94C17.8386 51.7617 17.7916 51.5872 17.7069 51.4301C17.3347 50.7746 17.1383 50.034 17.1369 49.2801C17.1369 48.1051 17.6016 46.9778 18.4297 46.1441C19.2578 45.3104 20.3819 44.8381 21.5569 44.8301C22.6694 44.8241 23.7423 45.2425 24.5569 46.0001C24.716 46.1354 24.9066 46.2283 25.1111 46.2703C25.3157 46.3122 25.5275 46.3019 25.7269 46.2401C25.9142 46.1564 26.077 46.026 26.1995 45.8614C26.3221 45.6968 26.4004 45.5036 26.4269 45.3001C26.7283 43.0701 27.865 41.0376 29.6074 39.6136C31.3498 38.1895 33.5679 37.4801 35.8133 37.6287C38.0587 37.7773 40.164 38.7728 41.7035 40.414C43.2431 42.0553 44.1021 44.2198 44.1069 46.4701C44.0925 47.0209 44.0323 47.5694 43.9269 48.1101C43.8985 48.2913 43.9138 48.4767 43.9716 48.6507C44.0294 48.8248 44.128 48.9825 44.2591 49.1107C44.3903 49.2389 44.5502 49.3339 44.7255 49.3877C44.9008 49.4415 45.0864 49.4527 45.2669 49.4201C46.2666 49.2072 47.2999 49.2068 48.2998 49.4191C49.2996 49.6314 50.2437 50.0515 51.0706 50.6523C51.8976 51.253 52.5889 52.021 53.0998 52.9063C53.6107 53.7915 53.9298 54.7744 54.0362 55.7909C54.1427 56.8075 54.0342 57.8351 53.7177 58.807C53.4013 59.7789 52.884 60.6734 52.1995 61.4325C51.5149 62.1915 50.6784 62.7981 49.7442 63.2129C48.81 63.6277 47.7991 63.8414 46.7769 63.8401H45.3769C45.0843 63.8428 44.8045 63.9609 44.5985 64.1688C44.3925 64.3767 44.2769 64.6575 44.2769 64.9501C44.2742 65.2464 44.388 65.532 44.5937 65.7452C44.7995 65.9584 45.0807 66.0823 45.3769 66.0901H46.7869C48.0593 66.0897 49.3188 65.8351 50.4914 65.3411C51.664 64.8471 52.726 64.1238 53.6152 63.2137C54.5043 62.3035 55.2026 61.2248 55.669 60.041C56.1355 58.8572 56.3606 57.5921 56.3313 56.3201C56.302 55.048 56.0188 53.7947 55.4983 52.6336C54.9778 51.4726 54.2306 50.4272 53.3004 49.559C52.3703 48.6908 51.2761 48.0171 50.082 47.5777C48.8879 47.1383 47.618 46.9419 46.3469 47.0001ZM24.5569 43.2901C23.6287 42.8164 22.599 42.5761 21.5569 42.5901C19.7947 42.6112 18.1115 43.3246 16.8709 44.5764C15.6303 45.8282 14.9321 47.5178 14.9269 49.2801C14.9192 49.9578 15.0171 50.6326 15.2169 51.2801C13.356 52.0185 11.8565 53.4535 11.0369 55.2801H10.0369C8.38199 55.2801 6.79482 54.6227 5.62459 53.4525C4.45437 52.2823 3.79694 50.6951 3.79694 49.0401C3.79694 47.3852 4.45437 45.798 5.62459 44.6278C6.79482 43.4576 8.38199 42.8001 10.0369 42.8001C10.4638 42.7959 10.8898 42.8395 11.3069 42.9301C11.4862 42.9589 11.6698 42.9459 11.8432 42.8921C12.0167 42.8384 12.1753 42.7453 12.3069 42.6201C12.4412 42.4944 12.5417 42.3369 12.5994 42.1622C12.657 41.9875 12.6699 41.8011 12.6369 41.6201C12.546 41.1591 12.5024 40.69 12.5069 40.2201C12.4822 38.3416 13.1551 36.5206 14.3955 35.1095C15.6358 33.6983 17.3555 32.7974 19.2217 32.5809C21.0879 32.3644 22.9682 32.8478 24.4986 33.9375C26.029 35.0272 27.1009 36.6458 27.5069 38.4801C26.1221 39.7997 25.1053 41.4576 24.5569 43.2901ZM35.2269 35.3501C33.1946 35.3485 31.2026 35.9167 29.4769 36.9901C28.7977 35.0515 27.5335 33.3715 25.8587 32.1822C24.1838 30.9928 22.1811 30.3526 20.1269 30.3501C18.8181 30.3485 17.5224 30.6104 16.3169 31.1201C16.3169 30.6501 16.2469 30.2201 16.2469 29.7801C16.1947 27.7334 16.5527 25.6969 17.2998 23.7906C18.047 21.8844 19.1682 20.147 20.5973 18.6809C22.0265 17.2147 23.7347 16.0495 25.6212 15.254C27.5078 14.4584 29.5345 14.0485 31.5819 14.0485C33.6294 14.0485 35.6561 14.4584 37.5426 15.254C39.4292 16.0495 41.1374 17.2147 42.5665 18.6809C43.9957 20.147 45.1169 21.8844 45.8641 23.7906C46.6112 25.6969 46.9692 27.7334 46.9169 29.7801C46.9202 33.1953 45.7479 36.5075 43.5969 39.1601C42.5593 37.9587 41.274 36.9962 39.8292 36.3385C38.3844 35.6808 36.8144 35.3436 35.2269 35.3501Z" stroke="#BC2131" stroke-width="0.6" mask="url(#path-9-outside-1)"/>
<path d="M8.68172 67.2432L8.6817 67.2432L8.68004 67.2449C8.50237 67.4252 8.38169 67.6539 8.33304 67.9023C8.28438 68.1507 8.3099 68.408 8.40641 68.642C8.50291 68.8761 8.66615 69.0765 8.87578 69.2184C9.08447 69.3597 9.32995 69.4368 9.58189 69.4401C9.75273 69.4492 9.92346 69.4201 10.0816 69.3549C10.2394 69.2898 10.3808 69.1904 10.4954 69.0639L12.9023 66.6869L12.9023 66.6869L12.904 66.6852C13.1422 66.4422 13.2756 66.1155 13.2756 65.7752C13.2756 65.4352 13.1425 65.1088 12.9047 64.8659C12.7872 64.7431 12.6459 64.6456 12.4895 64.5793C12.3327 64.5128 12.164 64.4791 11.9938 64.4802C11.8236 64.4812 11.6553 64.517 11.4994 64.5854C11.3445 64.6534 11.2051 64.752 11.0895 64.8754L8.68172 67.2432Z" fill="#BC2131" stroke="#BC2131" stroke-width="0.3"/>
<path d="M3.19714 75.8202C3.36689 75.8221 3.5352 75.7887 3.69145 75.7223C3.84741 75.656 3.98799 75.5582 4.10437 75.4351L6.51246 73.0569L6.513 73.0564C6.63218 72.9375 6.72675 72.7963 6.79127 72.6408C6.85579 72.4853 6.889 72.3186 6.889 72.1502C6.889 71.9819 6.85579 71.8152 6.79127 71.6597C6.72675 71.5042 6.63218 71.3629 6.513 71.244L6.513 71.244L6.51206 71.2431C6.26905 71.0049 5.94234 70.8715 5.60206 70.8715C5.26178 70.8715 4.93507 71.0049 4.69206 71.2431L4.69205 71.2431L4.69099 71.2442L2.28099 73.6542L2.28099 73.6542L2.28007 73.6551C2.04669 73.8926 1.91592 74.2122 1.91592 74.5452C1.91592 74.8778 2.04641 75.1972 2.27934 75.4346C2.39785 75.5584 2.54055 75.6566 2.69859 75.7229C2.85637 75.7891 3.02605 75.8222 3.19714 75.8202ZM3.19714 75.8202C3.1965 75.8202 3.19586 75.8202 3.19521 75.8202L3.19706 75.6702L3.19906 75.8202C3.19842 75.8202 3.19778 75.8202 3.19714 75.8202Z" fill="#BC2131" stroke="#BC2131" stroke-width="0.3"/>
<path d="M19.3031 60.2661L19.3034 60.2657C19.4224 60.1461 19.5166 60.0041 19.5807 59.848C19.6448 59.6919 19.6775 59.5247 19.6769 59.356C19.6764 59.1873 19.6427 59.0203 19.5776 58.8646C19.5125 58.7089 19.4175 58.5676 19.2978 58.4486C19.1781 58.3297 19.0361 58.2355 18.8801 58.1714C18.724 58.1073 18.5568 58.0746 18.388 58.0751C18.2193 58.0756 18.0523 58.1094 17.8966 58.1744C17.7409 58.2395 17.5996 58.3346 17.4806 58.4543L17.4805 58.4544L15.1026 60.8523C14.978 60.9689 14.8786 61.1097 14.8105 61.2662C14.742 61.4236 14.7067 61.5934 14.7067 61.765C14.7067 61.9367 14.742 62.1065 14.8105 62.2638C14.8781 62.4192 14.9766 62.5591 15.0999 62.6752C15.2155 62.8025 15.3582 62.9023 15.5175 62.9672C15.6767 63.032 15.8484 63.0604 16.0199 63.0501C16.1838 63.0536 16.3466 63.022 16.4974 62.9574C16.649 62.8924 16.7849 62.7956 16.8958 62.6734L19.3031 60.2661Z" fill="#BC2131" stroke="#BC2131" stroke-width="0.3"/>
<path d="M23.5922 64.5869L23.5922 64.5869L23.5932 64.5859L25.9606 62.2085C26.0864 62.0937 26.1869 61.9541 26.2559 61.7984C26.3255 61.6414 26.3614 61.4717 26.3614 61.3001C26.3614 61.1285 26.3255 60.9587 26.2559 60.8018C26.187 60.6462 26.0865 60.5067 25.9609 60.3919C25.8452 60.2748 25.7074 60.1818 25.5556 60.118C25.4025 60.0538 25.238 60.0207 25.0719 60.0207C24.9058 60.0207 24.7414 60.0538 24.5882 60.118C24.4352 60.1823 24.2965 60.2763 24.1802 60.3947C24.1801 60.3948 24.18 60.3949 24.1799 60.395L21.821 62.7739C21.8209 62.774 21.8208 62.7741 21.8207 62.7742C21.7016 62.893 21.6072 63.0342 21.5427 63.1895C21.4782 63.345 21.445 63.5117 21.445 63.6801C21.445 63.8484 21.4782 64.0151 21.5427 64.1706C21.607 64.3256 21.7011 64.4664 21.8197 64.585C21.9368 64.7072 22.0775 64.8043 22.2332 64.8705C22.3895 64.9369 22.5577 64.9708 22.7276 64.9701L22.7276 64.9704L22.7364 64.9698C23.0585 64.9494 23.3623 64.8134 23.5922 64.5869Z" fill="#BC2131" stroke="#BC2131" stroke-width="0.3"/>
<path d="M27.4109 57.174L27.4109 57.174L27.4098 57.1751C27.1717 57.4181 27.0382 57.7448 27.0382 58.0851C27.0382 58.4253 27.1717 58.752 27.4098 58.9951L27.4096 58.9953L27.4172 59.002C27.6641 59.2221 27.9785 59.3518 28.3088 59.3698L28.3087 59.3704L28.3223 59.37C28.6583 59.3581 28.9793 59.2273 29.2279 59.001L29.228 59.0011L29.233 58.9961L31.6403 56.5888C31.7691 56.4722 31.8729 56.3307 31.9456 56.1729C32.0189 56.0139 32.0591 55.8417 32.0637 55.6666C32.0682 55.4916 32.0371 55.3175 31.9723 55.1549C31.9074 54.9923 31.8101 54.8446 31.6863 54.7208C31.5625 54.597 31.4148 54.4996 31.2521 54.4348C31.0895 54.3699 30.9154 54.3388 30.7404 54.3434C30.5654 54.3479 30.3931 54.3881 30.2341 54.4614C30.0763 54.5341 29.9349 54.638 29.8182 54.7667L27.4109 57.174Z" fill="#BC2131" stroke="#BC2131" stroke-width="0.3"/>
<path d="M20.3758 65.987L20.3759 65.9869L20.372 65.9831C20.129 65.7449 19.8023 65.6115 19.462 65.6115C19.1217 65.6115 18.795 65.7449 18.552 65.9831L18.552 65.9831L18.5509 65.9841L16.141 68.394C16.141 68.394 16.141 68.3941 16.141 68.3941C16.0218 68.513 15.9273 68.6542 15.8628 68.8097C15.7983 68.9652 15.765 69.1319 15.765 69.3002C15.765 69.4686 15.7983 69.6353 15.8628 69.7908C15.9273 69.9463 16.0219 70.0875 16.141 70.2064L16.141 70.2065L16.1453 70.2105C16.393 70.4389 16.713 70.5732 17.0495 70.59L17.0495 70.5903L17.058 70.5902C17.227 70.589 17.3941 70.5544 17.5496 70.4883C17.7049 70.4223 17.8455 70.3263 17.9635 70.2058L20.3728 67.8065L20.3729 67.8065L20.3758 67.8034C20.6083 67.5582 20.7379 67.2331 20.7379 66.8952C20.7379 66.5573 20.6083 66.2322 20.3758 65.987Z" fill="#BC2131" stroke="#BC2131" stroke-width="0.3"/>
<path d="M34.1041 62.6753L34.1038 62.6755C33.9853 62.7956 33.8438 62.8906 33.6878 62.955C33.5328 63.0189 33.3666 63.0513 33.199 63.0502C33.1979 63.0502 33.1968 63.0502 33.1957 63.0501L33.1971 62.9001L34.1041 62.6753ZM34.1041 62.6753L36.4712 60.2683M34.1041 62.6753L36.4712 60.2683M36.4712 60.2683C36.5968 60.1535 36.6972 60.014 36.7661 59.8584C36.8357 59.7015 36.8716 59.5318 36.8716 59.3601C36.8716 59.1885 36.8357 59.0188 36.7661 58.8619C36.6972 58.7063 36.5967 58.5667 36.4711 58.452C36.3554 58.3349 36.2177 58.2418 36.0658 58.1781C35.9127 58.1138 35.7482 58.0807 35.5821 58.0807C35.416 58.0807 35.2516 58.1138 35.0984 58.1781C34.9455 58.2423 34.8069 58.3362 34.6907 58.4544L36.4712 60.2683Z" fill="#BC2131" stroke="#BC2131" stroke-width="0.3"/>
<path d="M27.7025 69.0668L27.703 69.0662L30.083 66.6862L30.0831 66.6863L30.0858 66.6834C30.3183 66.4382 30.4479 66.1131 30.4479 65.7752C30.4479 65.4373 30.3183 65.1122 30.0858 64.867L30.0851 64.8662C29.9666 64.743 29.8243 64.6451 29.6668 64.5786C29.5093 64.5121 29.3399 64.4784 29.1689 64.4794C28.9979 64.4805 28.829 64.5163 28.6723 64.5848C28.5164 64.6529 28.3759 64.7519 28.2593 64.8758L25.8938 67.2413C25.7663 67.3561 25.6642 67.4964 25.5941 67.653C25.5235 67.811 25.487 67.9821 25.487 68.1552C25.487 68.3282 25.5235 68.4994 25.5941 68.6573C25.6637 68.8128 25.7647 68.9522 25.8909 69.0665C26.0051 69.1917 26.1455 69.2902 26.3022 69.3549C26.4602 69.42 26.6307 69.4492 26.8013 69.4402C27.139 69.4385 27.4625 69.3044 27.7025 69.0668Z" fill="#BC2131" stroke="#BC2131" stroke-width="0.3"/>
<path d="M19.4608 73.6541L19.4608 73.6541L20.3669 75.6702L20.3618 75.8201C20.3622 75.8201 20.3627 75.8201 20.3632 75.8201C20.5359 75.8258 20.7079 75.7941 20.8672 75.7273C21.0259 75.6607 21.1684 75.5607 21.285 75.4342L23.6825 73.0567L23.683 73.0562C23.9233 72.8159 24.0583 72.49 24.0583 72.1502C24.0583 71.8103 23.9233 71.4844 23.683 71.2441C23.4427 71.0038 23.1167 70.8688 22.7769 70.8688C22.4371 70.8688 22.1111 71.0038 21.8708 71.2441L19.4608 73.6541Z" fill="#BC2131" stroke="#BC2131" stroke-width="0.3"/>
<path d="M38.9418 62.7732L38.9418 62.7732L38.9393 62.7758C38.7044 63.0183 38.5731 63.3426 38.5731 63.6802C38.5731 64.0177 38.7044 64.342 38.9393 64.5845L38.9392 64.5845L38.9413 64.5865C39.1817 64.8255 39.5049 64.9629 39.8438 64.9701L39.8438 64.9701L39.8462 64.9701C40.0173 64.9711 40.187 64.9374 40.3448 64.8712C40.5021 64.8051 40.6445 64.7081 40.7635 64.5858L43.1724 62.2069L43.1724 62.2069L43.1748 62.2045C43.4096 61.962 43.5409 61.6377 43.5409 61.3001C43.5409 60.9626 43.4096 60.6383 43.1748 60.3958L43.1748 60.3958L43.1732 60.3942C43.0543 60.275 42.9131 60.1805 42.7576 60.1159C42.6021 60.0514 42.4354 60.0182 42.267 60.0182C42.0987 60.0182 41.932 60.0514 41.7765 60.1159C41.6212 60.1804 41.4801 60.2748 41.3613 60.3937L38.9418 62.7732Z" fill="#BC2131" stroke="#BC2131" stroke-width="0.3"/>
<path d="M45.4393 59.3698L45.4393 59.3701L45.4485 59.37C45.7864 59.367 46.1101 59.2335 46.3519 58.9974L46.3519 58.9974L46.3532 58.9961L48.7632 56.5861L48.7632 56.5861L48.7642 56.585C49.0024 56.342 49.1359 56.0153 49.1359 55.675C49.1359 55.3347 49.0024 55.008 48.7642 54.765L48.7643 54.765L48.7603 54.7612C48.5151 54.5287 48.19 54.3991 47.8521 54.3991C47.5142 54.3991 47.1891 54.5287 46.9439 54.7612L46.9439 54.7611L46.9411 54.764L44.5311 57.174L44.531 57.1739L44.5283 57.1768C44.2958 57.422 44.1662 57.7471 44.1662 58.085C44.1662 58.423 44.2958 58.748 44.5283 58.9932L44.5278 58.9937L44.538 59.0026C44.7885 59.2231 45.1061 59.3525 45.4393 59.3698Z" fill="#BC2131" stroke="#BC2131" stroke-width="0.3"/>
<path d="M33.351 70.2064L33.351 70.2064L33.3526 70.208C33.5975 70.4449 33.9224 70.5813 34.2631 70.5901L34.263 70.5907L34.2757 70.5899C34.6083 70.5706 34.9239 70.4364 35.1687 70.2104L35.1688 70.2105L35.1734 70.2058L37.5496 67.8097C37.6795 67.6959 37.7851 67.557 37.8599 67.4012C37.9356 67.2438 37.9783 67.0725 37.9852 66.898C37.9922 66.7234 37.9634 66.5493 37.9006 66.3863C37.8377 66.2233 37.7422 66.0749 37.6198 65.9503C37.4975 65.8256 37.3509 65.7273 37.1891 65.6614C37.0273 65.5955 36.8538 65.5634 36.6791 65.5671C36.5045 65.5708 36.3325 65.6102 36.1736 65.6829C36.016 65.755 35.8747 65.8584 35.7582 65.9868L33.351 68.394C33.351 68.394 33.3509 68.3941 33.3509 68.3941C33.2318 68.513 33.1372 68.6542 33.0727 68.8096C33.0082 68.9651 32.975 69.1318 32.975 69.3002C32.975 69.4686 33.0082 69.6353 33.0727 69.7907C33.1373 69.9462 33.2318 70.0875 33.351 70.2064Z" fill="#BC2131" stroke="#BC2131" stroke-width="0.3"/>
</svg>
