<svg width="39" height="13" viewBox="0 0 39 13" fill="none" xmlns="http://www.w3.org/2000/svg">
    <path d="M37.714 0H33.6a.685.685 0 0 0-.485.2l-1.17 1.171H6.455L5.285.201A.686.686 0 0 0 4.8 0H.686a.64.64 0 0 0-.108.022A.677.677 0 0 0 0 .686C0 .91.022 6.219 1.946 10.39a3.405 3.405 0 0 0 3.096 1.952h28.316a3.404 3.404 0 0 0 3.096-1.952C38.378 6.219 38.4.91 38.4.686A.686.686 0 0 0 37.714 0zM35.21 9.816a2.03 2.03 0 0 1-1.851 1.155H5.042a2.029 2.029 0 0 1-1.851-1.155C1.78 6.756 1.464 2.907 1.393 1.371h3.123l1.17 1.17c.13.13.304.202.485.202H32.23a.686.686 0 0 0 .484-.201l1.171-1.17h3.123c-.07 1.535-.387 5.384-1.798 8.444zM6.857 4.114a2.743 2.743 0 1 0 0 5.486 2.743 2.743 0 0 0 0-5.486zm0 4.115a1.371 1.371 0 1 1 0-2.743 1.371 1.371 0 0 1 0 2.743zm24.686-4.115a2.743 2.743 0 1 0 0 5.486 2.743 2.743 0 0 0 0-5.486zm0 4.115a1.372 1.372 0 1 1 0-2.744 1.372 1.372 0 0 1 0 2.744zm-4.8-4.115H11.657a.686.686 0 0 0-.65.903l1.371 4.114a.686.686 0 0 0 .65.469h12.343a.685.685 0 0 0 .65-.469l1.372-4.114a.685.685 0 0 0-.65-.903zM24.877 8.23H13.523l-.915-2.743h13.183l-.914 2.743z" fill="#fff"/>
</svg>
