<svg width="82" height="66" viewBox="0 0 82 66" fill="none" xmlns="http://www.w3.org/2000/svg">
    <path d="M74.313 43.078h-6.407a1.28 1.28 0 0 0-1.281 1.281v6.407a1.281 1.281 0 0 0 1.281 1.28h6.406a1.281 1.281 0 0 0 1.282-1.28v-6.407a1.281 1.281 0 0 0-1.281-1.28zm-1.282 6.406h-3.844v-3.843h3.844v3.843z" fill="#BC2131"/>
    <path d="M14.734 43.078H8.328a1.281 1.281 0 0 0-1.281 1.281v6.407a1.281 1.281 0 0 0 1.281 1.28h6.406a1.281 1.281 0 0 0 1.282-1.28v-6.407a1.282 1.282 0 0 0-1.282-1.28zm-1.28 6.406H9.608v-3.843h3.844v3.843z" fill="#BC2131"/>
    <path d="M67.753 23.071a1.281 1.281 0 0 0 .083-1.031c-2.05-5.855-7.335-13.453-7.527-13.697C58.617 5.678 47.489 5.281 41 5.281c-6.49 0-17.617.397-19.276 3.011-.224.32-5.51 7.893-7.56 13.748a1.28 1.28 0 0 0 .788 1.634c.596.185 10.122 3.389 25.094 3.389a110.36 110.36 0 0 0 26.906-3.383 1.28 1.28 0 0 0 .8-.609zm-50.687-1.435c2.204-5.342 6.708-11.8 6.759-11.87.756-.776 6.74-1.922 17.175-1.922 10.436 0 16.42 1.14 17.175 1.922.052.07 4.517 6.476 6.733 11.8-24.241 5.753-42.928 1.441-47.842.07z" fill="#BC2131"/>
    <path d="M79.316 12.969h-4.882a2.684 2.684 0 0 0-2.684 2.684v.186c.002.834.223 1.654.64 2.376l-.352.353c-2.774-6.656-8.001-14.216-8.206-14.523C61.807.842 47.176.477 41.012.477 34.85.477 20.206.797 18.22 4c-.237.333-5.125 7.36-7.93 13.825l-.32-.372a4.785 4.785 0 0 0 .281-1.614v-.186a2.684 2.684 0 0 0-2.684-2.684H2.684A2.685 2.685 0 0 0 0 15.653v.186a4.824 4.824 0 0 0 4.817 4.817h.641A4.792 4.792 0 0 0 8.463 19.6l.64.756a23.857 23.857 0 0 0-7.822 18.88c.385 9.654 1.922 14.862 2.563 16.7v5.766A3.8 3.8 0 0 0 7.636 65.5h3.946a3.799 3.799 0 0 0 3.793-3.792v-4.216h.686a1.281 1.281 0 0 0 .96-.435l1.224-1.378h45.484l1.224 1.378a1.281 1.281 0 0 0 .96.435h.712v4.216a3.799 3.799 0 0 0 3.793 3.792h3.946a3.799 3.799 0 0 0 3.792-3.792v-5.766c.64-1.839 2.16-7.047 2.563-16.701a23.941 23.941 0 0 0-7.297-18.457l.769-.768a4.778 4.778 0 0 0 2.376.64h.641A4.824 4.824 0 0 0 82 15.84v-.186a2.684 2.684 0 0 0-2.684-2.684zm-71.629 2.87a2.255 2.255 0 0 1-2.255 2.255h-.64a2.256 2.256 0 0 1-2.23-2.255v-.186a.122.122 0 0 1 .122-.122h4.882a.122.122 0 0 1 .122.122v.186zm3.53 6.098c.2-.154.351-.363.436-.602v-.07c.115-.333.243-.64.378-1.012 2.562-6.535 8.206-14.696 8.29-14.818.82-.974 7.937-2.396 20.679-2.396 12.742 0 19.86 1.422 20.68 2.422.063.09 6.342 9.173 8.667 15.862.085.238.236.447.436.602a15.602 15.602 0 0 1 2.21 2.159c-32.198 12.812-58.15 2.665-63.986 0a15.617 15.617 0 0 1 2.21-2.146zm10.654 8.97A86.41 86.41 0 0 0 40.59 32.95a88.088 88.088 0 0 0 18.232-1.922 5.426 5.426 0 0 0-.256 2.402c.122.907.458 1.773.98 2.524l-2.409.718c-7.924 2.274-15.375 4.42-28.155 1.025a152.634 152.634 0 0 0-8.034-1.922 5.457 5.457 0 0 0 1.115-2.44 4.952 4.952 0 0 0-.192-2.429zM7.425 26.177a67.054 67.054 0 0 0 11.025 3.908l.038.058c.827.974 1.18 1.922 1.045 2.729a3.844 3.844 0 0 1-1.647 2.28c-.64-.121-1.326-.23-1.96-.332-6.233-.968-9.789-.782-11.775-.372a21.27 21.27 0 0 1 3.274-8.27zm5.388 35.53a1.23 1.23 0 0 1-1.23 1.23H7.635a1.23 1.23 0 0 1-1.23-1.23v-4.216h6.407v4.216zm62.78 0a1.23 1.23 0 0 1-1.23 1.23h-3.945a1.23 1.23 0 0 1-1.23-1.23v-4.216h6.406v4.216zm2.563-22.544c-.359 9.026-1.736 13.998-2.338 15.766h-9.302l-1.224-1.384a1.282 1.282 0 0 0-.954-.43H17.662a1.284 1.284 0 0 0-.954.43l-1.224 1.384H6.2c-.602-1.775-1.98-6.727-2.357-15.766v-1.986c.98-.34 4.074-1 11.665.18 4.317.709 8.593 1.641 12.813 2.793a50.366 50.366 0 0 0 13.069 1.844c6.406 0 11.486-1.454 16.451-2.882a73.28 73.28 0 0 1 11.679-2.646 46.118 46.118 0 0 1 8.546-.224c.09.97.12 1.946.09 2.92zm-3.549-12.966a21.27 21.27 0 0 1 3.107 7.456 48.42 48.42 0 0 0-8.475.27 56.77 56.77 0 0 0-6.957 1.326 3.703 3.703 0 0 1-1.16-2.134 3.844 3.844 0 0 1 1.019-2.85 93.888 93.888 0 0 0 12.447-4.068h.02zm4.83-10.36a2.255 2.255 0 0 1-2.254 2.256h-.641a2.256 2.256 0 0 1-2.23-2.255v-.186a.121.121 0 0 1 .122-.122h4.882a.122.122 0 0 1 .121.122v.186z" fill="#BC2131"/>
    <path d="M61.18 46.203H20.82a1.281 1.281 0 0 0 0 2.563h40.36a1.282 1.282 0 0 0 0-2.563z" fill="#BC2131"/>
</svg>
