<svg width="39" height="21" viewBox="0 0 39 21" fill="none" xmlns="http://www.w3.org/2000/svg">
    <path fill-rule="evenodd" clip-rule="evenodd" d="M4.429 21a3 3 0 0 1-2.987-2.716l-1.428-15A3 3 0 0 1 3 0h32.402a3 3 0 0 1 2.986 3.284l-1.428 15A3 3 0 0 1 33.973 21H4.43zM28.786 1H9.616a1.5 1.5 0 1 1-2.83 0H3a2 2 0 0 0-1.99 2.19l1.428 15A2 2 0 0 0 4.428 20h2.358a1.5 1.5 0 1 1 2.83 0h19.17a1.5 1.5 0 1 1 2.83 0h2.357a2 2 0 0 0 1.991-1.81l1.429-15A2 2 0 0 0 35.402 1h-3.786a1.5 1.5 0 1 1-2.83 0z" fill="#fff"/>
</svg>
