<svg width="75" height="40" viewBox="0 0 75 40" fill="none" xmlns="http://www.w3.org/2000/svg">
    <path d="M37.5 0C16.785 0 0 8.735 0 19.526 0 30.3 16.785 39.053 37.5 39.053c20.7 0 37.5-8.735 37.5-19.527C75 8.736 58.2 0 37.5 0z" fill="#58595B"/>
    <path d="M37.507 0C16.788 0 0 8.74 0 19.535c0 10.779 16.788 19.518 37.492 19.518 20.705 0 37.508-8.74 37.508-19.52C75 8.738 58.212 0 37.507 0z" fill="#595A5C"/>
    <path d="M37.5 0C16.792 0 0 8.746 0 19.528 0 30.31 16.792 39.053 37.5 39.053S75 30.31 75 19.525C75 8.745 58.208 0 37.5 0z" fill="#5A5B5D"/>
    <path d="M37.5 0C16.792 0 0 8.746 0 19.528 0 30.31 16.792 39.053 37.5 39.053S75 30.31 75 19.525C75 8.745 58.208 0 37.5 0z" fill="#5B5C5E"/>
    <path d="M37.5 0C16.792 0 0 8.746 0 19.528 0 30.31 16.792 39.053 37.5 39.053S75 30.31 75 19.525C75 8.745 58.208 0 37.5 0z" fill="#5C5C5F"/>
    <path d="M37.507 0C16.795 0 0 8.746 0 19.528 0 30.31 16.795 39.053 37.492 39.053 58.205 39.053 75 30.31 75 19.525 75 8.74 58.22 0 37.507 0z" fill="#5C5D60"/>
    <path d="M37.5 0C16.782 0 0 8.749 0 19.535c0 10.787 16.8 19.518 37.5 19.518 20.718 0 37.5-8.746 37.5-19.518C75 8.75 58.218 0 37.5 0z" fill="#5D5E60"/>
    <path d="M37.5 0C16.782 0 0 8.735 0 19.526c0 10.792 16.782 19.527 37.5 19.527S75 30.303 75 19.526C75 8.735 58.203 0 37.5 0z" fill="#5E5F61"/>
    <path d="M37.5 0C16.797 0 0 8.735 0 19.526c0 10.777 16.782 19.527 37.5 19.527 20.703 0 37.5-8.735 37.5-19.527C75 8.735 58.203 0 37.5 0z" fill="#5F6062"/>
    <path d="M37.492 0C16.785 0 0 8.75 0 19.526c0 10.777 16.785 19.527 37.492 19.527C58.2 39.053 75 30.318 75 19.526 75 8.75 58.2 0 37.492 0z" fill="#606163"/>
    <path d="M37.5 0C16.788 0 0 8.742 0 19.526c0 10.785 16.788 19.527 37.5 19.527 20.711 0 37.5-8.742 37.5-19.527C75 8.742 58.21 0 37.5 0z" fill="#616264"/>
    <path d="M37.5 0C16.788 0 0 8.742 0 19.526c0 10.785 16.788 19.527 37.5 19.527 20.711 0 37.5-8.742 37.5-19.527C75 8.742 58.21 0 37.5 0z" fill="#616265"/>
    <path d="M37.5 0C16.788 0 0 8.742 0 19.526c0 10.785 16.788 19.527 37.5 19.527 20.711 0 37.5-8.742 37.5-19.527C75 8.742 58.21 0 37.5 0z" fill="#626366"/>
    <path d="M37.492 0C16.777 0 0 8.742 0 19.526c0 10.785 16.795 19.527 37.492 19.527C58.208 39.053 75 30.31 75 19.526 75 8.742 58.208 0 37.492 0z" fill="#636467"/>
    <path d="M37.5 0C16.798 0 0 8.745 0 19.534s16.795 19.519 37.5 19.519c20.72 0 37.5-8.73 37.5-19.52C75 8.746 58.22 0 37.5 0z" fill="#646567"/>
    <path d="M37.5 0C16.798 0 0 8.733 0 19.526s16.795 19.527 37.5 19.527S75 30.319 75 19.526C75 8.733 58.202 0 37.5 0z" fill="#656668"/>
    <path d="M37.5 0C16.798 0 0 8.751 0 19.526c0 10.776 16.795 19.527 37.5 19.527S75 30.305 75 19.526C75 8.748 58.202 0 37.5 0z" fill="#656769"/>
    <path d="M37.49 0C16.785 0 0 8.751 0 19.526c0 10.776 16.784 19.527 37.49 19.527 20.708 0 37.51-8.748 37.51-19.527C75 8.748 58.198 0 37.49 0z" fill="#66686A"/>
    <path d="M37.49 0C16.785 0 0 8.751 0 19.526c0 10.776 16.784 19.527 37.49 19.527 20.708 0 37.51-8.748 37.51-19.527C75 8.748 58.198 0 37.49 0z" fill="#67686B"/>
    <path d="M37.5 0C16.788 0 0 8.741 0 19.526s16.788 19.527 37.5 19.527S75 30.31 75 19.526 58.212 0 37.5 0z" fill="#68696C"/>
    <path d="M37.485 0C16.788 0 0 8.741 0 19.526s16.788 19.527 37.5 19.527S75 30.31 75 19.526C74.985 8.741 58.197 0 37.485 0z" fill="#696A6C"/>
    <path d="M37.492 0C16.792 0 0 8.741 0 19.526s16.792 19.527 37.492 19.527C58.208 39.053 75 30.31 75 19.526S58.208 0 37.492 0z" fill="#696B6D"/>
    <path d="M37.5 0C16.795 0 0 8.745 0 19.534s16.795 19.519 37.5 19.519S75 30.308 75 19.533C75.015 8.746 58.22 0 37.5 0z" fill="#6A6C6E"/>
    <path d="M37.5 0C16.795 0 0 8.748 0 19.526c0 10.779 16.795 19.527 37.5 19.527S75 30.305 75 19.526C75 8.748 58.22 0 37.5 0z" fill="#6B6C6F"/>
    <path d="M37.485 0C16.78 0 0 8.748 0 19.526c0 10.779 16.795 19.527 37.5 19.527S75 30.305 75 19.526C74.985 8.748 58.19 0 37.485 0z" fill="#6C6D70"/>
    <path d="M37.492 0C16.783 0 0 8.748 0 19.526c0 10.779 16.783 19.527 37.492 19.527C58.202 39.053 75 30.305 75 19.526 75 8.748 58.202 0 37.492 0z" fill="#6D6E70"/>
    <path d="M37.5 0C16.787 0 0 8.733 0 19.526c0 10.779 16.787 19.527 37.5 19.527S75 30.305 75 19.526C75.015 8.748 58.213 0 37.5 0z" fill="#6D6F71"/>
    <path d="M37.5 0C16.787 0 0 8.74 0 19.528c0 10.787 16.787 19.525 37.5 19.525S75 30.315 75 19.528C75 8.74 58.213 0 37.5 0z" fill="#6E7072"/>
    <path d="M37.5 0C16.787 0 0 8.74 0 19.528c0 10.787 16.787 19.525 37.5 19.525S75 30.315 75 19.528C75 8.74 58.213 0 37.5 0z" fill="#6F7073"/>
    <path d="M37.49 0C16.79 0 0 8.74 0 19.528c0 10.787 16.79 19.525 37.49 19.525 20.701 0 37.51-8.738 37.51-19.525C75 8.74 58.21 0 37.49 0z" fill="#707174"/>
    <path d="M37.5 0C16.795 0 0 8.756 0 19.528 0 30.3 16.795 39.053 37.5 39.053S75 30.315 75 19.528C75.018 8.756 58.223 0 37.5 0z" fill="#707274"/>
    <path d="M37.5 0C16.78 0 0 8.745 0 19.526c0 10.782 16.795 19.527 37.5 19.527S75 30.308 75 19.526C75 8.745 58.208 0 37.5 0z" fill="#717375"/>
    <path d="M37.5 0C16.795 0 0 8.745 0 19.526c0 10.782 16.795 19.527 37.5 19.527S75 30.308 75 19.526C74.985 8.745 58.208 0 37.5 0z" fill="#727476"/>
    <path d="M37.507 0C16.798 0 0 8.745 0 19.526c0 10.782 16.78 19.527 37.492 19.527C58.205 39.053 75 30.308 75 19.526 75 8.745 58.202 0 37.507 0z" fill="#737477"/>
    <path d="M37.515 0C16.802 0 0 8.745 0 19.526c0 10.782 16.783 19.527 37.5 19.527 20.716 0 37.5-8.745 37.5-19.527C75.015 8.745 58.213 0 37.515 0z" fill="#747578"/>
    <path d="M37.652 0C17.022 0 .304 8.733.304 19.519c0 10.786 16.715 19.534 37.348 19.534C58.284 39.053 75 30.305 75 19.533 75 8.734 58.266 0 37.652 0z" fill="#747678"/>
    <path d="M37.652 0C17.022 0 .304 8.737.304 19.526c0 10.79 16.715 19.527 37.348 19.527C58.266 39.053 75 30.316 75 19.526 74.985 8.736 58.266 0 37.652 0z" fill="#757779"/>
    <path d="M37.652 0C17.022 0 .304 8.755.304 19.526c0 10.79 16.715 19.527 37.348 19.527C58.266 39.053 75 30.316 75 19.526 74.985 8.755 58.266 0 37.652 0z" fill="#76777A"/>
    <path d="M37.649 0C17.026 0 .304 8.755.304 19.526c0 10.772 16.722 19.527 37.348 19.527C58.278 39.053 75 30.316 75 19.526 74.997 8.755 58.272 0 37.649 0z" fill="#77787B"/>
    <path d="M37.649 0C17.026 0 .304 8.747.304 19.528c0 10.78 16.722 19.525 37.348 19.525C58.278 39.053 75 30.309 75 19.528 75 8.748 58.272 0 37.649 0z" fill="#77797B"/>
    <path d="M37.649 0C17.026 0 .304 8.747.304 19.528c0 10.78 16.722 19.525 37.348 19.525C58.278 39.053 75 30.309 75 19.528 75 8.748 58.272 0 37.649 0z" fill="#787A7C"/>
    <path d="M37.506 0C16.962 0 .304 8.747.304 19.528c0 10.78 16.658 19.525 37.187 19.525 20.544 0 37.205-8.744 37.205-19.525C74.696 8.748 58.05 0 37.506 0z" fill="#797A7D"/>
    <path d="M37.5 0C16.95 0 .304 8.747.304 19.528c0 10.78 16.647 19.525 37.196 19.525s37.196-8.744 37.196-19.525C74.696 8.748 58.034 0 37.5 0z" fill="#7A7B7E"/>
    <path d="M37.5 0C16.95 0 .304 8.736.304 19.526S16.95 39.053 37.5 39.053c20.534 0 37.196-8.752 37.196-19.527C74.7 8.736 58.034 0 37.5 0z" fill="#7A7C7F"/>
    <path d="M37.5 0C16.969 0 .304 8.736.304 19.526S16.95 39.053 37.5 39.053c20.534 0 37.196-8.752 37.196-19.527C74.7 8.736 58.034 0 37.5 0z" fill="#7B7D7F"/>
    <path d="M37.497 0C16.957 0 .304 8.751.304 19.526c0 10.79 16.654 19.527 37.196 19.527 20.542 0 37.196-8.737 37.196-19.527C74.693 8.751 58.04 0 37.497 0z" fill="#7C7D80"/>
    <path d="M37.497 0C16.957 0 .304 8.751.304 19.526S16.958 39.053 37.5 39.053c20.542 0 37.196-8.737 37.196-19.527C74.693 8.751 58.04 0 37.497 0z" fill="#7C7E81"/>
    <path d="M37.497 0C16.957 0 .304 8.74.304 19.519c0 10.779 16.654 19.534 37.196 19.534 20.542 0 37.196-8.74 37.196-19.534C74.693 8.739 58.04 0 37.497 0z" fill="#7D7F82"/>
    <path d="M37.497 0C16.957 0 .304 8.743.304 19.526c0 10.784 16.654 19.527 37.196 19.527 20.542 0 37.196-8.743 37.196-19.527C74.696 8.743 58.04 0 37.497 0z" fill="#7E8082"/>
    <path d="M37.491 0C16.944 0 .304 8.743.304 19.526c0 10.784 16.658 19.527 37.187 19.527 20.547 0 37.205-8.743 37.205-19.527C74.681 8.743 58.038 0 37.491 0z" fill="#7F8083"/>
    <path d="M37.5 0C16.966 0 .304 8.743.304 19.526c0 10.784 16.662 19.527 37.196 19.527 20.552 0 37.196-8.743 37.196-19.527C74.696 8.743 58.037 0 37.5 0z" fill="#7F8184"/>
    <path d="M37.5.3C16.966.3.304 8.962.304 19.668c0 10.705 16.647 19.385 37.196 19.385 20.534 0 37.196-8.68 37.196-19.385C74.696 8.962 58.037.3 37.5.3z" fill="#808285"/>
    <path d="M37.485.3C16.951.3.304 8.914.304 19.526c0 10.628 16.647 19.226 37.196 19.226 20.534 0 37.196-8.616 37.196-19.226C74.684 8.914 58.022.3 37.485.3z" fill="#818385"/>
    <path d="M37.5.3C16.957.3.304 8.914.304 19.526c0 10.613 16.653 19.226 37.196 19.226 20.542 0 37.196-8.613 37.196-19.226C74.714 8.914 58.046.3 37.5.3z" fill="#828386"/>
    <path d="M37.5.3C16.957.3.304 8.914.304 19.526c0 10.613 16.653 19.226 37.196 19.226 20.542 0 37.196-8.613 37.196-19.226C74.696 8.914 58.046.3 37.5.3z" fill="#828487"/>
    <path d="M37.5.3C16.957.3.304 8.903.304 19.52c0 10.617 16.653 19.233 37.196 19.233 20.542 0 37.196-8.602 37.196-19.233C74.696 8.903 58.046.3 37.5.3z" fill="#838588"/>
    <path d="M37.49.3C16.957.3.303 8.906.303 19.526c0 10.621 16.657 19.226 37.188 19.226 20.547 0 37.204-8.605 37.204-19.226C74.696 8.906 58.04.3 37.49.3z" fill="#848688"/>
    <path d="M37.497.3C16.96.3.304 8.906.304 19.526c0 10.621 16.66 19.226 37.196 19.226 20.55 0 37.196-8.605 37.196-19.226C74.708 8.906 58.051.3 37.496.3z" fill="#858689"/>
    <path d="M37.497.3C16.961.3.304 8.906.304 19.526c0 10.621 16.66 19.226 37.196 19.226 20.55 0 37.196-8.605 37.196-19.226C74.696 8.906 58.051.3 37.497.3z" fill="#85878A"/>
    <path d="M37.497.3C16.961.3.304 8.912.304 19.52c0 10.625 16.66 19.233 37.196 19.233 20.536 0 37.196-8.608 37.196-19.233C74.693 8.912 58.033.3 37.497.3z" fill="#86888B"/>
    <path d="M37.491.3C16.951.3.304 8.915.304 19.526c0 10.63 16.646 19.226 37.187 19.226 20.54.015 37.205-8.597 37.205-19.226C74.696 8.916 58.032.3 37.491.3z" fill="#87898B"/>
    <path d="M37.491.3C16.951.3.304 8.912.304 19.52c0 10.625 16.646 19.233 37.187 19.233 20.54 0 37.205-8.608 37.205-19.233C74.696 8.912 58.032.3 37.491.3z" fill="#88898C"/>
    <path d="M37.498.3C16.954.3.304 8.912.304 19.534c0 10.607 16.65 19.218 37.194 19.218 20.545 0 37.198-8.608 37.198-19.218C74.696 8.912 58.043.3 37.5.3z" fill="#888A8D"/>
    <path d="M37.485.3C16.957.3.304 8.898.304 19.525c0 10.612 16.65 19.227 37.196 19.227s37.196-8.612 37.196-19.227C74.684 8.898 58.031.3 37.485.3z" fill="#898B8E"/>
    <path d="M37.492.3C16.962.3.304 8.902.304 19.534c0 10.617 16.654 19.218 37.188 19.218 20.55 0 37.204-8.602 37.204-19.218C74.7 8.902 58.042.3 37.493.3z" fill="#8A8C8E"/>
    <path d="M37.5.3C16.964.3.304 8.906.304 19.526c0 10.621 16.66 19.226 37.196 19.226 20.536 0 37.196-8.605 37.196-19.226C74.714 8.906 58.054.3 37.5.3z" fill="#8A8C8F"/>
    <path d="M37.5.3C16.964.3.304 8.906.304 19.526c0 10.621 16.66 19.226 37.196 19.226 20.536 0 37.196-8.605 37.196-19.226C74.714 8.92 58.054.3 37.5.3z" fill="#8B8D90"/>
    <path d="M37.5.3C16.964.3.304 8.906.304 19.526c0 10.621 16.657 19.226 37.196 19.226 20.539 0 37.196-8.605 37.196-19.226C74.696 8.906 58.054.3 37.5.3z" fill="#8C8E91"/>
    <path d="M37.49.3C16.95.3.303 8.91.303 19.534c0 10.61 16.66 19.218 37.188 19.218 20.544 0 37.204-8.608 37.204-19.218C74.693 8.909 58.033.3 37.49.3z" fill="#8D8F91"/>
    <path d="M37.497.3C16.967.3.304 8.91.304 19.534c0 10.61 16.649 19.218 37.196 19.218 20.547 0 37.196-8.608 37.196-19.218C74.708 8.909 58.044.3 37.496.3z" fill="#8D8F92"/>
    <path d="M37.482.3C16.952.3.304 8.91.304 19.534c0 10.61 16.649 19.218 37.196 19.218 20.547 0 37.196-8.608 37.196-19.218C74.693 8.909 58.03.3 37.482.3z" fill="#8E9093"/>
    <path d="M37.482.3C16.952.3.304 8.897.304 19.526c0 10.614 16.649 19.226 37.196 19.226 20.547 0 37.196-8.612 37.196-19.226C74.678 8.897 58.03.3 37.482.3z" fill="#8F9194"/>
    <path d="M37.509.3C16.957.3.304 8.897.304 19.526c0 10.614 16.653 19.226 37.187 19.226s37.205-8.612 37.205-19.226C74.696 8.897 58.043.3 37.51.3z" fill="#909294"/>
    <path d="M37.518.3C16.96.3.304 8.916.304 19.534c0 10.618 16.657 19.218 37.196 19.218 20.54 0 37.196-8.6 37.196-19.218C74.714 8.916 58.057.3 37.518.3z" fill="#909395"/>
    <path d="M37.503.3C16.946.3.303 8.916.303 19.534c0 10.618 16.658 19.218 37.197 19.218 20.54 0 37.196-8.6 37.196-19.218S58.042.3 37.503.3z" fill="#919396"/>
    <path d="M37.503.3C16.96.3.303 8.902.303 19.525c0 10.623 16.658 19.227 37.197 19.227 20.54 0 37.196-8.604 37.196-19.227C74.696 8.902 58.042.3 37.503.3z" fill="#929497"/>
    <path d="M37.51.3C16.964.3.304 8.902.304 19.525c0 10.608 16.66 19.227 37.188 19.227 20.544 0 37.204-8.604 37.204-19.227C74.696 8.902 58.04.3 37.51.3z" fill="#939597"/>
    <path d="M37.518.3C16.968.3.304 8.906.304 19.534c0 10.613 16.648 19.218 37.196 19.218 20.547 0 37.196-8.608 37.196-19.218C74.714 8.906 58.051.3 37.518.3z" fill="#939698"/>
    <path d="M37.5.3C16.95.3.304 8.906.304 19.534c0 10.613 16.648 19.218 37.196 19.218 20.547 0 37.196-8.608 37.196-19.218C74.696 8.906 58.033.3 37.5.3z" fill="#949699"/>
    <path d="M37.5.3C16.95.3.304 8.894.304 19.526c0 10.618 16.648 19.226 37.196 19.226 20.532 0 37.196-8.611 37.196-19.226C74.696 8.894 58.033.3 37.5.3z" fill="#95979A"/>
    <path d="M37.509.3C16.953.3.304 8.911.304 19.525s16.65 19.227 37.187 19.227 37.205-8.61 37.205-19.224S58.046.3 37.51.3z" fill="#96989A"/>
    <path d="M37.5.3C16.96.3.304 8.915.304 19.534c0 10.618 16.655 19.218 37.196 19.218 20.54 0 37.196-8.615 37.196-19.218C74.693 8.915 58.041.3 37.5.3z" fill="#97999B"/>
    <path d="M37.5.3C16.96.3.304 8.915.304 19.534c0 10.618 16.655 19.218 37.196 19.218 20.54 0 37.196-8.615 37.196-19.218C74.693 8.915 58.041.3 37.5.3z" fill="#97999C"/>
    <path d="M37.5.3C16.96.3.304 8.904.304 19.526c0 10.608 16.655 19.226 37.196 19.226 20.54 0 37.196-8.6 37.196-19.226C74.696 8.901 58.041.3 37.5.3z" fill="#989A9D"/>
    <path d="M37.509.3C16.963.3.304 8.904.304 19.526c0 10.608 16.66 19.226 37.187 19.226 20.546 0 37.205-8.6 37.205-19.226C74.696 8.901 58.055.3 37.51.3z" fill="#999B9E"/>
    <path d="M37.503.3C16.953.3.303 8.907.303 19.534c0 10.612 16.664 19.218 37.197 19.218 20.55 0 37.196-8.603 37.196-19.218C74.7 8.907 58.036.3 37.503.3z" fill="#9A9C9E"/>
    <path d="M37.503.3C16.953.3.303 8.907.303 19.534c0 10.612 16.646 19.218 37.197 19.218 20.536 0 37.196-8.603 37.196-19.218C74.7 8.907 58.036.3 37.503.3z" fill="#9A9C9F"/>
    <path d="M37.503.3C16.967.3.303 8.908.303 19.525S16.95 38.752 37.5 38.752c20.536 0 37.196-8.607 37.196-19.227C74.696 8.905 58.036.3 37.503.3z" fill="#9B9DA0"/>
    <path d="M37.492.3C16.952.3.304 8.908.304 19.525s16.649 19.227 37.188 19.227c20.54 0 37.204-8.607 37.204-19.227C74.696 8.905 58.03.3 37.492.3z" fill="#9C9EA1"/>
    <path d="M37.5.3C16.956.3.304 8.912.304 19.534c0 10.622 16.652 19.218 37.196 19.218 20.544 0 37.196-8.611 37.196-19.218C74.696 8.912 58.041.3 37.5.3z" fill="#9D9FA1"/>
    <path d="M37.5.3C16.956.3.304 8.912.304 19.534c0 10.622 16.652 19.218 37.196 19.218 20.544 0 37.196-8.611 37.196-19.218C74.696 8.912 58.041.3 37.5.3z" fill="#9DA0A2"/>
    <path d="M37.5.3C16.956.3.304 8.9.304 19.526c0 10.611 16.652 19.226 37.196 19.226 20.544 0 37.196-8.615 37.196-19.226C74.696 8.901 58.041.3 37.5.3z" fill="#9EA0A3"/>
    <path d="M37.492.3C16.944.3.304 8.9.304 19.526c0 10.611 16.655 19.226 37.188 19.226 20.549 0 37.204-8.6 37.204-19.226C74.696 8.901 58.038.3 37.492.3z" fill="#9FA1A4"/>
    <path d="M37.5.3C16.963.3.304 8.9.304 19.526c0 10.611 16.659 19.226 37.196 19.226 20.552 0 37.196-8.6 37.196-19.226C74.696 8.901 58.05.3 37.5.3z" fill="#A0A2A4"/>
    <path d="M37.5.3C16.963.3.304 8.92.304 19.534c0 10.615 16.659 19.218 37.196 19.218s37.196-8.603 37.196-19.218S58.034.3 37.5.3z" fill="#A1A3A5"/>
    <path d="M37.5.3C16.966.3.304 8.907.304 19.526c0 10.62 16.644 19.226 37.196 19.226 20.534 0 37.196-8.607 37.196-19.226S58.034.3 37.5.3z" fill="#A1A3A6"/>
    <path d="M37.49.3C16.953.3.305 8.907.305 19.526c0 10.62 16.648 19.226 37.187 19.226 20.54 0 37.205-8.607 37.205-19.226S58.03.3 37.491.3z" fill="#A2A4A7"/>
    <path d="M37.5.3C16.956.3.304 8.907.304 19.526c0 10.62 16.652 19.226 37.196 19.226 20.544 0 37.196-8.607 37.196-19.226S58.044.3 37.5.3z" fill="#A3A5A8"/>
    <path d="M37.5.3C16.956.3.304 8.91.304 19.534c0 10.623 16.652 19.218 37.196 19.218 20.544 0 37.196-8.61 37.196-19.218C74.696 8.91 58.044.3 37.5.3z" fill="#A4A6A8"/>
    <path d="M37.485.3C16.955.3.304 8.897.304 19.525c0 10.613 16.652 19.227 37.196 19.227 20.544 0 37.196-8.614 37.196-19.227C74.681 8.897 58.03.3 37.485.3z" fill="#A4A7A9"/>
    <path d="M37.492.3C16.96.3.304 8.897.304 19.525c0 10.613 16.655 19.227 37.188 19.227 20.549 0 37.204-8.614 37.204-19.227C74.696 8.897 58.041.3 37.492.3z" fill="#A5A7AA"/>
    <path d="M37.5.3C16.962.3.304 8.92.304 19.534c0 10.615 16.658 19.218 37.196 19.218 20.538 0 37.196-8.6 37.196-19.233C74.711 8.919 58.053.3 37.5.3z" fill="#A6A8AB"/>
    <path d="M37.5.3C16.962.3.304 8.92.304 19.534c0 10.615 16.658 19.218 37.196 19.218 20.553 0 37.196-8.603 37.196-19.218S58.053.3 37.5.3z" fill="#A7A9AC"/>
    <path d="M37.644.3C17.187.3.607 8.907.607 19.526c0 10.62 16.58 19.226 37.037 19.226 20.458 0 37.052-8.603 37.052-19.226C74.696 8.904 58.102.3 37.644.3z" fill="#A8AAAC"/>
    <path d="M37.644.3C17.187.3.607 8.907.607 19.526c0 10.62 16.58 19.226 37.037 19.226 20.458 0 37.052-8.603 37.052-19.226C74.696 8.904 58.102.3 37.644.3z" fill="#A8ABAD"/>
    <path d="M37.653.3C17.191.3.607 8.907.607 19.526c0 10.62 16.584 19.226 37.046 19.226 20.463 0 37.043-8.603 37.043-19.226C74.714 8.907 58.116.3 37.653.3z" fill="#A9ABAE"/>
    <path d="M37.634.3C17.187.3.607 8.91.607 19.534c0 10.608 16.583 19.218 37.045 19.218 20.462 0 37.044-8.61 37.044-19.218C74.676 8.91 58.096.3 37.634.3z" fill="#AAACAF"/>
    <path d="M37.634.3C17.187.3.607 8.896.607 19.526c0 10.613 16.583 19.226 37.045 19.226 20.462 0 37.044-8.613 37.044-19.226C74.676 8.9 58.096.3 37.634.3z" fill="#ABADAF"/>
    <path d="M37.643.3C17.19.3.607 8.914.607 19.526c0 10.613 16.587 19.226 37.036 19.226s37.053-8.613 37.053-19.226C74.696 8.914 58.11.3 37.643.3z" fill="#ACAEB0"/>
    <path d="M37.652.3C17.195.3.607 8.914.607 19.526c0 10.613 16.59 19.226 37.045 19.226 20.454 0 37.044-8.613 37.044-19.226C74.711 8.914 58.124.3 37.652.3z" fill="#ACAFB1"/>
    <path d="M37.637.3C17.18.3.607 8.918.607 19.535c0 10.618 16.59 19.217 37.045 19.217 20.454 0 37.044-8.617 37.044-19.217C74.681 8.918 58.11.3 37.636.3z" fill="#ADAFB2"/>
    <path d="M37.652.3C17.195.3.607 8.904.607 19.526c0 10.623 16.59 19.226 37.045 19.226 20.454 0 37.044-8.603 37.044-19.226C74.681 8.904 58.091.3 37.652.3z" fill="#AEB0B3"/>
    <path d="M37.66.3C17.197.3.606 8.904.606 19.526c0 10.623 16.594 19.226 37.037 19.226 20.461 0 37.052-8.603 37.052-19.226C74.696 8.904 58.102.3 37.66.3z" fill="#AFB1B3"/>
    <path d="M37.652.3C17.187.3.607 8.904.607 19.526c0 10.623 16.58 19.226 37.045 19.226 20.465 0 37.044-8.603 37.044-19.226C74.696 8.904 58.1.3 37.652.3z" fill="#B0B2B4"/>
    <path d="M37.652.3C17.187.3.607 8.904.607 19.526c0 10.608 16.58 19.226 37.045 19.226 20.465 0 37.044-8.603 37.044-19.226C74.696 8.904 58.1.3 37.652.3z" fill="#B1B3B5"/>
    <path d="M37.652.3C17.187.3.607 8.91.607 19.526s16.58 19.226 37.045 19.226c20.447 0 37.044-8.61 37.044-19.226C74.681 8.911 58.1.3 37.652.3z" fill="#B1B3B6"/>
    <path d="M37.66.3C17.19.3.606 8.91.606 19.526S17.19 38.752 37.66 38.752c20.452 0 37.037-8.61 37.037-19.226C74.696 8.911 58.111.3 37.66.3z" fill="#B2B4B7"/>
    <path d="M37.652.3C17.196.3.607 8.91.607 19.526s16.586 19.226 37.045 19.226c20.458 0 37.044-8.61 37.044-19.226C74.696 8.911 58.107.3 37.652.3z" fill="#B3B5B7"/>
    <path d="M37.652.3C17.196.3.607 8.91.607 19.526s16.586 19.226 37.045 19.226c20.458 0 37.044-8.61 37.044-19.226C74.696 8.911 58.107.3 37.652.3z" fill="#B4B6B8"/>
    <path d="M37.652.3C17.196.3.607 8.902.607 19.526c0 10.625 16.586 19.226 37.045 19.226 20.458 0 37.044-8.617 37.044-19.226C74.678 8.902 58.107.3 37.652.3z" fill="#B5B7B9"/>
    <path d="M37.66.3C17.2.3.608 8.902.608 19.526c0 10.625 16.59 19.226 37.054 19.226 20.463 0 37.035-8.602 37.035-19.226C74.696 8.902 58.106.3 37.661.3z" fill="#B5B7BA"/>
    <path d="M37.652.3C17.186.3.607 8.902.607 19.526c0 10.625 16.58 19.226 37.045 19.226 20.465 0 37.044-8.602 37.044-19.226C74.696 8.902 58.102.3 37.652.3z" fill="#B6B8BB"/>
    <path d="M37.652.3C17.186.3.607 8.92.607 19.526c0 10.607 16.58 19.226 37.045 19.226 20.45 0 37.044-8.602 37.044-19.226C74.696 8.92 58.102.3 37.652.3z" fill="#B7B9BB"/>
    <path d="M37.652.3C17.202.3.607 8.91.607 19.526s16.58 19.226 37.045 19.226c20.45 0 37.044-8.61 37.044-19.226S58.102.3 37.652.3z" fill="#B8BABC"/>
    <path d="M37.5.3C17.125.3.607 8.91.607 19.526S17.125 38.752 37.5 38.752s36.893-8.61 36.893-19.226S57.875.3 37.5.3z" fill="#B9BBBD"/>
    <path d="M37.5.3C17.125.3.607 8.91.607 19.526S17.125 38.752 37.5 38.752s36.893-8.61 36.893-19.226S57.875.3 37.5.3z" fill="#BABBBE"/>
    <path d="M37.5.3C17.125.3.607 8.91.607 19.526S17.125 38.752 37.5 38.752s36.893-8.61 36.893-19.226S57.875.3 37.5.3z" fill="#BABCBF"/>
    <path d="M37.509.6C17.129.6.607 9.136.607 19.678c0 10.541 16.522 19.075 36.884 19.075 20.38 0 36.902-8.549 36.902-19.075C74.41 9.135 57.889.6 37.509.6z" fill="#BBBDBF"/>
    <path d="M37.5.6C17.115.6.607 9.136.607 19.678c0 10.541 16.526 19.075 36.893 19.075 20.385 0 36.893-8.549 36.893-19.075C74.396 9.135 57.885.6 37.5.6z" fill="#BCBEC0"/>
    <path d="M37.498.6C17.13.6.608 9.15.608 19.678c0 10.526 16.524 19.075 36.89 19.075 20.367 0 36.895-8.549 36.895-19.075C74.393 9.15 57.867.6 37.498.6z" fill="#BDBFC1"/>
    <path d="M37.5.6C17.13.6.607 9.15.607 19.678c0 10.526 16.511 19.075 36.893 19.075 20.37 0 36.893-8.534 36.893-19.075C74.396 9.15 57.87.6 37.5.6z" fill="#BEC0C2"/>
    <path d="M37.491.6C17.118.6.607 9.14.607 19.676c0 10.536 16.51 19.077 36.884 19.077 20.373 0 36.902-8.541 36.902-19.077C74.393 9.14 57.864.601 37.49.601z" fill="#BFC0C3"/>
    <path d="M37.5.6C17.122.6.607 9.14.607 19.676c0 10.536 16.515 19.077 36.893 19.077s36.893-8.541 36.893-19.077C74.393 9.14 57.878.601 37.5.601z" fill="#BFC1C3"/>
    <path d="M37.5.6C17.122.6.607 9.14.607 19.676c0 10.536 16.515 19.077 36.893 19.077s36.893-8.541 36.893-19.077C74.393 9.14 57.878.601 37.5.601z" fill="#C0C2C4"/>
    <path d="M37.5.6C17.122.6.607 9.14.607 19.676c0 10.536 16.515 19.077 36.893 19.077s36.893-8.541 36.893-19.077C74.393 9.14 57.878.601 37.5.601z" fill="#C1C3C5"/>
    <path d="M37.492.6C17.128.6.608 9.129.608 19.669c0 10.54 16.521 19.084 36.886 19.084 20.382 0 36.9-8.545 36.9-19.084C74.393 9.128 57.875.6 37.493.6z" fill="#C2C4C6"/>
    <path d="M37.5.6C17.132.6.607 9.08.607 19.527c0 10.447 16.525 18.926 36.893 18.926 20.368 0 36.893-8.482 36.893-18.926C74.408 9.08 57.886.601 37.5.601z" fill="#C3C4C7"/>
    <path d="M37.5.6C17.132.6.607 9.08.607 19.527c0 10.447 16.525 18.926 36.893 18.926 20.368 0 36.893-8.482 36.893-18.926C74.393 9.083 57.868.601 37.5.601z" fill="#C4C5C7"/>
    <path d="M37.5.6C17.132.6.607 9.08.607 19.527c0 10.447 16.525 18.926 36.893 18.926 20.368 0 36.893-8.482 36.893-18.926C74.393 9.083 57.868.601 37.5.601z" fill="#C4C6C8"/>
    <path d="M37.491.6C17.118.6.607 9.069.607 19.52c0 10.45 16.51 18.933 36.884 18.933 20.373 0 36.902-8.467 36.902-18.933C74.393 9.069 57.864.601 37.49.601z" fill="#C5C7C9"/>
    <path d="M37.5.6C17.122.6.607 9.073.607 19.527c0 10.455 16.515 18.926 36.893 18.926s36.893-8.47 36.893-18.926C74.41 9.072 57.878.601 37.5.601z" fill="#C6C8CA"/>
    <path d="M37.5.6C17.137.6.607 9.073.607 19.527c0 10.455 16.515 18.926 36.893 18.926s36.893-8.47 36.893-18.926C74.393 9.072 57.878.601 37.5.601z" fill="#C7C9CB"/>
    <path d="M37.492.6C17.125.6.608 9.073.608 19.527c0 10.455 16.518 18.926 36.886 18.926 20.382 0 36.9-8.47 36.9-18.926 0-10.454-16.518-18.925-36.9-18.925z" fill="#C8C9CB"/>
    <path d="M37.492.6C17.125.6.608 9.059.608 19.519c0 10.46 16.518 18.934 36.886 18.934 20.367 0 36.9-8.475 36.9-18.934C74.393 9.057 57.875.6 37.493.6z" fill="#C9CACC"/>
    <path d="M37.5.6C17.128.6.607 9.08.607 19.526c0 10.446 16.521 18.927 36.893 18.927s36.893-8.478 36.893-18.927C74.408 9.079 57.887.6 37.5.6z" fill="#C9CBCD"/>
    <path d="M37.5.6C17.128.6.607 9.08.607 19.526c0 10.464 16.521 18.927 36.893 18.927s36.893-8.478 36.893-18.927C74.408 9.079 57.887.6 37.5.6z" fill="#CACCCE"/>
    <path d="M37.492.6C17.117.6.608 9.08.608 19.526c0 10.446 16.51 18.927 36.886 18.927 20.375 0 36.9-8.478 36.9-18.927C74.393 9.075 57.868.6 37.493.6z" fill="#CBCDCE"/>
    <path d="M37.492.6C17.133.6.608 9.068.608 19.519c0 10.45 16.525 18.934 36.886 18.934 20.375 0 36.9-8.481 36.9-18.934C74.393 9.063 57.868.6 37.493.6z" fill="#CCCDCF"/>
    <path d="M37.492.6C17.133.6.608 9.068.608 19.519c0 10.45 16.525 18.934 36.886 18.934 20.375 0 36.9-8.481 36.9-18.934C74.393 9.063 57.868.6 37.493.6z" fill="#CDCED0"/>
    <path d="M37.482.6C17.117.6.607 9.072.607 19.527c0 10.456 16.513 18.926 36.893 18.926s36.893-8.47 36.893-18.926C74.393 9.071 57.862.601 37.482.601z" fill="#CECFD1"/>
    <path d="M37.482.6C17.117.6.607 9.072.607 19.527c0 10.456 16.513 18.926 36.893 18.926s36.893-8.47 36.893-18.926C74.375 9.071 57.862.601 37.482.601z" fill="#CED0D2"/>
    <path d="M37.506.6C17.121.6.607 9.076.607 19.52c0 10.46 16.517 18.933 36.884 18.933s36.902-8.474 36.902-18.933C74.393 9.075 57.876.601 37.506.601z" fill="#CFD1D2"/>
    <path d="M37.515.6C17.125.6.607 9.079.607 19.527c0 10.449 16.521 18.926 36.893 18.926s36.893-8.477 36.893-18.926C74.41 9.078 57.89.601 37.515.601z" fill="#D0D1D3"/>
    <path d="M37.5.6C17.128.6.607 9.079.607 19.527c0 10.449 16.521 18.926 36.893 18.926s36.893-8.477 36.893-18.926C74.393 9.078 57.875.601 37.5.601z" fill="#D1D2D4"/>
    <path d="M37.5.6C17.128.6.607 9.079.607 19.527c0 10.449 16.521 18.926 36.893 18.926s36.893-8.477 36.893-18.926C74.378 9.078 57.875.601 37.5.601z" fill="#D2D3D5"/>
    <path d="M37.508.6C17.131.6.608 9.065.608 19.519c0 10.453 16.524 18.934 36.885 18.934 20.378 0 36.9-8.481 36.9-18.934C74.393 9.063 57.87.6 37.507.6z" fill="#D2D4D6"/>
    <path d="M37.5.6C17.117.6.607 9.07.607 19.527c0 10.457 16.528 18.926 36.893 18.926 20.383 0 36.893-8.484 36.893-18.926C74.393 9.066 57.868.601 37.5.601z" fill="#D3D5D6"/>
    <path d="M37.5.6C17.117.6.607 9.07.607 19.527c0 10.457 16.513 18.926 36.893 18.926s36.893-8.484 36.893-18.926C74.393 9.066 57.868.601 37.5.601z" fill="#D4D6D7"/>
    <path d="M37.5.6C17.117.6.607 9.086.607 19.527c0 10.457 16.513 18.926 36.893 18.926 20.365 0 36.893-8.469 36.893-18.926C74.393 9.082 57.868.601 37.5.601z" fill="#D5D6D8"/>
    <path d="M37.508.6C17.137.6.608 9.07.608 19.519c0 10.446 16.515 18.934 36.885 18.934 20.369 0 36.9-8.473 36.9-18.934C74.393 9.07 57.88.6 37.507.6z" fill="#D6D7D9"/>
    <path d="M37.497.6C17.124.6.607 9.07.607 19.519c0 10.446 16.52 18.934 36.893 18.934s36.893-8.473 36.893-18.934C74.39 9.07 57.873.6 37.497.6z" fill="#D7D8D9"/>
    <path d="M37.497.6C17.124.6.607 9.076.607 19.527c0 10.452 16.52 18.926 36.893 18.926s36.893-8.477 36.893-18.926C74.393 9.078 57.873.601 37.497.601z" fill="#D7D9DA"/>
    <path d="M37.497.6C17.124.6.607 9.076.607 19.527c0 10.452 16.52 18.926 36.893 18.926s36.893-8.477 36.893-18.926C74.393 9.078 57.873.601 37.497.601z" fill="#D8DADB"/>
    <path d="M37.509.6C17.131.6.607 9.064.607 19.52c0 10.456 16.524 18.933 36.884 18.933 20.378 0 36.902-8.48 36.902-18.933S57.89.601 37.509.601z" fill="#D9DADC"/>
    <path d="M37.5.6C17.117.6.607 9.064.607 19.52c0 10.456 16.528 18.933 36.893 18.933 20.383 0 36.893-8.48 36.893-18.933S57.868.601 37.5.601z" fill="#DADBDD"/>
    <path d="M37.5.6C17.135.6.607 9.085.607 19.527c0 10.46 16.528 18.926 36.893 18.926 20.365 0 36.893-8.483 36.893-18.926C74.393 9.084 57.868.601 37.5.601z" fill="#DBDCDD"/>
    <path d="M37.5.6C17.135.6.607 9.085.607 19.527c0 10.46 16.51 18.926 36.893 18.926 20.368 0 36.893-8.483 36.893-18.926C74.393 9.084 57.868.601 37.5.601z" fill="#DCDDDE"/>
    <path d="M37.492.6C17.12.6.608 9.07.608 19.52c0 10.45 16.513 18.933 36.886 18.933 20.372 0 36.9-8.469 36.9-18.933C74.378 9.069 57.865.601 37.493.601z" fill="#DCDEDF"/>
    <path d="M37.5.6C17.123.6.607 9.07.607 19.52c0 10.45 16.516 18.933 36.893 18.933 20.377 0 36.893-8.469 36.893-18.933C74.393 9.069 57.877.601 37.5.601z" fill="#DDDEE0"/>
    <path d="M37.5.6C17.123.6.607 9.074.607 19.527c0 10.454 16.516 18.926 36.893 18.926 20.377 0 36.893-8.472 36.893-18.926C74.393 9.073 57.877.601 37.5.601z" fill="#DEDFE0"/>
    <path d="M37.5.6C17.123.6.607 9.074.607 19.527c0 10.454 16.516 18.926 36.893 18.926 20.377 0 36.893-8.472 36.893-18.926C74.393 9.073 57.877.601 37.5.601z" fill="#DFE0E1"/>
    <path d="M37.641.6C17.363.6.911 9.063.911 19.519c0 10.455 16.451 18.934 36.733 18.934 20.297 0 36.749-8.476 36.749-18.934C74.393 9.058 57.938.6 37.64.6z" fill="#E0E1E2"/>
    <path d="M37.649.6C17.366.6.91 9.078.91 19.519c0 10.455 16.455 18.934 36.74 18.934 20.287 0 36.742-8.476 36.742-18.934C74.39 9.077 57.935.6 37.649.6z" fill="#E0E2E3"/>
    <path d="M37.649.6C17.366.6.91 9.082.91 19.527c0 10.46 16.455 18.926 36.74 18.926 20.287 0 36.742-8.48 36.742-18.926C74.393 9.081 57.935.601 37.649.601z" fill="#E1E2E3"/>
    <path d="M37.634.6C17.35.6.91 9.078.91 19.536c0 10.44 16.44 18.917 36.74 18.917 20.287 0 36.742-8.476 36.742-18.917C74.375 9.077 57.92.601 37.633.601z" fill="#E2E3E4"/>
    <path d="M37.643.6C17.355.6.91 9.067.91 19.529c0 10.444 16.444 18.924 36.732 18.924s36.75-8.48 36.75-18.924C74.393 9.066 57.933.6 37.643.6z" fill="#E3E4E5"/>
    <path d="M37.652.6C17.359.6.912 9.067.912 19.529c0 10.444 16.447 18.924 36.74 18.924 20.293 0 36.74-8.48 36.74-18.924C74.397 9.066 57.949.6 37.653.6z" fill="#E4E5E6"/>
    <path d="M37.652.6C17.374.6.912 9.07.912 19.536c0 10.449 16.447 18.917 36.74 18.917 20.293 0 36.74-8.468 36.74-18.917C74.397 9.07 57.949.601 37.653.601z" fill="#E5E6E7"/>
    <path d="M37.637.6C17.359.6.91 9.07.91 19.536c0 10.449 16.448 18.917 36.74 18.917 20.294 0 36.742-8.468 36.742-18.917C74.38 9.07 57.933.601 37.637.601z" fill="#E5E6E7"/>
    <path d="M37.644.6C17.362.6.911 9.074.911 19.527c0 10.454 16.451 18.926 36.733 18.926 20.283 0 36.749-8.472 36.749-18.926C74.393 9.073 57.944.601 37.644.601z" fill="#E6E7E8"/>
    <path d="M37.5 1.502c-19.873 0-35.982 8.07-35.982 18.024 0 9.955 16.106 18.025 35.981 18.025 19.876 0 35.982-8.07 35.982-18.025 0-9.954-16.109-18.024-35.981-18.024z" fill="url(#a)"/>
    <path d="M37.5 3.605c-18.697 0-33.856 7.197-33.856 16.072 0 8.874 15.16 16.071 33.856 16.071 18.697 0 33.856-7.197 33.856-16.071 0-8.875-15.159-16.072-33.856-16.072z" stroke="#004E24" stroke-width=".701"/>
    <path d="M37.49 2.704c-19.197 0-34.757 7.542-34.757 16.822 0 9.296 15.56 16.823 34.758 16.823 19.197 0 34.776-7.542 34.776-16.822-.018-9.28-15.578-16.823-34.776-16.823z" stroke="#F5F0CC" stroke-width="1.33"/>
    <path d="M60.148 11.2h-6.169l-.751 2.243h3.986l-4.545 1.634-.297.904 7.008-2.382.768-2.399zm-38.69 3.754l-.84 2.382h-6.011s.14-.052.333-.452 2.97-8.446 2.97-8.446.385-.852-.053-1.06h3.477s-.193-.052-.523.8c-.193.487-2.516 6.951-2.516 6.951h2.516s.575.052.647-.175zm9.89 2.382h2.829s-.193-.296-.069-.627c.157-.452 1.66-4.713 1.66-4.713l.663 5.337H39l3.356-9.49s.14-.452.333-.452h-2.725s.069.332-.016.576a770.4 770.4 0 0 0-1.644 4.553l-.61-5.129h-2.938s.157.26.053.52c-.089.228-3.11 8.866-3.11 8.866s-.174.559-.35.559zM47.514 7.39h-3.215s.245.4-.069 1.34c-.313.938-2.777 7.857-2.777 7.857s-.193.66-.454.784h3.878s4.701.191 6.152-4.953c-.02-.02 1.813-5.08-3.515-5.028zm.35 5.444c-.82 2.086-2.046 2.226-2.693 2.226h-.454l1.888-5.528h.736c-.02-.003 1.868-.107.522 3.302zM10.306 25.366h6.168l.752-2.242h-4l4.562-1.635.297-.903-7.008 2.398-.771 2.382zM27.87 23.28c1.154-3.858-2.744-3.754-2.744-3.754h-4.002c.297.332.068 1.044.068 1.044s-2.483 7.386-2.672 7.962c-.193.575-.543.955-.543.955h3.163c-.105 0-.105-.331-.105-.331l1.137-3.13s1.415 2.886 1.52 3.078c.088.208.052.364.052.364h3.372c-.334 0-.664-.644-.664-.644l-1.676-3.146c2.326.036 3.094-2.398 3.094-2.398zm-2.76-.348c-.438.991-1.644.868-1.644.868h-.61l.646-1.999h.663c1.451.004.944 1.131.944 1.131zm37.657.471c1.242-4.049-2.708-3.84-2.708-3.84h-3.967c.298.33.069 1.042.069 1.042s-2.588 7.423-2.777 7.979c-.193.575-.559.939-.559.939h3.303c-.245 0-.068-.608-.068-.608l1.013-2.85s1.362 2.886 1.467 3.078c.104.208.052.364.052.364h3.496c-.334 0-.683-.644-.683-.644l-1.676-3.146c2.339.033 3.038-2.314 3.038-2.314zm-2.797-.419c-.365.956-1.555.868-1.555.868h-.61l.646-1.983h.873c.003.004 1.068-.032.646 1.115zm-25.827-3.718c-3.094 0-5.103 2.435-5.626 5.46-.47 2.782 1.033 5.005 3.529 5.005 3.496 0 5.574-3.562 5.574-6.12 0-2.678-1.066-4.345-3.477-4.345zm.455 5.545c-.507 2.086-1.467 2.73-2.323 2.573-1.19-.227-.98-2.138-.788-3.025.418-1.93 1.45-2.85 2.218-2.763.246.033 1.644.069.892 3.215zm3.845-5.249s.245.14.245.764v8.622s-.036.468-.21.575h2.589s0-.208.26-.54c.262-.331 5.647-7.858 5.647-7.858s1.221-1.582 1.555-1.582h-3.722s.298.208.07.575c-.23.364-3.53 5.512-3.53 5.512l.053-5.18s0-.836.313-.904l-3.27.016zm15.692 2.346l.84-2.346h-6.293s.229.208-.068 1.043l-2.85 7.979s-.453.939-.578.939h6.483l.767-2.382s-.104.14-.715.14h-2.745l.579-1.616h2.15s.454-.035.542.104l.872-2.554s-.068.227-.647.227h-2.061l.61-1.774h2.62c.004.013.354-.039.494.24zm-23.118-4.556s-.23-.14-.281-.54l-.386-8.761s-.016-.556.245-.68h-3.074s.209.28-.193.904c-.418.628-5.662 8.726-5.662 8.726s-.105.208-.366.332h3.11s-.016-.244.069-.416c.14-.296.523-.992.523-.992h3.126v.868s.017.312-.209.54h3.094l.004.02zm-4.666-3.666l1.732-2.921.016 2.921h-1.748z" fill="#F5F0CC"/>
    <defs>
        <linearGradient id="a" x1="28.042" y1="-.655" x2="46.807" y2="39.778" gradientUnits="userSpaceOnUse">
            <stop stop-color="#008948"/>
            <stop offset=".042" stop-color="#008847"/>
            <stop offset=".096" stop-color="#008244"/>
            <stop offset=".157" stop-color="#00793F"/>
            <stop offset=".222" stop-color="#006A37"/>
            <stop offset=".291" stop-color="#00572B"/>
            <stop offset=".319" stop-color="#004E24"/>
            <stop offset="1"/>
        </linearGradient>
    </defs>
</svg>
