<svg width="49" height="37" viewBox="0 0 49 37" fill="none" xmlns="http://www.w3.org/2000/svg">
    <path d="M25.48 3.002c-2.563 3.276-9.883 13.848-10.718 15.215-1.607 2.624-1.745 3.894-1.795 4.74-.044.83-.044 2.333 1.26 3.55 2.187 2.02 5.26 1.693 7.983 1.693h22.43c.962 0 1.244-.291 1.763-1.012C48.2 24.352 49 21.276 49 18.52c0-5.895-3.696-13.328-13.066-16.685l-1.056 1.567c7.431 3.648 10.503 8.422 10.503 15.1a9.823 9.823 0 0 1-1.541 5.524H22.022c-1.304 0-1.497-1.532-1.022-2.395a90.35 90.35 0 0 1 6.249-9.92c2.204-3.049 4.375-5.896 6.657-8.88.613-.83.205-1.63-1.022-1.888C30.331.39 27.674 0 24.448 0 6.552 0 0 10.64 0 18.526 0 27.08 6.597 37 24.492 37c9.933 0 16.436-3.31 20.199-7.559h-3.796c-3.293 3.145-8.94 5.375-16.403 5.375-15.16 0-20.746-8.817-20.746-16.405.11-6.775 6.105-16.13 21.127-16.438.563-.012 1.005.526.608 1.029z" fill="#000"/>
</svg>
