<svg width="23" height="30" viewBox="0 0 23 30" fill="none" xmlns="http://www.w3.org/2000/svg">
    <path d="M23 15.538l-1.201-3.667L23 8.201l-3.168-2.274-1.225-3.66-3.923-.019L11.5 0 8.316 2.25l-3.923.018-1.225 3.659L0 8.2l1.201 3.669L0 15.537l3.168 2.276 1.045 3.12-2.37 5.125 3.61.533 2.487 3.364 3.56-3.497L15.106 30l2.126-3.406 3.978-.529-2.53-4.812 1.15-3.44L23 15.538zm-6.557 9.864l-1.584 2.54-3.359-3.298-3.403 3.344-1.908-2.583-2.442-.36 1.65-3.568 2.92.013 3.183 2.251 3.184-2.252 2.648-.01 1.87 3.556-2.76.367zm1.31-5.483l-.549.279-2.943.012-2.761 1.951-2.76-1.95-3.268-.013-.156-.071-1.038-3.104-2.746-1.974 1.042-3.179-1.042-3.18 2.746-1.972L5.34 3.544l3.4-.016L11.5 1.58l2.76 1.95 3.4.015 1.062 3.174 2.746 1.972-1.042 3.18 1.042 3.18-2.746 1.97-.97 2.898z" fill="#fff"/>
    <path d="M11.5 6.1c-3.24 0-5.877 2.588-5.877 5.771 0 3.18 2.637 5.772 5.877 5.772 3.24 0 5.877-2.591 5.877-5.772 0-3.184-2.637-5.771-5.877-5.771zm0 10.26c-2.52 0-4.57-2.013-4.57-4.489 0-2.475 2.05-4.489 4.57-4.489 2.52 0 4.57 2.014 4.57 4.49 0 2.475-2.05 4.488-4.57 4.488z" fill="#fff"/>
</svg>
