<svg width="38" height="38" viewBox="0 0 38 38" fill="none" xmlns="http://www.w3.org/2000/svg">
    <path d="M37.584 19c0 10.272-8.312 18.584-18.584 18.584S.416 29.272.416 19 8.728.416 19 .416 37.584 8.728 37.584 19zM19 1.544A17.409 17.409 0 0 0 1.544 19c0 9.678 7.837 17.456 17.456 17.456 9.678 0 17.456-7.837 17.456-17.456A17.409 17.409 0 0 0 19 1.544z" fill="url(#a)"/>
    <path d="M19 1.544A17.409 17.409 0 0 0 1.544 19c0 9.678 7.837 17.456 17.456 17.456 9.678 0 17.456-7.837 17.456-17.456A17.409 17.409 0 0 0 19 1.544zm0 33.784C9.975 35.328 2.672 28.025 2.672 19 2.672 9.975 9.975 2.672 19 2.672c9.025 0 16.328 7.303 16.328 16.328 0 9.025-7.303 16.328-16.328 16.328z" fill="url(#b)"/>
    <path opacity=".4" d="M19 37.584c10.272 0 18.584-8.312 18.584-18.584S29.272.416 19 .416.416 8.728.416 19 8.728 37.584 19 37.584zM19 0c10.45 0 19 8.55 19 19s-8.55 19-19 19S0 29.45 0 19 8.55 0 19 0z" fill="url(#c)"/>
    <path d="M1.306 19.06C1.306 9.321 9.203 1.305 19 1.305c9.797 0 17.694 7.956 17.694 17.753 0 9.738-7.897 17.635-17.694 17.635-9.797 0-17.694-7.897-17.694-17.635zM6.828 6.827C3.681 9.975 1.722 14.31 1.722 19.06s1.96 9.085 5.047 12.172c3.147 3.088 7.48 5.047 12.23 5.047s9.085-1.9 12.173-5.047c3.147-3.087 5.047-7.422 5.047-12.172 0-4.75-1.96-9.084-5.047-12.23A17.042 17.042 0 0 0 19 1.721c-4.75 0-9.084 1.96-12.172 5.106z" fill="#000"/>
    <path opacity=".4" d="M19 35.388c-4.394 0-8.49-1.722-11.578-4.81-3.088-3.087-4.81-7.184-4.81-11.578 0-4.394 1.722-8.49 4.81-11.578 3.087-3.088 7.184-4.81 11.578-4.81 4.394 0 8.49 1.722 11.578 4.81 3.088 3.087 4.81 7.184 4.81 11.578 0 4.394-1.722 8.49-4.81 11.578-3.087 3.088-7.184 4.81-11.578 4.81zm0-.475a15.86 15.86 0 0 0 11.222-4.632c3.028-3.028 4.631-7.006 4.631-11.222a15.86 15.86 0 0 0-4.631-11.221C27.194 4.809 23.216 3.206 19 3.206A15.86 15.86 0 0 0 7.778 7.838C4.75 10.747 3.088 14.784 3.088 19c0 4.216 1.662 8.253 4.63 11.222A15.91 15.91 0 0 0 19 34.912z" fill="url(#d)"/>
    <path d="M33.428 26.719c-.297-.238-11.756-9.322-11.756-9.322L19 2.137c-.178.06-.416.238-.534.475l-1.9 14.844L4.75 26.541s-.237.296-.356.475c-.06.118-.06.297-.06.475l14.607-5.997 14.606 5.997c.119-.297 0-.594-.119-.772z" fill="#000"/>
    <path d="M19.119 19.475L19 22.206l13.419 5.403c.475.238.831.12 1.187-.118l-14.31-8.075c-.058-.06-.177 0-.177.059z" fill="#000"/>
    <path d="M19.119 19.475s.771 1.366 1.662 2.316c1.247 1.365 2.91 2.315 2.91 2.315l8.728 3.503c.475.238.83.12 1.187-.118l-14.31-8.075c-.059-.06-.177 0-.177.059z" fill="url(#e)"/>
    <path d="M33.547 26.956c0-.06-.06-.119-.119-.237l-12.231-8.966-1.663 1.069s.12.06.178 0c.179-.06.535-.119.891 0 .297.119 12.944 8.194 12.944 8.134 0 .06 0 .06 0 0z" fill="#A4AAAE" fill-opacity=".6"/>
    <path d="M33.131 26.422l-11.4-9.025-.534.356 12.231 9.025c-.06-.119-.178-.237-.297-.356z" fill="#000"/>
    <path d="M19.297 18.584l-.06.06s0 .119.12.06c.059-.06 1.78-.95 2.374-1.307l-2.078-14.25c-.06-.535-.297-.772-.712-.95l.237 16.506.119-.119z" fill="#000"/>
    <path d="M18.288 3.147v.772L16.98 17.04c0 .178.06.356.238.475l.772.593.534-14.487.06-1.128c-.179.118-.238.356-.297.653zm-.713 15.2l-.712-.594-12.054 8.728s-.356.238-.415.475l.415-.237 12.647-7.957c.238-.118.297-.237.119-.415z" fill="#A4AAAE" fill-opacity=".6"/>
    <path d="M18.822 19.475c0-.06-.06-.119-.119-.06L4.334 27.55c.357.238.713.297 1.188.119l13.419-5.403-.119-2.791z" fill="#000"/>
    <path d="M19.238 18.644l.059-.06-.06.06s0 .06.06.06h.06c.059-.06 1.78-.95 2.374-1.307l-.237-1.722-1.84-12.528c0-.238-.06-.416-.179-.534 0 0 .89 11.993.89 13.3 0 1.721-1.127 2.73-1.127 2.73z" fill="url(#f)"/>
    <path d="M18.822 19.475c0-.06-.06-.119-.119-.06L4.334 27.55c.357.238.713.297 1.188.119l13.419-5.403-.119-2.791z" fill="url(#g)" fill-opacity=".8"/>
    <path opacity=".8" d="M5.522 27.61l13.418-5.404-.118-2.612c-.238.712-.653 1.484-1.781 2.078-.832.475-8.788 4.394-11.638 5.76-.178.118-.416.177-.534.237.237.119.415.06.653-.06z" fill="url(#h)"/>
    <path d="M19.297 18.584l-.06.06s0 .119.12.06c.059-.06 1.78-.95 2.374-1.307l-2.078-14.25c-.06-.535-.297-.772-.712-.95l.237 16.506.119-.119z" fill="url(#i)"/>
    <path d="M19.297 18.584l-.06.06s0 .119.12.06c.059-.06 1.78-.95 2.374-1.307l-2.078-14.25c-.06-.535-.297-.772-.712-.95l.237 16.506.119-.119z" fill="url(#j)"/>
    <path d="M3.028 26.363c-.416-.95-2.79-5.582-.178-14.488H1.84c-.534 1.781-.95 2.85-1.187 4.453 0 0-.119.594-.178 1.247-.06.653-.06 1.01-.06 1.425 0 3.563.891 5.64.891 5.64.95 2.97 2.613 5.641 4.869 7.66 1.96 1.722 4.987 3.028 7.481 3.503-.415-.06-7.54-3.087-10.628-9.44z" fill="url(#k)"/>
    <path d="M19.238 19.356h-.535c.06 0 .119 0 .119.06l.119 2.73H19l.119-2.73c0-.06.06-.12.119-.06z" fill="url(#l)"/>
    <path d="M24.938 1.366C31.172 3.74 37.05 10.272 37.05 18.525c0 9.975-7.956 18.11-18.05 18.11v.95c10.094 0 18.584-8.313 18.584-18.585 0-8.194-5.225-15.081-12.647-17.634z" fill="url(#m)"/>
    <path d="M34.913 11.994C30.756 2.434 21.375 1.9 20.84 1.84h-.06c7.185 1.306 11.757 5.996 13.36 10.925v.059c.712 1.9 1.068 3.919 1.128 6.116.06 2.078-.416 4.393-1.306 6.53-.06.298-.12.654-.179.654h.95c2.85-5.344 1.603-10.747.178-14.131z" fill="url(#n)"/>
    <path d="M1.306 19.06C1.306 9.321 9.203 1.305 19 1.305c9.797 0 17.694 7.956 17.694 17.753 0 9.738-7.897 17.635-17.694 17.635-9.797 0-17.694-7.897-17.694-17.635zM6.828 6.827C3.681 9.975 1.722 14.31 1.722 19.06s1.96 9.085 5.047 12.172c3.147 3.088 7.48 5.047 12.23 5.047s9.085-1.9 12.173-5.047c3.147-3.087 5.047-7.422 5.047-12.172 0-4.75-1.96-9.084-5.047-12.23A17.042 17.042 0 0 0 19 1.721c-4.75 0-9.084 1.96-12.172 5.106z" fill="#000"/>
    <path d="M4.69 26.6l12.113-8.728c.653.356 1.722.831 1.84.831.12.06.12-.06.12-.06l-1.485-1.246a.54.54 0 0 1-.237-.475l1.425-14.31c-.06.06-.06.179-.12.238-.058.119-.058.178-.058.297l-2.079 14.31-11.4 8.965c-.059.06-.118.119-.118.178z" fill="#000"/>
    <defs>
        <linearGradient id="a" x1="4.749" y1="7.064" x2="33.251" y2="30.936" gradientUnits="userSpaceOnUse">
            <stop stop-color="#fff"/>
            <stop offset=".1" stop-color="#CDD0D0"/>
            <stop offset=".2" stop-color="#A5ACAF"/>
            <stop offset=".3" stop-color="#98A0A4"/>
            <stop offset=".4" stop-color="#828A8F"/>
            <stop offset=".5" stop-color="#667075"/>
            <stop offset=".6" stop-color="#535C63"/>
            <stop offset=".7" stop-color="#475158"/>
            <stop offset=".8" stop-color="#434D54"/>
            <stop offset="1" stop-color="#475157"/>
        </linearGradient>
        <linearGradient id="b" x1="5.623" y1="7.754" x2="32.342" y2="30.198" gradientUnits="userSpaceOnUse">
            <stop stop-color="#0B1F2A"/>
            <stop offset=".2" stop-color="#333F47"/>
            <stop offset=".5" stop-color="#81898D"/>
            <stop offset=".7" stop-color="#B3B8B8"/>
            <stop offset=".8" stop-color="#DEE0DD"/>
            <stop offset="1" stop-color="#FBFBFB"/>
        </linearGradient>
        <linearGradient id="c" x1="25.494" y1="36.85" x2="12.491" y2="1.107" gradientUnits="userSpaceOnUse">
            <stop stop-color="#E1E3E1"/>
            <stop offset=".1" stop-color="#C1C5C4"/>
            <stop offset=".3" stop-color="#9BA1A2"/>
            <stop offset=".5" stop-color="#7D8487"/>
            <stop offset=".7" stop-color="#687074" stop-opacity="0"/>
            <stop offset=".8" stop-color="#5B6469" stop-opacity="0"/>
            <stop offset="1" stop-color="#576065" stop-opacity="0"/>
        </linearGradient>
        <linearGradient id="d" x1="10.807" y1="4.81" x2="27.193" y2="33.19" gradientUnits="userSpaceOnUse">
            <stop stop-color="#E1E3E1"/>
            <stop offset=".1" stop-color="#C1C5C4"/>
            <stop offset=".3" stop-color="#9BA1A2"/>
            <stop offset=".5" stop-color="#7D8487"/>
            <stop offset=".7" stop-color="#687074" stop-opacity="0"/>
            <stop offset=".8" stop-color="#5B6469" stop-opacity="0"/>
            <stop offset="1" stop-color="#576065" stop-opacity="0"/>
        </linearGradient>
        <linearGradient id="e" x1="26.415" y1="23.39" x2="25.405" y2="25.052" gradientUnits="userSpaceOnUse">
            <stop stop-color="#27343C"/>
            <stop offset="1" stop-color="#00111E" stop-opacity="0"/>
        </linearGradient>
        <linearGradient id="f" x1="23.501" y1="17.285" x2="21.838" y2="14.613" gradientUnits="userSpaceOnUse">
            <stop offset=".1" stop-color="#02131F"/>
            <stop offset=".9" stop-color="#02131F" stop-opacity="0"/>
        </linearGradient>
        <linearGradient id="g" x1="18.989" y1="21.575" x2="16.496" y2="22.287" gradientUnits="userSpaceOnUse">
            <stop offset=".2" stop-color="#02131F"/>
            <stop offset=".9" stop-color="#02131F" stop-opacity="0"/>
        </linearGradient>
        <linearGradient id="h" x1="12.345" y1="24.881" x2="11.988" y2="23.99" gradientUnits="userSpaceOnUse">
            <stop stop-color="#02131F"/>
            <stop offset=".1" stop-color="#02131F"/>
            <stop offset="1" stop-color="#02131F" stop-opacity="0"/>
        </linearGradient>
        <linearGradient id="i" x1="21.139" y1="10.221" x2="19.12" y2="10.458" gradientUnits="userSpaceOnUse">
            <stop offset=".3" stop-color="#02131F"/>
            <stop offset=".8" stop-color="#02131F" stop-opacity="0"/>
        </linearGradient>
        <linearGradient id="j" x1="21.202" y1="10.187" x2="19.835" y2="10.365" gradientUnits="userSpaceOnUse">
            <stop offset=".4" stop-color="#27343C"/>
            <stop offset="1" stop-color="#3B474E" stop-opacity="0"/>
        </linearGradient>
        <linearGradient id="k" x1="-.214" y1="19.493" x2="16.352" y2="29.053" gradientUnits="userSpaceOnUse">
            <stop stop-color="#25323B" stop-opacity="0"/>
            <stop offset=".1" stop-color="#27343C"/>
        </linearGradient>
        <linearGradient id="l" x1="18.97" y1="22.206" x2="18.97" y2="19.356" gradientUnits="userSpaceOnUse">
            <stop offset=".3" stop-color="#A5ABAF"/>
            <stop offset="1" stop-color="#A5ABAF" stop-opacity="0"/>
        </linearGradient>
        <linearGradient id="m" x1="28.292" y1="1.366" x2="28.292" y2="37.584" gradientUnits="userSpaceOnUse">
            <stop stop-color="#6B7378"/>
            <stop offset=".2" stop-color="#333F47"/>
            <stop offset=".5" stop-color="#27343C"/>
            <stop offset=".8" stop-color="#333F47"/>
            <stop offset="1" stop-color="#434D54"/>
        </linearGradient>
        <linearGradient id="n" x1="34.015" y1="4.805" x2="26" y2="16.561" gradientUnits="userSpaceOnUse">
            <stop offset=".7" stop-color="#49545B"/>
            <stop offset=".8" stop-color="#fff" stop-opacity="0"/>
        </linearGradient>
    </defs>
</svg>
