<svg width="80" height="60" viewBox="0 0 80 60" fill="none" xmlns="http://www.w3.org/2000/svg">
    <path d="M0 53.474h33.21v4.58c0 .238.086.47.245.663.16.194.385.34.644.419.26.078.542.085.807.02.264-.065.499-.2.67-.386l4.277-4.609 4.276 4.608c.172.186.407.32.671.386.265.065.546.058.806-.02s.485-.225.644-.418c.16-.194.245-.425.245-.662v-4.58h33.211V.8H0v52.674zm43.838 1.316l-2.657-2.863V47.75h-2.656v4.178l-2.657 2.863V43.384a8.89 8.89 0 0 0 3.985.93c1.4 0 2.776-.321 3.985-.93V54.79zm-3.985-12.767a5.936 5.936 0 0 1-2.952-.772c-.874-.503-1.555-1.218-1.957-2.055a3.996 3.996 0 0 1-.303-2.647c.205-.888.712-1.704 1.455-2.345.743-.64 1.69-1.077 2.72-1.253a6.108 6.108 0 0 1 3.07.26c.971.347 1.801.934 2.385 1.687.584.753.896 1.64.896 2.545 0 1.215-.56 2.38-1.557 3.239-.996.859-2.348 1.341-3.757 1.341zm0-11.45a8.95 8.95 0 0 0-4.091.971c-1.237.637-2.25 1.551-2.932 2.645a6.101 6.101 0 0 0-.939 3.568c.067 1.24.523 2.442 1.32 3.476v5.37H11.787c-.239-.79-.719-1.513-1.39-2.091a5.591 5.591 0 0 0-2.426-1.198V10.96a5.59 5.59 0 0 0 2.427-1.198c.67-.578 1.15-1.3 1.39-2.092h56.13c.24.792.72 1.514 1.39 2.092a5.59 5.59 0 0 0 2.427 1.198v32.354a5.59 5.59 0 0 0-2.426 1.198c-.671.578-1.151 1.3-1.39 2.092H46.495v-5.37c.797-1.035 1.253-2.237 1.32-3.477a6.101 6.101 0 0 0-.94-3.568c-.68-1.094-1.694-2.008-2.93-2.645a8.95 8.95 0 0 0-4.092-.972zM2.657 3.09h74.392v48.094H46.495v-2.29h23.912v-1.145c0-.608.28-1.19.778-1.62.498-.429 1.174-.67 1.879-.67h1.328V8.816h-1.328c-.705 0-1.38-.242-1.879-.671-.498-.43-.778-1.012-.778-1.62V5.38H9.299v1.145c0 .608-.28 1.19-.778 1.62-.498.43-1.174.67-1.879.67H5.314V45.46h1.328c.705 0 1.38.241 1.879.67.498.43.778 1.013.778 1.62v1.145h23.912v2.29H2.657V3.09z" fill="#BC2131"/>
    <path d="M18.598 20.267c.108 0 .216-.012.321-.035a115.032 115.032 0 0 1 20.934-2.255c7.05.113 14.067.87 20.933 2.255.196.044.4.048.598.012.198-.036.383-.112.54-.22.16-.107.289-.244.377-.4.09-.157.135-.328.135-.502v-5.726c0-.249-.094-.491-.268-.69a1.35 1.35 0 0 0-.696-.412 101.31 101.31 0 0 0-43.238 0 1.35 1.35 0 0 0-.696.412 1.046 1.046 0 0 0-.268.69v5.726c0 .303.14.595.389.81.249.214.587.335.939.335zm1.328-5.986a100.924 100.924 0 0 1 19.927-2.03c6.71.016 13.396.697 19.926 2.03v3.402a115.02 115.02 0 0 0-19.926-1.997 115.02 115.02 0 0 0-19.927 1.997v-3.402z" fill="#BC2131"/>
    <path d="M55.794 21.412H23.912v2.29h31.882v-2.29z" fill="#BC2131"/>
    <path d="M19.235 26.992H13.92v2.29h5.314v-2.29z" fill="#BC2131"/>
    <path d="M53.137 26.992H26.57v2.29h26.568v-2.29z" fill="#BC2131"/>
    <path d="M65.64 26.992h-5.315v2.29h5.314v-2.29z" fill="#BC2131"/>
</svg>
