<svg width="63" height="66" viewBox="0 0 63 66" fill="none" xmlns="http://www.w3.org/2000/svg">
    <path d="M32.455 65.5l.458-.153c.305-.076 7.789-2.062 15.196-10.003C54.906 48.164 63 34.495 63 10.06V8.15h-1.91A55.578 55.578 0 0 1 33.525.82l-1.07-.611-1.069.61A55.578 55.578 0 0 1 3.819 8.152H0v1.909c0 24.436 8.63 38.182 15.807 45.36 7.942 7.865 15.807 9.85 16.19 9.927l.458.153zM3.818 11.969a59.61 59.61 0 0 0 28.637-7.33 59.36 59.36 0 0 0 26.727 7.33c-.306 17.334-5.04 31.385-13.593 40.625-5.727 6.11-11.454 8.4-13.134 8.935-3.742-1.146-27.873-10.233-28.637-49.56z" fill="#BC2131"/>
    <path d="M9.8 17.047l.067.793c.832 13.688 5.143 22.542 9.85 28.201 4.705 5.657 9.796 8.109 12.175 9.013h.002l.328.132.074.03.075-.03.331-.133.005-.002c2.179-.937 6.905-3.424 11.277-9.107 4.374-5.684 8.384-14.552 9.15-28.237l.065-.793.017-.2-.2-.016-.793-.066h-.001c-6.811-.66-13.356-2.51-19.437-5.611l-.001-.001-.398-.199-.09-.044-.089.044-.398.199h-.002a53.446 53.446 0 0 1-21.023 5.744h-.004l-.797.067-.199.016.017.2zm22.426 35.881c-2.387-.939-6.964-3.295-11.188-8.483-4.246-5.214-8.145-13.299-9.098-25.707 7.089-.55 13.917-2.458 20.356-5.66 5.91 2.939 12.143 4.779 18.7 5.457-.852 12.447-4.456 20.57-8.392 25.817-3.911 5.217-8.158 7.605-10.378 8.576z" fill="#BC2131" stroke="#BC2131" stroke-width=".4"/>
</svg>
