<svg width="39" height="21" viewBox="0 0 39 21" fill="none" xmlns="http://www.w3.org/2000/svg">
    <path d="M28.581 15.185l2.563-13.483c.154-.83.779-1.485 1.574-1.66 1.1-.217 2.16.524 2.382 1.662l1.212 6.405V0H39v19.293c0 .815-.557 1.514-1.323 1.673-.878.189-1.741-.423-1.922-1.355l-2.633-13.89-2.563 13.483c-.167.83-.794 1.486-1.588 1.661-1.1.217-2.159-.524-2.367-1.661L24.04 5.72l-2.563 13.483a2.075 2.075 0 0 1-1.588 1.661c-1.086.217-2.145-.524-2.368-1.661L14.96 5.72l-2.563 13.483a2.075 2.075 0 0 1-1.587 1.661c-1.087.217-2.145-.524-2.368-1.661L5.878 5.72 3.245 19.61c-.153.801-.821 1.384-1.601 1.384C.738 20.995 0 20.223 0 19.29V0h2.688v8.109L3.9 1.704C4.067.874 4.694.217 5.488.042c1.1-.217 2.159.524 2.368 1.662l2.563 13.483L12.98 1.704c.154-.83.78-1.487 1.588-1.662 1.087-.217 2.16.524 2.368 1.662L19.5 15.185l2.563-13.483c.153-.83.78-1.487 1.588-1.661 1.086-.217 2.145.524 2.368 1.661l2.562 13.483z" fill="#fff"/>
</svg>
