<svg width="61" height="76" viewBox="0 0 61 76" fill="none" xmlns="http://www.w3.org/2000/svg">
    <path d="M3.923 31.05a1.32 1.32 0 0 1-1.286-1.286v-.005a1.3 1.3 0 0 1 1.289-1.289H9.787v.15a1.129 1.129 0 0 1 1.14 1.14l-7.004 1.29zm0 0H9.745 3.923z" fill="#BC2131" stroke="#BC2131" stroke-width=".3"/>
    <path d="M53.377 28.47h5.82v.15l-5.82-.15zm0 0h-.004m.004 0h-.004m0 0a1.28 1.28 0 0 0-1.246 1.291m1.246-1.29l-.003 2.58m0 0v-.001a1.3 1.3 0 0 1-1.243-1.289m1.243 1.29h.007m-.007 0h.007m-1.25-1.29h.15-.15zm1.25 1.29H59.198m-5.821 0h5.821m0 0a1.3 1.3 0 0 0 .908-.382m-.908.381l.908-.38m0 0a1.3 1.3 0 0 0 .38-.909l-.38.908z" fill="#BC2131" stroke="#BC2131" stroke-width=".3"/>
    <path d="M32.867 7.93a1.28 1.28 0 0 1-.795 1.195l.795-1.196zm0 0V2.14m0 5.79L31.576.85a1.28 1.28 0 0 1 1.291 1.29m0 0h-.15l.15.001zm-2.196 6.698c.24.242.564.38.905.382V.85a1.29 1.29 0 0 0-1.279 1.29v5.79c0 .34.134.667.374.908z" fill="#BC2131" stroke="#BC2131" stroke-width=".3"/>
    <path d="M49.715 19.879c.217.165.48.256.752.26v.001h.031v-.001a1.3 1.3 0 0 0 .616-.19l4.996-2.918a1.28 1.28 0 0 0 .518-1.754l-.003-.005a1.3 1.3 0 0 0-1.774-.441l-4.999 2.919a1.28 1.28 0 0 0-.137 2.129z" fill="#BC2131" stroke="#BC2131" stroke-width=".3"/>
    <path d="M19.567 11.495l.002.003a1.4 1.4 0 0 0 1.12.672h.019a1.51 1.51 0 0 0 .632-.19l.005-.002a1.28 1.28 0 0 0 .464-1.699l-.002-.004-2.92-5.1-.002-.003a1.28 1.28 0 0 0-1.744-.441h-.001a1.29 1.29 0 0 0-.487 1.687l.004.007 2.91 5.07z" fill="#BC2131" stroke="#BC2131" stroke-width=".3"/>
    <path d="M12.031 19.95l.005.002a1.6 1.6 0 0 0 .629.188h.011a1.28 1.28 0 0 0 .646-2.39l-5-2.92h-.001a1.29 1.29 0 0 0-1.91.93 1.25 1.25 0 0 0 .621 1.27l5 2.92z" fill="#BC2131" stroke="#BC2131" stroke-width=".3"/>
    <path d="M54.851 44.66h.002a1.4 1.4 0 0 0 .639.18h.006a1.329 1.329 0 0 0 1.127-.642l.003-.006a1.28 1.28 0 0 0-.497-1.732l-4.991-2.915a1.279 1.279 0 0 0-1.977 1.427 1.282 1.282 0 0 0 .696.772l4.992 2.916z" fill="#BC2131" stroke="#BC2131" stroke-width=".3"/>
    <path d="M42.493 12.17h.007a1.321 1.321 0 0 0 1.127-.676l2.91-4.998a1.27 1.27 0 0 0-.454-1.735 1.31 1.31 0 0 0-1.773.44l-.003.004-2.95 5.07-.005.01a1.31 1.31 0 0 0 1.14 1.885z" fill="#BC2131" stroke="#BC2131" stroke-width=".3"/>
    <mask id="a" maskUnits="userSpaceOnUse" x="0" y="11.15" width="57" height="56" fill="#000">
        <path fill="#fff" d="M0 11.15h57v56H0z"/>
        <path d="M46.347 47v-.53a11.11 11.11 0 0 0-1.4-5.39 17.44 17.44 0 0 0 4.22-11.32 17.61 17.61 0 1 0-35.22 0c.013.87.1 1.736.26 2.59a9.84 9.84 0 0 0-4 7.9v.3a8.52 8.52 0 1 0-.23 17h.36a7.96 7.96 0 0 0-.06.87c0 .37 0 .74.06 1.1a1.152 1.152 0 0 0 2.28-.33 3.214 3.214 0 0 1-.06-.77 5.43 5.43 0 0 1 4.38-5.32 1.15 1.15 0 0 0 .77-1.67 4.37 4.37 0 0 1-.57-2.15 4.45 4.45 0 0 1 4.42-4.45 4.37 4.37 0 0 1 3 1.17 1.24 1.24 0 0 0 1.17.24 1.199 1.199 0 0 0 .7-.94 8.88 8.88 0 0 1 17.68 1.17c-.014.55-.075 1.1-.18 1.64a1.15 1.15 0 0 0 1.34 1.31 7.29 7.29 0 1 1 1.51 14.42h-1.4a1.11 1.11 0 0 0-1.1 1.11 1.13 1.13 0 0 0 1.1 1.14h1.41a9.55 9.55 0 1 0-.44-19.09zm-21.79-3.71a6.41 6.41 0 0 0-3-.7 6.71 6.71 0 0 0-6.63 6.69c-.008.678.09 1.353.29 2a7.69 7.69 0 0 0-4.18 4h-1a6.24 6.24 0 0 1 0-12.48c.427-.004.853.04 1.27.13a1.18 1.18 0 0 0 1-.31 1.1 1.1 0 0 0 .33-1 6.896 6.896 0 0 1-.13-1.4 7.59 7.59 0 0 1 15-1.74 11 11 0 0 0-2.95 4.81zm10.67-7.94a10.87 10.87 0 0 0-5.75 1.64 9.92 9.92 0 0 0-9.35-6.64 9.753 9.753 0 0 0-3.81.77c0-.47-.07-.9-.07-1.34a15.343 15.343 0 0 1 15.335-15.732A15.34 15.34 0 0 1 46.917 29.78a14.87 14.87 0 0 1-3.32 9.38 11 11 0 0 0-8.37-3.81z"/>
    </mask>
    <path d="M46.347 47v-.53a11.11 11.11 0 0 0-1.4-5.39 17.44 17.44 0 0 0 4.22-11.32 17.61 17.61 0 1 0-35.22 0c.013.87.1 1.736.26 2.59a9.84 9.84 0 0 0-4 7.9v.3a8.52 8.52 0 1 0-.23 17h.36a7.96 7.96 0 0 0-.06.87c0 .37 0 .74.06 1.1a1.152 1.152 0 0 0 2.28-.33 3.214 3.214 0 0 1-.06-.77 5.43 5.43 0 0 1 4.38-5.32 1.15 1.15 0 0 0 .77-1.67 4.37 4.37 0 0 1-.57-2.15 4.45 4.45 0 0 1 4.42-4.45 4.37 4.37 0 0 1 3 1.17 1.24 1.24 0 0 0 1.17.24 1.199 1.199 0 0 0 .7-.94 8.88 8.88 0 0 1 17.68 1.17c-.014.55-.075 1.1-.18 1.64a1.15 1.15 0 0 0 1.34 1.31 7.29 7.29 0 1 1 1.51 14.42h-1.4a1.11 1.11 0 0 0-1.1 1.11 1.13 1.13 0 0 0 1.1 1.14h1.41a9.55 9.55 0 1 0-.44-19.09zm-21.79-3.71a6.41 6.41 0 0 0-3-.7 6.71 6.71 0 0 0-6.63 6.69c-.008.678.09 1.353.29 2a7.69 7.69 0 0 0-4.18 4h-1a6.24 6.24 0 0 1 0-12.48c.427-.004.853.04 1.27.13a1.18 1.18 0 0 0 1-.31 1.1 1.1 0 0 0 .33-1 6.896 6.896 0 0 1-.13-1.4 7.59 7.59 0 0 1 15-1.74 11 11 0 0 0-2.95 4.81zm10.67-7.94a10.87 10.87 0 0 0-5.75 1.64 9.92 9.92 0 0 0-9.35-6.64 9.753 9.753 0 0 0-3.81.77c0-.47-.07-.9-.07-1.34a15.343 15.343 0 0 1 15.335-15.732A15.34 15.34 0 0 1 46.917 29.78a14.87 14.87 0 0 1-3.32 9.38 11 11 0 0 0-8.37-3.81z" fill="#BC2131"/>
    <path d="M46.347 47v-.53a11.11 11.11 0 0 0-1.4-5.39 17.44 17.44 0 0 0 4.22-11.32 17.61 17.61 0 1 0-35.22 0c.013.87.1 1.736.26 2.59a9.84 9.84 0 0 0-4 7.9v.3a8.52 8.52 0 1 0-.23 17h.36a7.96 7.96 0 0 0-.06.87c0 .37 0 .74.06 1.1a1.152 1.152 0 0 0 2.28-.33 3.214 3.214 0 0 1-.06-.77 5.43 5.43 0 0 1 4.38-5.32 1.15 1.15 0 0 0 .77-1.67 4.37 4.37 0 0 1-.57-2.15 4.45 4.45 0 0 1 4.42-4.45 4.37 4.37 0 0 1 3 1.17 1.24 1.24 0 0 0 1.17.24 1.199 1.199 0 0 0 .7-.94 8.88 8.88 0 0 1 17.68 1.17c-.014.55-.075 1.1-.18 1.64a1.15 1.15 0 0 0 1.34 1.31 7.29 7.29 0 1 1 1.51 14.42h-1.4a1.11 1.11 0 0 0-1.1 1.11 1.13 1.13 0 0 0 1.1 1.14h1.41a9.55 9.55 0 1 0-.44-19.09zm-21.79-3.71a6.41 6.41 0 0 0-3-.7 6.71 6.71 0 0 0-6.63 6.69c-.008.678.09 1.353.29 2a7.69 7.69 0 0 0-4.18 4h-1a6.24 6.24 0 0 1 0-12.48c.427-.004.853.04 1.27.13a1.18 1.18 0 0 0 1-.31 1.1 1.1 0 0 0 .33-1 6.896 6.896 0 0 1-.13-1.4 7.59 7.59 0 0 1 15-1.74 11 11 0 0 0-2.95 4.81zm10.67-7.94a10.87 10.87 0 0 0-5.75 1.64 9.92 9.92 0 0 0-9.35-6.64 9.753 9.753 0 0 0-3.81.77c0-.47-.07-.9-.07-1.34a15.343 15.343 0 0 1 15.335-15.732A15.34 15.34 0 0 1 46.917 29.78a14.87 14.87 0 0 1-3.32 9.38 11 11 0 0 0-8.37-3.81z" stroke="#BC2131" stroke-width=".6" mask="url(#a)"/>
    <path d="M8.682 67.243l-.002.002a1.29 1.29 0 0 0 .902 2.195 1.15 1.15 0 0 0 .913-.376l2.407-2.377.002-.002a1.3 1.3 0 0 0-.415-2.106 1.249 1.249 0 0 0-1.4.296l-2.407 2.368z" fill="#BC2131" stroke="#BC2131" stroke-width=".3"/>
    <path d="M3.197 75.82a1.229 1.229 0 0 0 .907-.385l2.408-2.378h.001a1.28 1.28 0 0 0 0-1.813 1.3 1.3 0 0 0-1.82 0H4.69l-2.41 2.41v.001a1.27 1.27 0 0 0-.002 1.78 1.25 1.25 0 0 0 .918.385zm0 0h-.002l.002-.15.002.15h-.002z" fill="#BC2131" stroke="#BC2131" stroke-width=".3"/>
    <path d="M19.303 60.266a1.283 1.283 0 0 0-.915-2.19 1.286 1.286 0 0 0-.907.378l-2.378 2.398a1.25 1.25 0 0 0-.003 1.823 1.15 1.15 0 0 0 .92.375 1.15 1.15 0 0 0 .876-.377l2.407-2.407z" fill="#BC2131" stroke="#BC2131" stroke-width=".3"/>
    <path d="M23.592 64.587l.001-.001 2.368-2.377a1.23 1.23 0 0 0 0-1.817 1.251 1.251 0 0 0-1.78.003h-.001l-2.359 2.379a1.28 1.28 0 0 0-.001 1.811 1.25 1.25 0 0 0 .908.385h.008a1.34 1.34 0 0 0 .856-.383z" fill="#BC2131" stroke="#BC2131" stroke-width=".3"/>
    <path d="M27.41 57.174v.001a1.3 1.3 0 0 0 0 1.82l.007.007c.247.22.561.35.892.368h.013a1.42 1.42 0 0 0 .906-.369l.005-.005 2.407-2.407a1.288 1.288 0 0 0 .046-1.868 1.288 1.288 0 0 0-1.868.046l-2.407 2.407z" fill="#BC2131" stroke="#BC2131" stroke-width=".3"/>
    <path d="M20.376 65.987l-.004-.004a1.3 1.3 0 0 0-1.82 0l-.001.001-2.41 2.41a1.28 1.28 0 0 0 0 1.812l.004.004c.248.229.568.363.904.38h.009a1.28 1.28 0 0 0 .905-.384l2.41-2.4.003-.003a1.32 1.32 0 0 0 0-1.816z" fill="#BC2131" stroke="#BC2131" stroke-width=".3"/>
    <path d="M34.104 62.675a1.26 1.26 0 0 1-.905.375h-.003l.001-.15.907-.225zm0 0l2.367-2.407m-2.367 2.407l2.367-2.407m0 0a1.23 1.23 0 0 0 0-1.816 1.248 1.248 0 0 0-1.78.002l1.78 1.814z" fill="#BC2131" stroke="#BC2131" stroke-width=".3"/>
    <path d="M27.703 69.067l2.38-2.38.003-.004a1.32 1.32 0 0 0 0-1.816 1.261 1.261 0 0 0-1.827.009l-2.365 2.365a1.23 1.23 0 0 0-.003 1.826 1.152 1.152 0 0 0 .91.373 1.29 1.29 0 0 0 .902-.373z" fill="#BC2131" stroke="#BC2131" stroke-width=".3"/>
    <path d="M19.46 73.654l.907 2.016-.005.15h.001a1.201 1.201 0 0 0 .922-.386l2.398-2.377a1.281 1.281 0 1 0-1.812-1.813l-2.41 2.41z" fill="#BC2131" stroke="#BC2131" stroke-width=".3"/>
    <path d="M38.942 62.773l-.003.003a1.3 1.3 0 0 0 0 1.809l.002.002c.24.239.564.376.903.383h.002a1.27 1.27 0 0 0 .918-.384l2.408-2.38.003-.002a1.3 1.3 0 0 0 0-1.808l-.002-.002a1.281 1.281 0 0 0-1.812 0l-2.42 2.38z" fill="#BC2131" stroke="#BC2131" stroke-width=".3"/>
    <path d="M45.44 59.37h.009a1.31 1.31 0 0 0 .903-.373h.001l2.41-2.41.001-.002a1.3 1.3 0 0 0 0-1.82l-.004-.004a1.32 1.32 0 0 0-1.816 0l-.003.003-2.41 2.41-.003.003a1.32 1.32 0 0 0 0 1.816l.01.01c.25.22.568.35.901.367z" fill="#BC2131" stroke="#BC2131" stroke-width=".3"/>
    <path d="M33.351 70.206l.002.002c.244.237.57.373.91.382h.013a1.44 1.44 0 0 0 .893-.38l.004-.004 2.377-2.396a1.28 1.28 0 1 0-1.792-1.823l-2.407 2.407a1.281 1.281 0 0 0 0 1.812z" fill="#BC2131" stroke="#BC2131" stroke-width=".3"/>
</svg>
